<svg xmlns="http://www.w3.org/2000/svg" width="10.346" height="10.368" viewBox="0 0 10.346 10.368"><defs><style>.a{fill:#6d6e71;}</style></defs><g transform="translate(-2.5 -2.5)"><path class="a" d="M37.509,2.5H34.372a.555.555,0,1,0,0,1.111h1.786L30.963,8.817a.554.554,0,1,0,.784.784l5.206-5.195V6.192a.555.555,0,0,0,1.111,0V3.055A.558.558,0,0,0,37.509,2.5Z" transform="translate(-25.218)"/><path class="a" d="M10.853,19.5a.558.558,0,0,0-.555.555v2.233a1.3,1.3,0,0,1-1.3,1.3H4.918a1.3,1.3,0,0,1-1.3-1.3V18.207a1.3,1.3,0,0,1,1.3-1.3H7.15a.555.555,0,1,0,0-1.111H4.918A2.419,2.419,0,0,0,2.5,18.218V22.3A2.419,2.419,0,0,0,4.918,24.72H9A2.419,2.419,0,0,0,11.42,22.3V20.058A.575.575,0,0,0,10.853,19.5Z" transform="translate(0 -11.852)"/></g></svg>