<?xml version="1.0" encoding="utf-8"?>
<!-- Generator: Adobe Illustrator 26.0.3, SVG Export Plug-In . SVG Version: 6.00 Build 0)  -->
<svg version="1.1" id="Layer_1" xmlns="http://www.w3.org/2000/svg" xmlns:xlink="http://www.w3.org/1999/xlink" x="0px" y="0px"
	 viewBox="0 0 10.3 10.4" style="enable-background:new 0 0 10.3 10.4;" xml:space="preserve">
<style type="text/css">
	.st0{fill:#E10A0A;}
</style>
<g transform="translate(-2.5 -2.5)">
	<path class="st0" d="M12.3,2.5H9.2c-0.3,0-0.6,0.2-0.6,0.6s0.2,0.6,0.6,0.6h1.8L5.7,8.8C5.5,9,5.5,9.4,5.7,9.6s0.6,0.2,0.8,0
		l5.2-5.2v1.8c0,0.3,0.2,0.6,0.6,0.6s0.6-0.2,0.6-0.6V3.1C12.8,2.7,12.6,2.5,12.3,2.5z"/>
	<path class="st0" d="M10.9,7.6c-0.3,0-0.6,0.2-0.6,0.6v2.2c0,0.7-0.6,1.3-1.3,1.3H4.9c-0.7,0-1.3-0.6-1.3-1.3V6.4
		c0-0.7,0.6-1.3,1.3-1.3h2.2c0.3,0,0.6-0.2,0.6-0.6S7.5,3.9,7.2,3.9l0,0H4.9C3.6,3.9,2.5,5,2.5,6.4c0,0,0,0,0,0v4.1
		c0,1.3,1.1,2.4,2.4,2.4c0,0,0,0,0,0H9c1.3,0,2.4-1.1,2.4-2.4c0,0,0,0,0,0V8.2C11.4,7.9,11.2,7.7,10.9,7.6z"/>
</g>
</svg>
