<svg width="13" height="11" viewBox="0 0 13 11" fill="none" xmlns="http://www.w3.org/2000/svg" class="src-components-Icon-Icon_icon" style="width: 16px; height: 16px;"><path d="M4.33334 10.1665V8.83317H12.3333V10.1665H4.33334ZM4.33334 6.1665V4.83317H12.3333V6.1665H4.33334ZM4.33334 2.1665V0.833171H12.3333V2.1665H4.33334ZM1.66668 10.8332C1.30001 10.8332 0.986121 10.7026 0.72501 10.4415C0.463899 10.1804 0.333344 9.8665 0.333344 9.49984C0.333344 9.13317 0.463899 8.81928 0.72501 8.55817C0.986121 8.29706 1.30001 8.1665 1.66668 8.1665C2.03334 8.1665 2.34723 8.29706 2.60834 8.55817C2.86945 8.81928 3.00001 9.13317 3.00001 9.49984C3.00001 9.8665 2.86945 10.1804 2.60834 10.4415C2.34723 10.7026 2.03334 10.8332 1.66668 10.8332ZM1.66668 6.83317C1.30001 6.83317 0.986121 6.70261 0.72501 6.4415C0.463899 6.18039 0.333344 5.8665 0.333344 5.49984C0.333344 5.13317 0.463899 4.81928 0.72501 4.55817C0.986121 4.29706 1.30001 4.1665 1.66668 4.1665C2.03334 4.1665 2.34723 4.29706 2.60834 4.55817C2.86945 4.81928 3.00001 5.13317 3.00001 5.49984C3.00001 5.8665 2.86945 6.18039 2.60834 6.4415C2.34723 6.70261 2.03334 6.83317 1.66668 6.83317ZM1.66668 2.83317C1.30001 2.83317 0.986121 2.70262 0.72501 2.4415C0.463899 2.18039 0.333344 1.8665 0.333344 1.49984C0.333344 1.13317 0.463899 0.819282 0.72501 0.558171C0.986121 0.297059 1.30001 0.166504 1.66668 0.166504C2.03334 0.166504 2.34723 0.297059 2.60834 0.558171C2.86945 0.819282 3.00001 1.13317 3.00001 1.49984C3.00001 1.8665 2.86945 2.18039 2.60834 2.4415C2.34723 2.70262 2.03334 2.83317 1.66668 2.83317Z" fill="#1C1B1D"></path></svg>