<svg width="137" height="40" viewBox="0 0 137 40" fill="none" xmlns="http://www.w3.org/2000/svg">
<g clip-path="url(#clip0_1047_4785)">
<path d="M130.5 0.000442505H5.50009C2.73867 0.000442505 0.500092 2.23902 0.500092 5.00044V35.0004C0.500092 37.7619 2.73867 40.0004 5.50009 40.0004H130.5C133.262 40.0004 135.5 37.7619 135.5 35.0004V5.00044C135.5 2.23902 133.262 0.000442505 130.5 0.000442505Z" fill="black"/>
<path d="M130.5 0.800456C131.614 0.801742 132.681 1.24469 133.469 2.03211C134.256 2.81953 134.699 3.88712 134.7 5.00066V35.0007C134.699 36.1142 134.256 37.1818 133.469 37.9692C132.681 38.7566 131.614 39.1996 130.5 39.2009H5.50009C4.38654 39.1996 3.31897 38.7566 2.53159 37.9692C1.74421 37.1818 1.30132 36.1142 1.30009 35.0007V5.00066C1.3013 3.8871 1.74419 2.8195 2.53157 2.03208C3.31895 1.24465 4.38654 0.801721 5.50009 0.800456H130.5M130.5 0.000656128H5.50009C4.1752 0.00453423 2.90568 0.532564 1.96884 1.46941C1.032 2.40625 0.50397 3.67577 0.500092 5.00066V35.0007C0.50397 36.3255 1.032 37.5951 1.96884 38.5319C2.90568 39.4687 4.1752 39.9968 5.50009 40.0007H130.5C131.825 39.9968 133.094 39.4687 134.031 38.5319C134.968 37.5951 135.496 36.3255 135.5 35.0007V5.00066C135.496 3.67577 134.968 2.40625 134.031 1.46941C133.094 0.532564 131.825 0.00453423 130.5 0.000656128Z" fill="#A6A6A6"/>
<path d="M47.9185 10.2437C47.9367 10.6107 47.88 10.9775 47.7519 11.3218C47.6238 11.6662 47.4269 11.9808 47.1733 12.2466C46.8891 12.5414 46.5459 12.7728 46.166 12.9258C45.7862 13.0788 45.3784 13.1499 44.9692 13.1343C44.3505 13.1274 43.7474 12.9385 43.2353 12.5913C42.7232 12.244 42.3245 11.7537 42.0891 11.1814C41.8537 10.6092 41.7919 9.98028 41.9114 9.37315C42.0309 8.76602 42.3265 8.20748 42.7612 7.76715C43.0488 7.47491 43.3929 7.24431 43.7725 7.08942C44.1521 6.93453 44.5593 6.85859 44.9692 6.86625C45.3926 6.86497 45.8117 6.95057 46.2007 7.11775C46.562 7.26419 46.8835 7.49389 47.1392 7.78815L46.6118 8.31595C46.4108 8.0794 46.1582 7.89219 45.8734 7.76875C45.5886 7.64532 45.2792 7.58897 44.9692 7.60405C44.6571 7.60244 44.3479 7.66382 44.0601 7.78453C43.7723 7.90524 43.5119 8.0828 43.2943 8.30656C43.0768 8.53032 42.9066 8.79568 42.794 9.08676C42.6815 9.37784 42.6288 9.68864 42.6392 10.0005C42.6318 10.4677 42.7632 10.9266 43.0169 11.319C43.2706 11.7114 43.6351 12.0196 44.0642 12.2046C44.4933 12.3895 44.9677 12.4429 45.4271 12.3579C45.8866 12.2729 46.3105 12.0534 46.645 11.7271C46.9529 11.3954 47.1314 10.9641 47.1479 10.5117H44.9692V9.79105H47.8765C47.904 9.94039 47.918 10.0919 47.9185 10.2437V10.2437Z" fill="white" stroke="white" stroke-width="0.2" stroke-miterlimit="10"/>
<path d="M52.5278 7.73785H49.7954V9.64015H52.2593V10.3609H49.7954V12.2632H52.5278V13.0005H49.0249V7.00055H52.5278V7.73785Z" fill="white" stroke="white" stroke-width="0.2" stroke-miterlimit="10"/>
<path d="M55.7788 13.0005H55.0073V7.73785H53.3315V7.00055H57.4546V7.73785H55.7788V13.0005Z" fill="white" stroke="white" stroke-width="0.2" stroke-miterlimit="10"/>
<path d="M60.438 13.0005V7.00055H61.2085V13.0005H60.438Z" fill="white" stroke="white" stroke-width="0.2" stroke-miterlimit="10"/>
<path d="M64.6284 13.0005H63.8569V7.73785H62.1812V7.00055H66.3042V7.73785H64.6284V13.0005Z" fill="white" stroke="white" stroke-width="0.2" stroke-miterlimit="10"/>
<path d="M74.1094 12.2251C73.5254 12.8074 72.7344 13.1343 71.9097 13.1343C71.085 13.1343 70.294 12.8074 69.71 12.2251C69.1424 11.6235 68.8262 10.8277 68.8262 10.0005C68.8262 9.17341 69.1424 8.37756 69.71 7.77594C69.9987 7.48721 70.3414 7.25824 70.7187 7.10214C71.0959 6.94604 71.5003 6.86588 71.9086 6.86624C72.3168 6.8666 72.721 6.94748 73.098 7.10425C73.475 7.26102 73.8174 7.4906 74.1055 7.77984C74.6748 8.37961 74.9925 9.17479 74.9932 10.0017C74.9939 10.8286 74.6776 11.6244 74.1094 12.2251V12.2251ZM70.2793 11.7227C70.7118 12.1545 71.298 12.3971 71.9092 12.3971C72.5204 12.3971 73.1066 12.1545 73.5391 11.7227C73.9682 11.2518 74.2061 10.6377 74.2061 10.0005C74.2061 9.36342 73.9682 8.74926 73.5391 8.27834C73.1066 7.84655 72.5204 7.60403 71.9092 7.60403C71.298 7.60403 70.7118 7.84655 70.2793 8.27834C69.8508 8.74955 69.6133 9.36361 69.6133 10.0005C69.6133 10.6375 69.8508 11.2515 70.2793 11.7227V11.7227Z" fill="white" stroke="white" stroke-width="0.2" stroke-miterlimit="10"/>
<path d="M76.0752 13.0005V7.00055H77.0137L79.9297 11.668H79.9629L79.9297 10.5117V7.00055H80.7012V13.0005H79.8965L76.8457 8.10695H76.8125L76.8457 9.26325V13.0005H76.0752Z" fill="white" stroke="white" stroke-width="0.2" stroke-miterlimit="10"/>
<path d="M68.6359 21.7521C67.7954 21.7553 66.9747 22.0075 66.2774 22.4768C65.58 22.946 65.0374 23.6114 64.718 24.3889C64.3985 25.1663 64.3166 26.021 64.4825 26.8449C64.6485 27.6689 65.0548 28.4253 65.6503 29.0185C66.2458 29.6117 67.0036 30.0151 67.8282 30.1779C68.6528 30.3407 69.5072 30.2556 70.2834 29.9332C71.0596 29.6108 71.7229 29.0656 72.1896 28.3665C72.6562 27.6674 72.9052 26.8458 72.9052 26.0052C72.9135 25.4431 72.8086 24.885 72.5967 24.3642C72.3849 23.8434 72.0705 23.3705 71.6721 22.9737C71.2738 22.5769 70.7998 22.2642 70.2781 22.0544C69.7565 21.8445 69.198 21.7417 68.6359 21.7521V21.7521ZM68.6359 28.5829C68.1183 28.6199 67.6015 28.5001 67.1529 28.2392C66.7043 27.9783 66.3447 27.5884 66.1208 27.1202C65.8969 26.6521 65.8192 26.1274 65.8977 25.6144C65.9762 25.1014 66.2073 24.624 66.5609 24.2442C66.9146 23.8644 67.3744 23.5999 67.8805 23.4851C68.3865 23.3703 68.9155 23.4106 69.3984 23.6006C69.8813 23.7906 70.2958 24.1216 70.5879 24.5505C70.88 24.9794 71.0363 25.4863 71.0363 26.0052C71.052 26.3331 71.002 26.6608 70.8891 26.969C70.7763 27.2772 70.6029 27.5597 70.3793 27.7999C70.1556 28.0401 69.8861 28.2331 69.5867 28.3676C69.2873 28.5021 68.964 28.5753 68.6359 28.5829V28.5829ZM59.3225 21.7521C58.482 21.7553 57.6613 22.0074 56.9639 22.4767C56.2666 22.946 55.724 23.6114 55.4045 24.3888C55.0851 25.1662 55.0031 26.0209 55.169 26.8449C55.335 27.6689 55.7413 28.4252 56.3368 29.0184C56.9322 29.6116 57.6901 30.0151 58.5147 30.1779C59.3393 30.3407 60.1936 30.2556 60.9699 29.9332C61.7461 29.6108 62.4094 29.0656 62.876 28.3665C63.3427 27.6674 63.5917 26.8458 63.5917 26.0052C63.6 25.4431 63.4951 24.885 63.2832 24.3642C63.0714 23.8434 62.757 23.3705 62.3587 22.9737C61.9604 22.5769 61.4863 22.2643 60.9647 22.0544C60.4431 21.8446 59.8846 21.7418 59.3225 21.7521V21.7521ZM59.3225 28.5829C58.8049 28.6199 58.2881 28.5001 57.8395 28.2392C57.3909 27.9783 57.0313 27.5884 56.8074 27.1202C56.5835 26.6521 56.5058 26.1274 56.5843 25.6144C56.6628 25.1014 56.8939 24.624 57.2475 24.2442C57.6012 23.8644 58.061 23.5999 58.5671 23.4851C59.0731 23.3703 59.6021 23.4106 60.085 23.6006C60.5679 23.7906 60.9824 24.1216 61.2745 24.5505C61.5666 24.9794 61.7229 25.4863 61.7229 26.0052C61.7386 26.3331 61.6886 26.6608 61.5757 26.969C61.4629 27.2772 61.2895 27.5597 61.0659 27.7999C60.8422 28.0401 60.5727 28.2331 60.2733 28.3676C59.9739 28.5021 59.6506 28.5753 59.3225 28.5829ZM48.2437 23.0571V24.8614H52.5614C52.4991 25.7078 52.1528 26.5082 51.5786 27.133C51.1459 27.5741 50.6256 27.9195 50.0512 28.147C49.4768 28.3746 48.861 28.4792 48.2437 28.454C46.9817 28.437 45.7771 27.9236 44.8907 27.0251C44.0043 26.1267 43.5074 24.9153 43.5074 23.6531C43.5074 22.391 44.0043 21.1796 44.8907 20.2811C45.7771 19.3827 46.9817 18.8693 48.2437 18.8522C49.4559 18.8364 50.6254 19.2995 51.4981 20.141L52.7708 18.8683C52.1754 18.2789 51.4682 17.8142 50.6908 17.5016C49.9135 17.189 49.0815 17.0347 48.2437 17.0478C47.3682 17.0351 46.4989 17.1965 45.6863 17.5228C44.8737 17.849 44.1341 18.3335 43.5105 18.9481C42.8869 19.5627 42.3916 20.2952 42.0536 21.1029C41.7156 21.9107 41.5415 22.7775 41.5415 23.6531C41.5415 24.5288 41.7156 25.3956 42.0536 26.2033C42.3916 27.0111 42.8869 27.7435 43.5105 28.3582C44.1341 28.9728 44.8737 29.4573 45.6863 29.7835C46.4989 30.1098 47.3682 30.2712 48.2437 30.2584C49.0992 30.2939 49.9524 30.1471 50.7468 29.8277C51.5411 29.5082 52.2585 29.0236 52.8513 28.4057C53.9037 27.257 54.4647 25.742 54.4141 24.1848C54.4182 23.8067 54.3858 23.4291 54.3173 23.0571H48.2437ZM93.552 24.4586C93.2964 23.6883 92.8098 23.0153 92.1584 22.531C91.507 22.0468 90.7223 21.7749 89.911 21.7521C89.3645 21.7555 88.8244 21.8697 88.3233 22.0877C87.8223 22.3058 87.3706 22.6232 86.9956 23.0207C86.6207 23.4183 86.3302 23.8877 86.1418 24.4007C85.9535 24.9137 85.871 25.4595 85.8996 26.0052C85.8873 26.5644 85.9878 27.1204 86.1952 27.6398C86.4025 28.1593 86.7124 28.6316 87.1064 29.0286C87.5004 29.4256 87.9704 29.7391 88.4882 29.9504C89.0061 30.1617 89.5612 30.2665 90.1205 30.2584C90.8211 30.2623 91.5118 30.0921 92.1304 29.7631C92.749 29.4341 93.2762 28.9567 93.6647 28.3735L92.2148 27.4069C91.9976 27.7677 91.6903 28.0658 91.3232 28.2719C90.956 28.4781 90.5416 28.5853 90.1205 28.5829C89.6872 28.5995 89.2589 28.4855 88.8912 28.2557C88.5235 28.0259 88.2333 27.6909 88.0583 27.2941L93.7454 24.942L93.552 24.4586ZM87.7523 25.8764C87.7323 25.5669 87.7742 25.2564 87.8756 24.9633C87.977 24.6701 88.1358 24.4001 88.3428 24.1691C88.5499 23.9381 88.8009 23.7507 89.0812 23.6178C89.3615 23.485 89.6655 23.4094 89.9754 23.3954C90.2981 23.3742 90.6199 23.4484 90.9007 23.6089C91.1814 23.7693 91.4088 24.0089 91.5543 24.2976L87.7523 25.8764ZM83.1285 30.0006H84.9973V17.499H83.1285V30.0006ZM80.0675 22.7026H80.0031C79.719 22.394 79.3722 22.1495 78.986 21.9856C78.5999 21.8217 78.1831 21.7421 77.7637 21.7521C76.667 21.7988 75.6307 22.2673 74.8712 23.0598C74.1117 23.8523 73.6877 24.9076 73.6877 26.0053C73.6877 27.103 74.1117 28.1582 74.8712 28.9508C75.6307 29.7433 76.667 30.2118 77.7637 30.2584C78.1848 30.2697 78.6032 30.189 78.99 30.0221C79.3767 29.8551 79.7224 29.6059 80.0031 29.2918H80.0675V29.904C80.0675 31.5312 79.1976 32.4011 77.7959 32.4011C77.3288 32.39 76.8755 32.24 76.494 31.9703C76.1124 31.7006 75.8197 31.3234 75.6533 30.8867L74.0261 31.5634C74.3328 32.3101 74.8554 32.9482 75.5271 33.396C76.1987 33.8437 76.9887 34.0807 77.7959 34.0766C79.987 34.0766 81.8397 32.7878 81.8397 29.6462V22.0098H80.0675V22.7026ZM77.9249 28.5829C77.279 28.5282 76.6771 28.2329 76.2385 27.7555C75.8 27.2782 75.5566 26.6535 75.5566 26.0053C75.5566 25.357 75.8 24.7324 76.2385 24.2551C76.6771 23.7777 77.279 23.4824 77.9249 23.4276C78.2463 23.4433 78.5612 23.5236 78.8509 23.6636C79.1405 23.8035 79.3991 24.0004 79.611 24.2425C79.823 24.4845 79.9841 24.7668 80.0847 25.0724C80.1852 25.378 80.2232 25.7007 80.1964 26.0213C80.2215 26.34 80.1821 26.6604 80.0806 26.9635C79.979 27.2665 79.8174 27.546 79.6053 27.7851C79.3932 28.0242 79.1351 28.2182 78.8464 28.3552C78.5577 28.4923 78.2442 28.5698 77.9249 28.5829V28.5829ZM102.306 17.4992H97.8347V30.0006H99.7004V25.2642H102.306C102.834 25.2932 103.362 25.2142 103.858 25.0322C104.354 24.8501 104.808 24.5688 105.192 24.2055C105.576 23.8421 105.881 23.4043 106.09 22.9188C106.299 22.4333 106.407 21.9103 106.407 21.3817C106.407 20.8532 106.299 20.3302 106.09 19.8447C105.881 19.3592 105.576 18.9214 105.192 18.558C104.808 18.1947 104.354 17.9134 103.858 17.7313C103.362 17.5493 102.834 17.4703 102.306 17.4992V17.4992ZM102.354 23.5244H99.7004V19.2391H102.354C102.639 19.2332 102.923 19.2843 103.188 19.3893C103.453 19.4943 103.694 19.6512 103.898 19.8508C104.102 20.0503 104.264 20.2885 104.374 20.5514C104.485 20.8143 104.542 21.0966 104.542 21.3818C104.542 21.667 104.485 21.9493 104.374 22.2122C104.264 22.4751 104.102 22.7133 103.898 22.9128C103.694 23.1124 103.453 23.2693 103.188 23.3743C102.923 23.4793 102.639 23.5304 102.354 23.5244V23.5244ZM113.886 21.7291C113.205 21.6894 112.527 21.8493 111.936 22.1893C111.344 22.5293 110.865 23.0345 110.557 23.643L112.213 24.3346C112.377 24.0326 112.626 23.785 112.929 23.6222C113.232 23.4594 113.575 23.3884 113.918 23.4178C114.391 23.3716 114.864 23.515 115.231 23.8165C115.599 24.1179 115.832 24.553 115.88 25.0261V25.1548C115.281 24.8365 114.612 24.6708 113.934 24.6723C112.149 24.6723 110.331 25.6534 110.331 27.4869C110.349 27.8734 110.444 28.2523 110.61 28.6014C110.777 28.9505 111.012 29.2625 111.301 29.5191C111.591 29.7756 111.929 29.9713 112.295 30.0947C112.662 30.218 113.05 30.2665 113.435 30.2371C113.905 30.2648 114.374 30.166 114.792 29.951C115.211 29.7361 115.565 29.4128 115.816 29.0148H115.88V29.9798H117.681V25.187C117.681 22.9675 116.025 21.7291 113.886 21.7291V21.7291ZM113.661 28.5805C113.049 28.5805 112.197 28.275 112.197 27.519C112.197 26.5541 113.259 26.1841 114.175 26.1841C114.771 26.1683 115.36 26.3127 115.88 26.6023C115.812 27.1446 115.549 27.6437 115.141 28.0073C114.733 28.371 114.207 28.5746 113.661 28.5805ZM124.243 22.0025L122.104 27.4225H122.04L119.82 22.0025H117.81L121.139 29.5777L119.242 33.7915H121.188L126.318 22.0025H124.243ZM107.436 30.0006H109.302V17.4992H107.436V30.0006Z" fill="white"/>
<path d="M10.9354 7.53854C10.6075 7.93061 10.4419 8.43324 10.4726 8.94344V31.0595C10.4418 31.5698 10.6074 32.0724 10.9354 32.4644L11.0094 32.5365L23.3984 20.1476V19.8553L11.0094 7.46594L10.9354 7.53854Z" fill="url(#paint0_linear_1047_4785)"/>
<path d="M27.5278 24.279L23.3984 20.1476V19.8553L27.5288 15.7249L27.6219 15.778L32.5147 18.5581C33.9123 19.3521 33.9123 20.6513 32.5147 21.4458L27.6219 24.2259L27.5278 24.279Z" fill="url(#paint1_linear_1047_4785)"/>
<path d="M27.6219 24.2254L23.3984 20.0015L10.9354 32.4644C11.2202 32.7156 11.5838 32.8592 11.9634 32.8704C12.3429 32.8817 12.7144 32.7597 13.0135 32.5258L27.6219 24.2254" fill="url(#paint2_linear_1047_4785)"/>
<path d="M27.6219 15.7775L13.0135 7.47715C12.7144 7.24324 12.3429 7.12133 11.9634 7.13255C11.5838 7.14376 11.2202 7.28739 10.9354 7.53855L23.3984 20.0015L27.6219 15.7775Z" fill="url(#paint3_linear_1047_4785)"/>
<path opacity="0.2" d="M27.5288 24.1324L13.0135 32.3797C12.7259 32.5987 12.3749 32.7181 12.0135 32.7201C11.6521 32.722 11.2998 32.6063 11.0099 32.3904V32.3904L10.9354 32.4649L11.0094 32.537L11.0099 32.5365C11.2998 32.7525 11.652 32.8683 12.0135 32.8663C12.3749 32.8644 12.726 32.7449 13.0135 32.5258L27.6219 24.2254L27.5288 24.1324Z" fill="black"/>
<path opacity="0.12" d="M10.9354 32.3188C10.6075 31.9268 10.442 31.4241 10.4726 30.9139V31.06C10.4419 31.5702 10.6075 32.0729 10.9354 32.4649L11.0099 32.3904L10.9354 32.3188Z" fill="black"/>
<path opacity="0.12" d="M32.5147 21.2993L27.5288 24.1325L27.6219 24.2255L32.5147 21.4454C32.8025 21.3204 33.0516 21.1207 33.236 20.8668C33.4203 20.6129 33.5333 20.3143 33.563 20.002V20.002C33.5011 20.2848 33.3742 20.5493 33.1922 20.7745C33.0102 20.9997 32.7783 21.1794 32.5147 21.2993V21.2993Z" fill="black"/>
<path opacity="0.25" d="M13.0135 7.62374L32.5147 18.7037C32.7784 18.8236 33.0104 19.0033 33.1924 19.2286C33.3744 19.4539 33.5013 19.7186 33.563 20.0015V20.0015C33.5335 19.6891 33.4206 19.3903 33.2362 19.1363C33.0518 18.8823 32.8027 18.6825 32.5147 18.5576L13.0135 7.47764C11.6159 6.68354 10.4726 7.34314 10.4726 8.94394V9.09004C10.4726 7.48934 11.6159 6.82974 13.0135 7.62374Z" fill="white"/>
</g>
<defs>
<linearGradient id="paint0_linear_1047_4785" x1="22.2997" y1="8.71025" x2="5.51733" y2="25.4927" gradientUnits="userSpaceOnUse">
<stop stop-color="#00A0FF"/>
<stop offset="0.00657" stop-color="#00A1FF"/>
<stop offset="0.2601" stop-color="#00BEFF"/>
<stop offset="0.5122" stop-color="#00D2FF"/>
<stop offset="0.7604" stop-color="#00DFFF"/>
<stop offset="1" stop-color="#00E3FF"/>
</linearGradient>
<linearGradient id="paint1_linear_1047_4785" x1="34.3344" y1="20.002" x2="10.1375" y2="20.002" gradientUnits="userSpaceOnUse">
<stop stop-color="#FFE000"/>
<stop offset="0.4087" stop-color="#FFBD00"/>
<stop offset="0.7754" stop-color="#FFA500"/>
<stop offset="1" stop-color="#FF9C00"/>
</linearGradient>
<linearGradient id="paint2_linear_1047_4785" x1="25.3269" y1="22.2966" x2="2.56866" y2="45.0549" gradientUnits="userSpaceOnUse">
<stop stop-color="#FF3A44"/>
<stop offset="1" stop-color="#C31162"/>
</linearGradient>
<linearGradient id="paint3_linear_1047_4785" x1="7.79732" y1="0.176725" x2="17.9598" y2="10.3392" gradientUnits="userSpaceOnUse">
<stop stop-color="#32A071"/>
<stop offset="0.0685" stop-color="#2DA771"/>
<stop offset="0.4762" stop-color="#15CF74"/>
<stop offset="0.8009" stop-color="#06E775"/>
<stop offset="1" stop-color="#00F076"/>
</linearGradient>
<clipPath id="clip0_1047_4785">
<rect width="136" height="40" fill="white" transform="translate(0.5 6.10352e-05)"/>
</clipPath>
</defs>
</svg>
