<svg width="121" height="40" viewBox="0 0 121 40" fill="none" xmlns="http://www.w3.org/2000/svg">
<path d="M110.971 -7.3291e-06H10.3706C10.0039 -7.3291e-06 9.64162 -7.32904e-06 9.27589 0.00199267C8.96974 0.00399267 8.66603 0.00980267 8.35694 0.0146927C7.68545 0.0225945 7.01554 0.0816689 6.35304 0.191403C5.69146 0.303525 5.05061 0.514908 4.45216 0.818403C3.85444 1.12446 3.30828 1.52216 2.83351 1.99706C2.35624 2.47063 1.9584 3.01801 1.65529 3.61815C1.35134 4.2171 1.14058 4.85893 1.03029 5.52147C0.918948 6.18318 0.859036 6.85251 0.851088 7.52347C0.841808 7.83007 0.840827 8.13769 0.835938 8.44433V31.5586C0.840827 31.8691 0.841808 32.1699 0.851088 32.4805C0.859038 33.1514 0.918951 33.8207 1.03029 34.4824C1.14027 35.1453 1.35105 35.7875 1.65529 36.3867C1.95826 36.9849 2.35616 37.5301 2.83351 38.001C3.30648 38.478 3.85299 38.876 4.45216 39.1797C5.05061 39.484 5.69139 39.6966 6.35304 39.8105C7.01566 39.9193 7.68549 39.9784 8.35694 39.9873C8.66603 39.9941 8.96974 39.998 9.27589 39.998C9.64161 40 10.0039 40 10.3706 40H110.971C111.33 40 111.695 40 112.055 39.998C112.359 39.998 112.672 39.9941 112.977 39.9873C113.647 39.9789 114.315 39.9198 114.977 39.8105C115.64 39.6958 116.283 39.4833 116.885 39.1797C117.483 38.8758 118.029 38.4778 118.502 38.001C118.978 37.5282 119.377 36.9834 119.684 36.3867C119.986 35.7871 120.194 35.1449 120.303 34.4824C120.414 33.8206 120.476 33.1515 120.488 32.4805C120.492 32.1699 120.492 31.8691 120.492 31.5586C120.5 31.1953 120.5 30.834 120.5 30.4648V9.53612C120.5 9.16991 120.5 8.80663 120.492 8.44433C120.492 8.13769 120.492 7.83007 120.488 7.52343C120.476 6.85242 120.414 6.18323 120.303 5.52143C120.194 4.85927 119.985 4.2175 119.684 3.61811C119.066 2.41519 118.088 1.43602 116.885 0.818313C116.283 0.51556 115.64 0.304233 114.977 0.191313C114.315 0.0810955 113.647 0.0220004 112.977 0.0145527C112.672 0.00967267 112.359 0.00381267 112.055 0.00186267C111.695 -0.000137329 111.33 -0.000137329 110.971 -0.000137329V-7.3291e-06Z" fill="#A6A6A6"/>
<path d="M9.28077 39.125C8.97609 39.125 8.67877 39.1211 8.37648 39.1143C7.75027 39.1061 7.12551 39.0516 6.50734 38.9512C5.93093 38.8519 5.37255 38.6673 4.8506 38.4033C4.33345 38.1415 3.86176 37.7983 3.4536 37.3867C3.03954 36.98 2.69482 36.5082 2.43309 35.9902C2.16848 35.4688 1.98536 34.9099 1.89009 34.333C1.78722 33.7131 1.73156 33.0863 1.72359 32.458C1.71725 32.2471 1.70895 31.5449 1.70895 31.5449V8.44434C1.70895 8.44434 1.71779 7.75293 1.72364 7.5498C1.73127 6.92248 1.78661 6.29665 1.88917 5.67773C1.98461 5.09925 2.16788 4.53875 2.43263 4.01563C2.6934 3.49794 3.03621 3.02586 3.44777 2.61768C3.85888 2.20562 4.33208 1.8606 4.85011 1.59521C5.37086 1.33209 5.92819 1.14873 6.50343 1.05127C7.12363 0.949836 7.75055 0.894996 8.37894 0.88721L9.28126 0.875H112.05L112.963 0.8877C113.586 0.895099 114.207 0.94945 114.821 1.05029C115.402 1.14898 115.966 1.33362 116.492 1.59814C117.53 2.13299 118.374 2.97916 118.907 4.01807C119.168 4.53758 119.348 5.09351 119.442 5.66699C119.546 6.29099 119.604 6.92174 119.616 7.5542C119.619 7.8374 119.619 8.1416 119.619 8.44434C119.627 8.81934 119.627 9.17627 119.627 9.53613V30.4648C119.627 30.8281 119.627 31.1826 119.619 31.54C119.619 31.8652 119.619 32.1631 119.615 32.4697C119.604 33.0909 119.546 33.7104 119.444 34.3232C119.351 34.9043 119.169 35.4675 118.904 35.9932C118.641 36.5056 118.298 36.9733 117.889 37.3789C117.48 37.7927 117.008 38.1379 116.489 38.4014C115.964 38.6674 115.402 38.8527 114.821 38.9512C114.203 39.0522 113.578 39.1067 112.952 39.1143C112.659 39.1211 112.353 39.125 112.055 39.125L110.971 39.127L9.28077 39.125Z" fill="black"/>
<path d="M25.6048 20.3007C25.6156 19.466 25.8373 18.6476 26.2493 17.9217C26.6613 17.1957 27.2503 16.5858 27.9614 16.1486C27.5096 15.5035 26.9137 14.9725 26.2209 14.598C25.528 14.2234 24.7574 14.0156 23.9702 13.9909C22.291 13.8147 20.663 14.9958 19.8073 14.9958C18.935 14.9958 17.6175 14.0084 16.1988 14.0376C15.2811 14.0673 14.3868 14.3341 13.6029 14.8122C12.819 15.2902 12.1724 15.9632 11.7259 16.7655C9.79189 20.1139 11.2345 25.035 13.0871 27.7416C14.014 29.0669 15.0973 30.5474 16.5147 30.4949C17.9018 30.4374 18.4198 29.6104 20.0941 29.6104C21.7529 29.6104 22.2389 30.4949 23.6851 30.4615C25.1735 30.4373 26.1112 29.1303 27.0056 27.7924C27.6716 26.848 28.1841 25.8043 28.524 24.6999C27.6593 24.3341 26.9214 23.7219 26.4023 22.9396C25.8832 22.1574 25.6058 21.2395 25.6048 20.3007V20.3007Z" fill="white"/>
<path d="M22.8732 12.2109C23.6847 11.2367 24.0845 9.98451 23.9877 8.72028C22.7479 8.8505 21.6026 9.44306 20.7801 10.3799C20.378 10.8376 20.07 11.37 19.8737 11.9468C19.6775 12.5235 19.5968 13.1333 19.6364 13.7413C20.2565 13.7477 20.87 13.6132 21.4307 13.3482C21.9914 13.0831 22.4846 12.6942 22.8732 12.2109Z" fill="white"/>
<path d="M43.1382 27.1397H38.4048L37.2681 30.4961H35.2632L39.7466 18.0781H41.8296L46.313 30.4961H44.2739L43.1382 27.1397ZM38.895 25.5908H42.647L40.7974 20.1436H40.7456L38.895 25.5908Z" fill="white"/>
<path d="M55.9956 25.9697C55.9956 28.7832 54.4897 30.5908 52.2173 30.5908C51.6416 30.6209 51.0691 30.4883 50.5653 30.2082C50.0615 29.9281 49.6468 29.5117 49.3687 29.0068H49.3257V33.4912H47.4673V21.4424H49.2661V22.9483H49.3003C49.5912 22.4458 50.013 22.0316 50.5206 21.7498C51.0282 21.4679 51.6028 21.3289 52.1831 21.3477C54.4809 21.3477 55.9956 23.1641 55.9956 25.9697ZM54.0854 25.9697C54.0854 24.1367 53.1382 22.9317 51.6929 22.9317C50.2729 22.9317 49.3179 24.1621 49.3179 25.9697C49.3179 27.794 50.2729 29.0156 51.6929 29.0156C53.1382 29.0156 54.0854 27.8194 54.0854 25.9697Z" fill="white"/>
<path d="M65.9604 25.9697C65.9604 28.7832 64.4546 30.5908 62.1821 30.5908C61.6065 30.6209 61.034 30.4883 60.5302 30.2082C60.0264 29.9281 59.6117 29.5117 59.3335 29.0068H59.2905V33.4912H57.4321V21.4424H59.2309V22.9482H59.2651C59.5561 22.4458 59.9778 22.0316 60.4854 21.7497C60.993 21.4679 61.5676 21.3289 62.1479 21.3477C64.4458 21.3477 65.9604 23.1641 65.9604 25.9697ZM64.0503 25.9697C64.0503 24.1367 63.103 22.9316 61.6577 22.9316C60.2378 22.9316 59.2827 24.1621 59.2827 25.9697C59.2827 27.794 60.2378 29.0156 61.6577 29.0156C63.103 29.0156 64.0503 27.8193 64.0503 25.9697H64.0503Z" fill="white"/>
<path d="M72.5464 27.0361C72.6841 28.2676 73.8804 29.0761 75.5151 29.0761C77.0815 29.0761 78.2085 28.2675 78.2085 27.1572C78.2085 26.1933 77.5288 25.6162 75.9194 25.2207L74.3101 24.833C72.0298 24.2822 70.9712 23.2158 70.9712 21.4853C70.9712 19.3427 72.8384 17.871 75.4897 17.871C78.1137 17.871 79.9126 19.3427 79.9731 21.4853H78.0971C77.9848 20.246 76.9604 19.498 75.4634 19.498C73.9663 19.498 72.9419 20.2548 72.9419 21.3564C72.9419 22.2343 73.5962 22.7509 75.1968 23.1464L76.5649 23.4823C79.1128 24.0849 80.1714 25.1083 80.1714 26.9247C80.1714 29.248 78.3208 30.703 75.3774 30.703C72.6235 30.703 70.7641 29.2821 70.644 27.036L72.5464 27.0361Z" fill="white"/>
<path d="M84.1821 19.2998V21.4424H85.9038V22.9141H84.1821V27.9053C84.1821 28.6807 84.5269 29.042 85.2837 29.042C85.4881 29.0384 85.6921 29.0241 85.895 28.999V30.4619C85.5547 30.5255 85.2089 30.5543 84.8628 30.5478C83.0298 30.5478 82.3149 29.8593 82.3149 28.1035V22.9141H80.9985V21.4424H82.3149V19.2998H84.1821Z" fill="white"/>
<path d="M86.9009 25.9697C86.9009 23.1211 88.5786 21.3311 91.1949 21.3311C93.8199 21.3311 95.4898 23.1211 95.4898 25.9697C95.4898 28.8262 93.8286 30.6084 91.1949 30.6084C88.562 30.6084 86.9009 28.8262 86.9009 25.9697ZM93.5962 25.9697C93.5962 24.0156 92.7007 22.8623 91.1948 22.8623C89.689 22.8623 88.7945 24.0244 88.7945 25.9697C88.7945 27.9316 89.689 29.0762 91.1948 29.0762C92.7007 29.0762 93.5962 27.9316 93.5962 25.9697H93.5962Z" fill="white"/>
<path d="M97.022 21.4424H98.7944V22.9834H98.8374C98.9574 22.5021 99.2393 22.0768 99.6359 21.7789C100.032 21.481 100.52 21.3287 101.015 21.3476C101.229 21.3469 101.443 21.3702 101.652 21.417V23.1553C101.382 23.0726 101.099 23.0347 100.817 23.043C100.547 23.032 100.278 23.0796 100.028 23.1825C99.7781 23.2854 99.5535 23.4411 99.3695 23.639C99.1855 23.8369 99.0465 24.0723 98.9621 24.3289C98.8777 24.5856 98.8498 24.8575 98.8804 25.126V30.4961H97.022L97.022 21.4424Z" fill="white"/>
<path d="M110.22 27.8369C109.97 29.4805 108.37 30.6084 106.322 30.6084C103.688 30.6084 102.053 28.8437 102.053 26.0127C102.053 23.1729 103.697 21.3311 106.244 21.3311C108.749 21.3311 110.324 23.0518 110.324 25.7969V26.4336H103.929V26.5459C103.9 26.8791 103.941 27.2148 104.052 27.5306C104.162 27.8464 104.338 28.1352 104.568 28.3778C104.799 28.6203 105.078 28.8111 105.388 28.9374C105.697 29.0637 106.03 29.1226 106.365 29.1103C106.804 29.1515 107.245 29.0498 107.621 28.8203C107.998 28.5909 108.291 28.246 108.456 27.8369L110.22 27.8369ZM103.938 25.1348H108.464C108.481 24.8352 108.436 24.5354 108.331 24.2541C108.226 23.9729 108.065 23.7164 107.856 23.5006C107.648 23.2849 107.397 23.1145 107.119 23.0003C106.842 22.8861 106.544 22.8305 106.244 22.8369C105.941 22.8351 105.641 22.8933 105.361 23.008C105.081 23.1227 104.826 23.2918 104.612 23.5054C104.398 23.7191 104.228 23.973 104.112 24.2527C103.996 24.5323 103.937 24.8321 103.938 25.1348V25.1348Z" fill="white"/>
<path d="M38.6621 8.731C39.0518 8.70304 39.4427 8.7619 39.8068 8.90333C40.1709 9.04477 40.4991 9.26525 40.7677 9.54887C41.0363 9.8325 41.2386 10.1722 41.36 10.5435C41.4814 10.9147 41.5189 11.3083 41.4698 11.6958C41.4698 13.6021 40.4395 14.6978 38.6621 14.6978H36.5069V8.731H38.6621ZM37.4336 13.854H38.5586C38.837 13.8706 39.1156 13.825 39.3742 13.7204C39.6327 13.6158 39.8647 13.4548 40.0532 13.2492C40.2417 13.0437 40.3819 12.7987 40.4638 12.5321C40.5457 12.2654 40.567 11.9839 40.5264 11.708C40.5641 11.4332 40.5405 11.1534 40.4574 10.8887C40.3743 10.6241 40.2337 10.3811 40.0456 10.1771C39.8576 9.9732 39.6267 9.81339 39.3696 9.70916C39.1125 9.60492 38.8356 9.55884 38.5586 9.57421H37.4336V13.854Z" fill="white"/>
<path d="M42.5166 12.4443C42.4883 12.1484 42.5222 11.8498 42.616 11.5678C42.7099 11.2857 42.8616 11.0264 43.0616 10.8064C43.2615 10.5864 43.5052 10.4106 43.7771 10.2904C44.0489 10.1701 44.3429 10.108 44.6402 10.108C44.9374 10.108 45.2314 10.1701 45.5033 10.2904C45.7751 10.4106 46.0188 10.5864 46.2188 10.8064C46.4187 11.0264 46.5705 11.2857 46.6643 11.5678C46.7582 11.8498 46.792 12.1484 46.7637 12.4443C46.7926 12.7406 46.7591 13.0395 46.6655 13.3221C46.5719 13.6046 46.4203 13.8644 46.2203 14.0848C46.0203 14.3052 45.7764 14.4814 45.5043 14.6019C45.2321 14.7224 44.9378 14.7847 44.6402 14.7847C44.3425 14.7847 44.0482 14.7224 43.7761 14.6019C43.504 14.4814 43.2601 14.3052 43.0601 14.0848C42.8601 13.8644 42.7084 13.6046 42.6148 13.3221C42.5212 13.0395 42.4878 12.7406 42.5166 12.4443V12.4443ZM45.8496 12.4443C45.8496 11.4683 45.4112 10.8975 44.6416 10.8975C43.8692 10.8975 43.4346 11.4683 43.4346 12.4443C43.4346 13.4282 43.8692 13.9946 44.6416 13.9946C45.4112 13.9946 45.8496 13.4243 45.8496 12.4443H45.8496Z" fill="white"/>
<path d="M52.4092 14.6978H51.4873L50.5567 11.3813H50.4864L49.5596 14.6978H48.6465L47.4053 10.1948H48.3067L49.1133 13.6308H49.1797L50.1055 10.1948H50.958L51.8838 13.6308H51.9541L52.7569 10.1948H53.6455L52.4092 14.6978Z" fill="white"/>
<path d="M54.6895 10.1948H55.545V10.9102H55.6114C55.724 10.6532 55.914 10.4379 56.1549 10.2941C56.3958 10.1502 56.6755 10.0852 56.9551 10.1079C57.1742 10.0914 57.3942 10.1245 57.5988 10.2046C57.8034 10.2847 57.9874 10.4098 58.137 10.5706C58.2867 10.7314 58.3983 10.9239 58.4635 11.1337C58.5287 11.3435 58.5459 11.5654 58.5137 11.7827V14.6977H57.625V12.0059C57.625 11.2822 57.3106 10.9224 56.6534 10.9224C56.5046 10.9154 56.3561 10.9408 56.218 10.9966C56.08 11.0524 55.9556 11.1374 55.8535 11.2458C55.7514 11.3542 55.6739 11.4834 55.6264 11.6245C55.5788 11.7657 55.5624 11.9154 55.5782 12.0635V14.6978H54.6895L54.6895 10.1948Z" fill="white"/>
<path d="M59.9297 8.437H60.8184V14.6977H59.9297V8.437Z" fill="white"/>
<path d="M62.0537 12.4443C62.0254 12.1484 62.0593 11.8498 62.1532 11.5677C62.247 11.2857 62.3988 11.0263 62.5988 10.8063C62.7987 10.5863 63.0425 10.4106 63.3143 10.2903C63.5862 10.17 63.8802 10.1079 64.1775 10.1079C64.4748 10.1079 64.7688 10.17 65.0407 10.2903C65.3125 10.4106 65.5563 10.5863 65.7562 10.8063C65.9562 11.0263 66.108 11.2857 66.2018 11.5677C66.2957 11.8498 66.3296 12.1484 66.3013 12.4443C66.3301 12.7406 66.2966 13.0396 66.203 13.3221C66.1094 13.6046 65.9577 13.8644 65.7577 14.0848C65.5577 14.3052 65.3137 14.4814 65.0416 14.6019C64.7695 14.7224 64.4751 14.7847 64.1775 14.7847C63.8799 14.7847 63.5855 14.7224 63.3134 14.6019C63.0413 14.4814 62.7974 14.3052 62.5973 14.0848C62.3973 13.8644 62.2456 13.6046 62.152 13.3221C62.0584 13.0396 62.0249 12.7406 62.0537 12.4443V12.4443ZM65.3867 12.4443C65.3867 11.4683 64.9482 10.8975 64.1787 10.8975C63.4063 10.8975 62.9717 11.4683 62.9717 12.4444C62.9717 13.4282 63.4063 13.9946 64.1787 13.9946C64.9483 13.9946 65.3867 13.4243 65.3867 12.4443H65.3867Z" fill="white"/>
<path d="M67.2368 13.4243C67.2368 12.6138 67.8404 12.1465 68.9116 12.0801L70.1314 12.0098V11.6211C70.1314 11.1455 69.8169 10.877 69.2095 10.877C68.7134 10.877 68.3697 11.0591 68.271 11.3774H67.4107C67.5015 10.604 68.229 10.1079 69.2505 10.1079C70.3794 10.1079 71.0161 10.6699 71.0161 11.6211V14.6978H70.1607V14.0649H70.0904C69.9476 14.2919 69.7472 14.477 69.5096 14.6012C69.272 14.7254 69.0057 14.7843 68.7378 14.7719C68.5488 14.7916 68.3577 14.7714 68.177 14.7127C67.9962 14.654 67.8298 14.5581 67.6883 14.4311C67.5469 14.3042 67.4337 14.149 67.3559 13.9756C67.2782 13.8021 67.2376 13.6144 67.2368 13.4243V13.4243ZM70.1314 13.0395V12.6631L69.0318 12.7334C68.4116 12.7749 68.1304 12.9858 68.1304 13.3828C68.1304 13.7881 68.482 14.0239 68.9654 14.0239C69.107 14.0382 69.2501 14.0239 69.3861 13.9819C69.5221 13.9398 69.6483 13.8707 69.7571 13.7789C69.8658 13.6871 69.9551 13.5743 70.0194 13.4473C70.0837 13.3202 70.1218 13.1816 70.1314 13.0395V13.0395Z" fill="white"/>
<path d="M72.1841 12.4443C72.1841 11.0215 72.9156 10.1201 74.0533 10.1201C74.3347 10.1071 74.614 10.1746 74.8585 10.3144C75.103 10.4543 75.3027 10.6609 75.4341 10.9101H75.5005V8.437H76.3892V14.6977H75.5376V13.9863H75.4673C75.3257 14.2338 75.1191 14.4378 74.8699 14.5763C74.6206 14.7148 74.3382 14.7824 74.0533 14.7719C72.9078 14.772 72.1841 13.8706 72.1841 12.4443ZM73.1021 12.4443C73.1021 13.3994 73.5523 13.9741 74.3052 13.9741C75.0542 13.9741 75.5172 13.3911 75.5172 12.4482C75.5172 11.5098 75.0494 10.9185 74.3052 10.9185C73.5572 10.9185 73.1021 11.4971 73.1021 12.4443H73.1021Z" fill="white"/>
<path d="M80.066 12.4443C80.0376 12.1484 80.0715 11.8498 80.1653 11.5678C80.2592 11.2857 80.4109 11.0264 80.6109 10.8064C80.8108 10.5864 81.0545 10.4106 81.3264 10.2904C81.5982 10.1701 81.8922 10.108 82.1895 10.108C82.4868 10.108 82.7807 10.1701 83.0526 10.2904C83.3244 10.4106 83.5682 10.5864 83.7681 10.8064C83.968 11.0264 84.1198 11.2857 84.2136 11.5678C84.3075 11.8498 84.3413 12.1484 84.313 12.4443C84.3419 12.7406 84.3084 13.0395 84.2148 13.3221C84.1212 13.6046 83.9696 13.8644 83.7696 14.0848C83.5696 14.3052 83.3257 14.4814 83.0536 14.6019C82.7814 14.7224 82.4871 14.7847 82.1895 14.7847C81.8919 14.7847 81.5975 14.7224 81.3254 14.6019C81.0533 14.4814 80.8094 14.3052 80.6094 14.0848C80.4094 13.8644 80.2577 13.6046 80.1641 13.3221C80.0706 13.0395 80.0371 12.7406 80.066 12.4443V12.4443ZM83.399 12.4443C83.399 11.4683 82.9605 10.8975 82.191 10.8975C81.4185 10.8975 80.984 11.4683 80.984 12.4443C80.984 13.4282 81.4185 13.9946 82.191 13.9946C82.9605 13.9946 83.399 13.4243 83.399 12.4443Z" fill="white"/>
<path d="M85.5054 10.1948H86.3609V10.9102H86.4273C86.5399 10.6532 86.7299 10.4379 86.9708 10.2941C87.2117 10.1502 87.4914 10.0852 87.771 10.1079C87.9901 10.0914 88.2101 10.1245 88.4147 10.2046C88.6193 10.2847 88.8033 10.4098 88.953 10.5706C89.1026 10.7314 89.2142 10.9239 89.2794 11.1337C89.3446 11.3435 89.3618 11.5654 89.3296 11.7827V14.6977H88.441V12.0059C88.441 11.2822 88.1265 10.9224 87.4693 10.9224C87.3205 10.9154 87.172 10.9408 87.034 10.9966C86.8959 11.0524 86.7716 11.1374 86.6694 11.2458C86.5673 11.3542 86.4898 11.4834 86.4423 11.6245C86.3948 11.7657 86.3783 11.9154 86.3941 12.0635V14.6978H85.5054V10.1948Z" fill="white"/>
<path d="M94.3511 9.07373V10.2153H95.3267V10.9639H94.3511V13.2793C94.3511 13.751 94.5454 13.9575 94.9878 13.9575C95.1011 13.9572 95.2142 13.9503 95.3267 13.937V14.6772C95.1671 14.7058 95.0054 14.721 94.8433 14.7226C93.855 14.7226 93.4615 14.375 93.4615 13.5068V10.9638H92.7466V10.2153H93.4615V9.07373H94.3511Z" fill="white"/>
<path d="M96.5406 8.437H97.4214V10.9184H97.4917C97.6099 10.6591 97.8051 10.4425 98.0508 10.2982C98.2965 10.1538 98.5807 10.0888 98.8647 10.1118C99.0827 10.0999 99.3006 10.1363 99.5029 10.2184C99.7051 10.3004 99.8868 10.4261 100.035 10.5864C100.183 10.7468 100.294 10.9378 100.36 11.146C100.426 11.3541 100.445 11.5742 100.416 11.7905V14.6977H99.5259V12.0097C99.5259 11.2905 99.1909 10.9262 98.5631 10.9262C98.4103 10.9137 98.2567 10.9347 98.1129 10.9878C97.9691 11.0408 97.8387 11.1247 97.7307 11.2334C97.6227 11.3421 97.5398 11.4731 97.4877 11.6173C97.4356 11.7614 97.4157 11.9152 97.4293 12.0678V14.6977H96.5406L96.5406 8.437Z" fill="white"/>
<path d="M105.597 13.4819C105.476 13.8935 105.215 14.2495 104.858 14.4876C104.501 14.7258 104.072 14.8309 103.646 14.7847C103.349 14.7925 103.055 14.7357 102.782 14.6181C102.51 14.5006 102.266 14.3252 102.068 14.1041C101.87 13.8829 101.723 13.6214 101.636 13.3375C101.549 13.0537 101.525 12.7544 101.566 12.4604C101.526 12.1656 101.551 11.8656 101.637 11.581C101.724 11.2963 101.87 11.0335 102.067 10.8104C102.264 10.5874 102.507 10.4092 102.778 10.288C103.05 10.1668 103.345 10.1054 103.642 10.1079C104.895 10.1079 105.651 10.9639 105.651 12.3779V12.688H102.471V12.7378C102.457 12.903 102.478 13.0694 102.532 13.2261C102.586 13.3829 102.673 13.5266 102.786 13.648C102.898 13.7695 103.035 13.866 103.188 13.9314C103.34 13.9968 103.505 14.0296 103.67 14.0278C103.883 14.0533 104.098 14.015 104.289 13.9178C104.48 13.8206 104.637 13.6689 104.742 13.4819L105.597 13.4819ZM102.471 12.0308H104.746C104.757 11.8796 104.736 11.7278 104.685 11.5851C104.634 11.4424 104.554 11.3119 104.45 11.2021C104.345 11.0922 104.219 11.0054 104.079 10.9472C103.939 10.889 103.789 10.8608 103.637 10.8643C103.484 10.8623 103.331 10.8912 103.189 10.9491C103.046 11.0071 102.917 11.0929 102.808 11.2016C102.7 11.3104 102.614 11.4397 102.556 11.5821C102.498 11.7245 102.469 11.8771 102.471 12.0308H102.471Z" fill="white"/>
</svg>
