<svg width="17" height="16" viewBox="0 0 17 16" fill="none" xmlns="http://www.w3.org/2000/svg" class="src-components-Icon-Icon_icon" style="width: 16px; height: 16px;"><mask id="mask0_14297_26338" style="mask-type: alpha;" maskUnits="userSpaceOnUse" x="0" y="0" width="17" height="16"><rect x="1" y="0.5" width="15" height="15" fill="#F2F2F3" stroke="#F2F2F3"></rect></mask><g mask="url(#mask0_14297_26338)"><path d="M1.16699 13.3334V3.33337H2.50033V10H7.83366V4.66671H13.167C13.9003 4.66671 14.5281 4.92782 15.0503 5.45004C15.5725 5.97226 15.8337 6.60004 15.8337 7.33337V13.3334H14.5003V11.3334H2.50033V13.3334H1.16699ZM5.16699 9.33337C4.61144 9.33337 4.13921 9.13893 3.75033 8.75004C3.36144 8.36115 3.16699 7.88893 3.16699 7.33337C3.16699 6.77782 3.36144 6.3056 3.75033 5.91671C4.13921 5.52782 4.61144 5.33337 5.16699 5.33337C5.72255 5.33337 6.19477 5.52782 6.58366 5.91671C6.97255 6.3056 7.16699 6.77782 7.16699 7.33337C7.16699 7.88893 6.97255 8.36115 6.58366 8.75004C6.19477 9.13893 5.72255 9.33337 5.16699 9.33337Z" fill="#1C1B1D"></path></g></svg>