<svg xmlns="http://www.w3.org/2000/svg" width="17" height="18" viewBox="0 0 17 18" fill="none" class="src-components-Icon-Icon_icon" style="width: 16px; height: 16px;"><g><path d="M13.4587 13.9583H5.66699C5.27741 13.9583 4.94402 13.8197 4.66683 13.5425C4.38916 13.2648 4.25033 12.9312 4.25033 12.5416V2.62492C4.25033 2.23534 4.38916 1.90171 4.66683 1.62404C4.94402 1.34685 5.27741 1.20825 5.66699 1.20825H10.6253L14.8753 5.45825V12.5416C14.8753 12.9312 14.7367 13.2648 14.4595 13.5425C14.1819 13.8197 13.8482 13.9583 13.4587 13.9583ZM9.91699 6.16658V2.62492H5.66699V12.5416H13.4587V6.16658H9.91699ZM2.83366 16.7916C2.44408 16.7916 2.11069 16.653 1.83349 16.3758C1.55583 16.0981 1.41699 15.7645 1.41699 15.3749V5.45825H2.83366V15.3749H10.6253V16.7916H2.83366Z" fill="currentColor"></path></g></svg>