<svg width="17" height="16" viewBox="0 0 17 16" fill="none" xmlns="http://www.w3.org/2000/svg" class="src-components-Icon-Icon_icon" style="width: 16px; height: 16px;"><g id="beach_access"><mask id="mask0_14297_26348" style="mask-type: alpha;" maskUnits="userSpaceOnUse" x="0" y="0" width="17" height="16"><rect id="Bounding box" x="1" y="0.5" width="15" height="15" fill="#F2F2F3" stroke="#F2F2F3"></rect></mask><g mask="url(#mask0_14297_26348)"><path id="contents" d="M13.5668 14L9.33351 9.76667L10.2668 8.83333L14.5002 13.0667L13.5668 14ZM4.46685 13.5333C3.35574 12.4444 2.70307 11.1667 2.50885 9.7C2.31418 8.23333 2.56685 6.86111 3.26685 5.58333C3.30018 5.96111 3.39463 6.386 3.55018 6.858C3.70574 7.33044 3.91974 7.82778 4.19218 8.35C4.46418 8.87222 4.78907 9.40844 5.16685 9.95867C5.54463 10.5084 5.96129 11.05 6.41685 11.5833L4.46685 13.5333ZM7.33351 10.6667C6.80018 10.1333 6.33351 9.55267 5.93351 8.92467C5.53351 8.29711 5.21974 7.68889 4.99218 7.1C4.76418 6.51111 4.6364 5.97489 4.60885 5.49133C4.58085 5.00822 4.68351 4.65 4.91685 4.41667C5.15018 4.17222 5.50863 4.06111 5.99218 4.08333C6.47529 4.10556 7.01418 4.23067 7.60885 4.45867C8.20307 4.68622 8.81418 5.00267 9.44218 5.408C10.0697 5.81378 10.6502 6.28333 11.1835 6.81667L7.33351 10.6667ZM12.1002 5.9C11.578 5.44444 11.042 5.03333 10.4922 4.66667C9.94196 4.3 9.40862 3.97778 8.89218 3.7C8.37529 3.42222 7.88085 3.20267 7.40885 3.04133C6.9364 2.88044 6.51129 2.78333 6.13351 2.75C7.41129 2.08333 8.78085 1.85267 10.2422 2.058C11.7031 2.26378 12.9668 2.9 14.0335 3.96667L12.1002 5.9Z" fill="#1C1B1D"></path></g></g></svg>