<svg xmlns="http://www.w3.org/2000/svg" width="15" height="14" viewBox="0 0 15 14" fill="none">
<path d="M7.47149 0.0449829C5.71457 0.0521422 4.02459 0.719717 2.73708 1.91517C1.44956 3.11061 0.65866 4.74652 0.521406 6.49808C0.384152 8.24963 0.91058 9.98876 1.99617 11.3702C3.08177 12.7516 4.64713 13.6742 6.38149 13.955V9.04498H4.60149V7.04498H6.38149V5.50498C6.34232 5.14466 6.38294 4.78013 6.50045 4.43726C6.61796 4.0944 6.80949 3.78159 7.06145 3.52104C7.31341 3.2605 7.61962 3.05859 7.95835 2.92966C8.29709 2.80072 8.66005 2.74792 9.02149 2.77498C9.54759 2.78229 10.0724 2.82908 10.5915 2.91498V4.63498H9.70149C9.55009 4.61262 9.39559 4.6253 9.24987 4.67204C9.10415 4.71879 8.9711 4.79836 8.86097 4.90463C8.75084 5.01089 8.66657 5.14101 8.61465 5.28497C8.56273 5.42893 8.54454 5.58289 8.56149 5.73498V7.04498H10.4715L10.1915 9.04498H8.56149V13.935C10.2724 13.63 11.8086 12.6995 12.8714 11.3246C13.9342 9.94963 14.4476 8.22849 14.3116 6.49598C14.1756 4.76348 13.4001 3.14348 12.1358 1.95114C10.8716 0.75879 9.20898 0.0793493 7.47149 0.0449829V0.0449829Z" fill="#e10a0a"/>
</svg>