<svg xmlns="http://www.w3.org/2000/svg" width="15" height="14" viewBox="0 0 15 14" fill="none">
<g clip-path="url(#clip0_1_450)">
<path d="M7.39311 4.78998C6.95601 4.78998 6.52873 4.91959 6.1653 5.16243C5.80186 5.40527 5.5186 5.75042 5.35133 6.15425C5.18406 6.55807 5.1403 7.00243 5.22557 7.43113C5.31084 7.85983 5.52133 8.25361 5.8304 8.56268C6.13947 8.87176 6.53326 9.08224 6.96196 9.16751C7.39065 9.25279 7.83501 9.20902 8.23884 9.04175C8.64266 8.87448 8.98782 8.59122 9.23065 8.22779C9.47349 7.86436 9.60311 7.43707 9.60311 6.99998C9.60311 6.70976 9.54594 6.42238 9.43488 6.15425C9.32382 5.88612 9.16103 5.64249 8.95581 5.43727C8.7506 5.23205 8.50697 5.06927 8.23884 4.9582C7.97071 4.84714 7.68333 4.78998 7.39311 4.78998Z" fill="#e10a0a"/>
<path d="M10.1231 0H4.54313C3.42738 0.00264084 2.35808 0.447041 1.56913 1.236C0.780171 2.02495 0.335771 3.09425 0.33313 4.21L0.33313 9.79C0.335771 10.9057 0.780171 11.975 1.56913 12.764C2.35808 13.553 3.42738 13.9974 4.54313 14H10.1231C11.2389 13.9974 12.3082 13.553 13.0971 12.764C13.8861 11.975 14.3305 10.9057 14.3331 9.79V4.21C14.3305 3.09425 13.8861 2.02495 13.0971 1.236C12.3082 0.447041 11.2389 0.00264084 10.1231 0V0ZM7.39313 10.45C6.71078 10.45 6.04376 10.2477 5.47641 9.86857C4.90906 9.48948 4.46687 8.95066 4.20575 8.32026C3.94462 7.68985 3.8763 6.99617 4.00942 6.32694C4.14254 5.6577 4.47112 5.04297 4.95361 4.56048C5.4361 4.07799 6.05083 3.74941 6.72007 3.61629C7.3893 3.48317 8.08298 3.55149 8.71339 3.81262C9.34379 4.07374 9.88261 4.51593 10.2617 5.08328C10.6408 5.65063 10.8431 6.31765 10.8431 7C10.8405 7.91419 10.4762 8.79017 9.82973 9.4366C9.1833 10.083 8.30732 10.4474 7.39313 10.45ZM11.0431 4.14C10.8809 4.14 10.7224 4.09191 10.5876 4.00181C10.4527 3.9117 10.3476 3.78364 10.2855 3.6338C10.2235 3.48397 10.2072 3.31909 10.2389 3.16003C10.2705 3.00096 10.3486 2.85485 10.4633 2.74017C10.578 2.62549 10.7241 2.5474 10.8832 2.51576C11.0422 2.48412 11.2071 2.50035 11.3569 2.56242C11.5068 2.62448 11.6348 2.72958 11.7249 2.86443C11.815 2.99928 11.8631 3.15782 11.8631 3.32C11.8631 3.53748 11.7767 3.74605 11.623 3.89983C11.4692 4.05361 11.2606 4.14 11.0431 4.14Z" fill="#e10a0a"/>
</g>
<defs fill="#000000">
<clipPath id="clip0_1_450" fill="#000000">
<rect width="14" height="14" fill="white" transform="translate(0.33313)"/>
</clipPath>
</defs>
</svg>