<svg xmlns="http://www.w3.org/2000/svg" width="15" height="14" viewBox="0 0 15 14" fill="none">
<g clip-path="url(#clip0_1_472)">
<path d="M12.9832 -2.34412e-05H1.68317C1.50719 -0.00134157 1.33269 0.0320148 1.1696 0.0981411C1.00652 0.164267 0.858065 0.261869 0.732705 0.385371C0.607345 0.508874 0.507539 0.65586 0.438986 0.817936C0.370433 0.980012 0.334476 1.154 0.333167 1.32998V12.65C0.331849 12.8259 0.365206 13.0005 0.431332 13.1635C0.497458 13.3266 0.595059 13.4751 0.718562 13.6004C0.842065 13.7258 0.989051 13.8256 1.15113 13.8942C1.3132 13.9627 1.48719 13.9987 1.66317 14H12.9832C13.1591 14.0013 13.3336 13.9679 13.4967 13.9018C13.6598 13.8357 13.8083 13.7381 13.9336 13.6146C14.059 13.4911 14.1588 13.3441 14.2273 13.182C14.2959 13.0199 14.3319 12.8459 14.3332 12.67V1.34998C14.3345 1.174 14.3011 0.999495 14.235 0.836414C14.1689 0.673333 14.0713 0.524874 13.9478 0.399514C13.8243 0.274154 13.6773 0.174348 13.5152 0.105795C13.3531 0.037242 13.1791 0.00128489 13.0032 -2.34412e-05H12.9832ZM4.66317 11.77H2.52317V5.32998H4.66317V11.77ZM3.59317 4.44998C3.37363 4.44998 3.15902 4.38488 2.97648 4.26291C2.79395 4.14094 2.65167 3.96758 2.56766 3.76476C2.48365 3.56193 2.46167 3.33875 2.5045 3.12343C2.54733 2.90811 2.65304 2.71032 2.80828 2.55509C2.96352 2.39985 3.1613 2.29413 3.37662 2.2513C3.59194 2.20848 3.81512 2.23046 4.01795 2.31447C4.22077 2.39848 4.39413 2.54076 4.5161 2.72329C4.63807 2.90583 4.70317 3.12044 4.70317 3.33998C4.70317 3.63437 4.58622 3.9167 4.37806 4.12487C4.16989 4.33303 3.88756 4.44998 3.59317 4.44998ZM12.3832 11.77H10.2432V8.32998C10.2432 7.45998 9.93317 6.86998 9.16317 6.86998C8.92105 6.86763 8.68436 6.94177 8.48685 7.08183C8.28933 7.22189 8.14106 7.42071 8.06317 7.64998C8.005 7.82027 7.98121 8.00042 7.99317 8.17998V11.77H5.84317V5.32998H7.99317V6.23998C8.18944 5.90572 8.47242 5.63075 8.81217 5.44415C9.15192 5.25755 9.53579 5.16628 9.92317 5.17998C11.3332 5.17998 12.3832 6.09998 12.3832 8.07998V11.77Z" fill="#e10a0a"/>
</g>
<defs fill="#000000">
<clipPath id="clip0_1_472" fill="#000000">
<rect width="14" height="14" fill="white" transform="translate(0.33316)"/>
</clipPath>
</defs>
</svg>