<svg width="17" height="16" viewBox="0 0 17 16" fill="none" xmlns="http://www.w3.org/2000/svg" class="src-components-Icon-Icon_icon" style="width: 16px; height: 16px;"><g id="car_rental"><mask id="mask0_14297_26328" style="mask-type: alpha;" maskUnits="userSpaceOnUse" x="0" y="0" width="17" height="16"><rect id="Bounding box" x="1" y="0.5" width="15" height="15" fill="#F2F2F3" stroke="#F2F2F3"></rect></mask><g mask="url(#mask0_14297_26328)"><path id="contents" d="M5.83301 4.66663C5.27745 4.66663 4.80523 4.47218 4.41634 4.08329C4.02745 3.6944 3.83301 3.22218 3.83301 2.66663C3.83301 2.11107 4.02745 1.63885 4.41634 1.24996C4.80523 0.86107 5.27745 0.666626 5.83301 0.666626C6.25523 0.666626 6.63856 0.791515 6.98301 1.04129C7.32745 1.29151 7.57745 1.61107 7.73301 1.99996H13.1663V3.33329H12.4997V4.66663H11.1663V3.33329H7.73301C7.57745 3.72218 7.32745 4.04174 6.98301 4.29196C6.63856 4.54174 6.25523 4.66663 5.83301 4.66663ZM5.83301 3.33329C6.0219 3.33329 6.18034 3.26929 6.30834 3.14129C6.4359 3.01374 6.49967 2.85552 6.49967 2.66663C6.49967 2.47774 6.4359 2.31929 6.30834 2.19129C6.18034 2.06374 6.0219 1.99996 5.83301 1.99996C5.64412 1.99996 5.48567 2.06374 5.35767 2.19129C5.23012 2.31929 5.16634 2.47774 5.16634 2.66663C5.16634 2.85552 5.23012 3.01374 5.35767 3.14129C5.48567 3.26929 5.64412 3.33329 5.83301 3.33329ZM6.49967 11.6666C6.68856 11.6666 6.84701 11.6026 6.97501 11.4746C7.10256 11.3471 7.16634 11.1888 7.16634 11C7.16634 10.8111 7.10256 10.6526 6.97501 10.5246C6.84701 10.3971 6.68856 10.3333 6.49967 10.3333C6.31079 10.3333 6.15256 10.3971 6.02501 10.5246C5.89701 10.6526 5.83301 10.8111 5.83301 11C5.83301 11.1888 5.89701 11.3471 6.02501 11.4746C6.15256 11.6026 6.31079 11.6666 6.49967 11.6666ZM10.4997 11.6666C10.6886 11.6666 10.847 11.6026 10.975 11.4746C11.1026 11.3471 11.1663 11.1888 11.1663 11C11.1663 10.8111 11.1026 10.6526 10.975 10.5246C10.847 10.3971 10.6886 10.3333 10.4997 10.3333C10.3108 10.3333 10.1526 10.3971 10.025 10.5246C9.89701 10.6526 9.83301 10.8111 9.83301 11C9.83301 11.1888 9.89701 11.3471 10.025 11.4746C10.1526 11.6026 10.3108 11.6666 10.4997 11.6666ZM3.83301 9.73329L4.93301 6.53329C4.98856 6.37774 5.08012 6.24996 5.20767 6.14996C5.33567 6.04996 5.47745 5.99996 5.63301 5.99996H11.3663C11.5219 5.99996 11.6637 6.04996 11.7917 6.14996C11.9192 6.24996 12.0108 6.37774 12.0663 6.53329L13.1663 9.73329V14.1333C13.1663 14.2888 13.1163 14.4166 13.0163 14.5166C12.9163 14.6166 12.7886 14.6666 12.633 14.6666H12.3663C12.2108 14.6666 12.083 14.6166 11.983 14.5166C11.883 14.4166 11.833 14.2888 11.833 14.1333V13.3333H5.16634V14.1333C5.16634 14.2888 5.11634 14.4166 5.01634 14.5166C4.91634 14.6166 4.78856 14.6666 4.63301 14.6666H4.36634C4.21079 14.6666 4.08301 14.6166 3.98301 14.5166C3.88301 14.4166 3.83301 14.2888 3.83301 14.1333V9.73329ZM5.59967 8.66663H11.3997L10.933 7.33329H6.06634L5.59967 8.66663Z" fill="#1C1B1D"></path></g></g></svg>