<?xml version="1.0" encoding="UTF-8"?><svg id="a" xmlns="http://www.w3.org/2000/svg" viewBox="0 0 12 16"><defs><style>.b{fill:#e10a0a;}</style></defs><path class="b" d="m11.829,5.426l-.369-.556c-.122-.184-.181-.406-.169-.628l.041-.665c.025-.412-.2-.8-.569-.984l-.603-.303c-.197-.1-.359-.259-.459-.459l-.3-.597c-.184-.369-.572-.594-.984-.569l-.665.041c-.222.012-.44-.047-.628-.169l-.556-.366c-.344-.228-.794-.228-1.137,0l-.559.366c-.184.122-.406.181-.628.169l-.665-.041c-.412-.025-.8.2-.984.569l-.3.597c-.1.2-.262.362-.462.465l-.597.3c-.369.184-.594.572-.569.984l.041.665c.012.222-.047.441-.169.628l-.366.556c-.228.344-.228.794,0,1.137l.366.559c.122.184.181.406.169.628l-.041.665c-.025.412.2.8.569.984l.603.303c.197.1.359.259.459.459l.3.597c.184.369.572.594.984.569l.665-.041c.222-.012.44.047.628.169l.559.369c.344.228.794.228,1.137,0l.556-.369c.184-.122.406-.181.628-.169l.665.041c.412.025.8-.2.984-.569l.303-.603c.1-.197.259-.359.459-.459l.597-.3c.369-.184.594-.572.569-.984l-.041-.665c-.012-.222.047-.441.169-.628l.369-.559c.228-.344.228-.794,0-1.137Zm-5.83,3.071c-1.38,0-2.499-1.119-2.499-2.499s1.119-2.499,2.499-2.499,2.499,1.119,2.499,2.499-1.119,2.499-2.499,2.499Z"/><path class="b" d="m.042,13.802l1.346-3.202c.006.003.009.006.012.012l.3.597c.366.725,1.125,1.165,1.937,1.118l.665-.041c.006,0,.016,0,.022.006l.556.369c.159.103.328.184.503.241l-1.175,2.79c-.072.172-.231.287-.416.303-.184.016-.362-.069-.462-.225l-1.006-1.54-1.753.259c-.178.025-.356-.047-.469-.187-.112-.141-.134-.334-.066-.5h.003Z"/><path class="b" d="m7.79,15.688l-1.175-2.787c.175-.056.344-.134.503-.241l.556-.369c.006-.003.012-.006.022-.006l.665.041c.812.047,1.571-.394,1.937-1.118l.3-.597c.003-.006.006-.009.012-.012l1.35,3.202c.069.166.044.356-.066.5-.109.144-.291.216-.469.187l-1.753-.259-1.006,1.537c-.1.156-.278.241-.462.225-.184-.016-.344-.134-.416-.303Z"/></svg>