<svg width="11" height="10" viewBox="0 0 11 10" fill="none" xmlns="http://www.w3.org/2000/svg" class="src-components-Icon-Icon_icon src-components-Icon-Icon_size--smallest src-features-Footer-Footer_openIcon"><path fill-rule="evenodd" clip-rule="evenodd" d="M6.83307 0.00012207H10.4331C10.654 0.00012207 10.8331 0.179208 10.8331 0.400122V4.00012C10.8331 4.22104 10.654 4.40012 10.4331 4.40012C10.2122 4.40012 10.0331 4.22104 10.0331 4.00012V1.36581L5.11592 6.28296L4.55023 5.71728L9.46739 0.800122H6.83307C6.61216 0.800122 6.43307 0.621036 6.43307 0.400122C6.43307 0.179208 6.61216 0.00012207 6.83307 0.00012207Z" fill="#E10A0A"></path><path fill-rule="evenodd" clip-rule="evenodd" d="M6.83307 0.00012207H10.4331C10.654 0.00012207 10.8331 0.179208 10.8331 0.400122V4.00012C10.8331 4.22104 10.654 4.40012 10.4331 4.40012C10.2122 4.40012 10.0331 4.22104 10.0331 4.00012V1.36581L5.11592 6.28296L4.55023 5.71728L9.46739 0.800122H6.83307C6.61216 0.800122 6.43307 0.621036 6.43307 0.400122C6.43307 0.179208 6.61216 0.00012207 6.83307 0.00012207Z" fill="#E10A0A"></path><path fill-rule="evenodd" clip-rule="evenodd" d="M6.57047 2.00012H2.43307C1.54941 2.00012 0.833069 2.71647 0.833069 3.60012V8.40012C0.833069 9.28378 1.54941 10.0001 2.43307 10.0001H7.23307C8.11672 10.0001 8.83307 9.28378 8.83307 8.40012V4.26301L8.03307 5.06301V8.40012C8.03307 8.84195 7.6749 9.20012 7.23307 9.20012H2.43307C1.99124 9.20012 1.63307 8.84195 1.63307 8.40012V3.60012C1.63307 3.15829 1.99124 2.80012 2.43307 2.80012H5.77047L6.57047 2.00012Z" fill="#E10A0A"></path></svg>