<svg width="17" height="17" viewBox="0 0 17 17" fill="none" xmlns="http://www.w3.org/2000/svg" class="src-components-Icon-Icon_icon" style="width: 16px; height: 16px;"><path d="M8.66669 15.1668C7.74447 15.1668 6.8778 14.9918 6.06669 14.6418C5.25558 14.2918 4.55002 13.8168 3.95002 13.2168C3.35002 12.6168 2.87502 11.9113 2.52502 11.1002C2.17502 10.2891 2.00002 9.42239 2.00002 8.50016C2.00002 7.57794 2.17502 6.71127 2.52502 5.90016C2.87502 5.08905 3.35002 4.3835 3.95002 3.7835C4.55002 3.1835 5.25558 2.7085 6.06669 2.3585C6.8778 2.0085 7.74447 1.8335 8.66669 1.8335C9.58891 1.8335 10.4556 2.0085 11.2667 2.3585C12.0778 2.7085 12.7834 3.1835 13.3834 3.7835C13.9834 4.3835 14.4584 5.08905 14.8084 5.90016C15.1584 6.71127 15.3334 7.57794 15.3334 8.50016C15.3334 9.42239 15.1584 10.2891 14.8084 11.1002C14.4584 11.9113 13.9834 12.6168 13.3834 13.2168C12.7834 13.8168 12.0778 14.2918 11.2667 14.6418C10.4556 14.9918 9.58891 15.1668 8.66669 15.1668ZM8.66669 13.8335C10.1556 13.8335 11.4167 13.3168 12.45 12.2835C13.4834 11.2502 14 9.98905 14 8.50016C14 7.01127 13.4834 5.75016 12.45 4.71683C11.4167 3.6835 10.1556 3.16683 8.66669 3.16683C7.1778 3.16683 5.91669 3.6835 4.88336 4.71683C3.85002 5.75016 3.33336 7.01127 3.33336 8.50016C3.33336 9.98905 3.85002 11.2502 4.88336 12.2835C5.91669 13.3168 7.1778 13.8335 8.66669 13.8335ZM8.66669 12.5002C7.55558 12.5002 6.61113 12.1113 5.83336 11.3335C5.05558 10.5557 4.66669 9.61127 4.66669 8.50016C4.66669 7.38905 5.05558 6.44461 5.83336 5.66683C6.61113 4.88905 7.55558 4.50016 8.66669 4.50016C9.7778 4.50016 10.7222 4.88905 11.5 5.66683C12.2778 6.44461 12.6667 7.38905 12.6667 8.50016C12.6667 9.61127 12.2778 10.5557 11.5 11.3335C10.7222 12.1113 9.7778 12.5002 8.66669 12.5002ZM8.66669 11.1668C9.40002 11.1668 10.0278 10.9057 10.55 10.3835C11.0722 9.86127 11.3334 9.2335 11.3334 8.50016C11.3334 7.76683 11.0722 7.13905 10.55 6.61683C10.0278 6.09461 9.40002 5.8335 8.66669 5.8335C7.93336 5.8335 7.30558 6.09461 6.78336 6.61683C6.26113 7.13905 6.00002 7.76683 6.00002 8.50016C6.00002 9.2335 6.26113 9.86127 6.78336 10.3835C7.30558 10.9057 7.93336 11.1668 8.66669 11.1668ZM8.66669 9.8335C8.30002 9.8335 7.98613 9.70294 7.72502 9.44183C7.46391 9.18072 7.33336 8.86683 7.33336 8.50016C7.33336 8.1335 7.46391 7.81961 7.72502 7.5585C7.98613 7.29739 8.30002 7.16683 8.66669 7.16683C9.03336 7.16683 9.34725 7.29739 9.60836 7.5585C9.86947 7.81961 10 8.1335 10 8.50016C10 8.86683 9.86947 9.18072 9.60836 9.44183C9.34725 9.70294 9.03336 9.8335 8.66669 9.8335Z" fill="#1C1B1D"></path></svg>