<svg width="16" height="16" viewBox="0 0 16 16" fill="none" xmlns="http://www.w3.org/2000/svg" class="src-components-Icon-Icon_icon src-pages-Dashboard-containers-FlightSearch-VFFPanel-VFFPanel_flySearchIcon" style="width: 16px; height: 16px;"><path d="M6.63389 1.28166L10.4197 7.10963L13.0528 7.11622C15.0728 7.12186 15.5 8.02651 15.5 8.02651C15.5 8.02651 15.0611 8.92871 13.041 8.92306L10.4074 8.91647L6.54578 14.7241C6.54578 14.7241 6.25433 15.1937 5.31598 15.2633L7.12886 8.79166L3.02321 8.69847L0.912864 10.1566C0.912864 10.1566 0.857701 10.1952 0.726287 10.2736C0.697455 10.2907 0.66372 10.2976 0.630479 10.2933C0.597237 10.2889 0.566408 10.2736 0.542921 10.2497C0.519435 10.2257 0.504649 10.1946 0.500927 10.1613C0.497205 10.128 0.504758 10.0944 0.522386 10.0659L1.6554 8.21762L1.65822 7.76275L0.549298 5.90903C0.532179 5.88022 0.525159 5.84652 0.52934 5.81327C0.533521 5.78002 0.548666 5.74911 0.572385 5.72543C0.596105 5.70176 0.62704 5.68666 0.660299 5.68254C0.693558 5.67842 0.727246 5.68551 0.756026 5.70268C0.885934 5.78138 0.940529 5.81997 0.940529 5.81997L3.03224 7.28906L7.20359 7.2162L5.41105 0.736816C6.34846 0.811184 6.63389 1.28166 6.63389 1.28166Z" fill="white"></path></svg>