<svg width="40" height="40" viewBox="0 0 40 40" fill="none" xmlns="http://www.w3.org/2000/svg">
<rect width="40" height="40" rx="4" fill="white"/>
<path d="M21.6369 20.7622L19.9903 25.2125L18.327 20.6867L21.6369 20.7622Z" fill="url(#paint0_linear_812_25456)"/>
<path fill-rule="evenodd" clip-rule="evenodd" d="M36 20C36 28.8366 28.8366 36 20 36C11.1634 36 4 28.8366 4 20C4 11.1634 11.1634 4 20 4C28.8366 4 36 11.1634 36 20ZM25.6589 20.0507L28.5488 12.96H24.5238L21.8647 20.1467L18.1629 20.2403L15.4874 12.96H11.3671L14.3873 20.3357L8.95999 20.473L14.4952 20.5993L18.2463 29.76H21.7019L25.3346 20.8466L27.8848 20.9048V19.9944L25.6589 20.0507ZM30.4985 22.4818C30.4967 22.4853 30.4882 22.4976 30.4698 22.5146C30.4236 22.5583 30.3182 22.6296 30.1177 22.6427L30.6864 20.6905L30.4743 20.6857L29.4154 20.6577L28.7597 21.0958C28.7597 21.0958 28.7431 21.1076 28.7019 21.1308C28.6602 21.1549 28.6135 21.1081 28.6391 21.0678L28.992 20.5108L28.9938 20.3735L28.6525 19.813C28.6279 19.7724 28.6754 19.726 28.7167 19.7509C28.7566 19.7745 28.7741 19.7859 28.7741 19.7859L29.4194 20.2323L30.4752 20.2183L30.7115 20.2148L30.1644 18.2565C30.4545 18.2801 30.5424 18.4222 30.5424 18.4222L30.8008 18.8144L31.3502 19.6447L31.3874 19.702L31.7081 20.1868L32.5234 20.1917C33.149 20.1956 33.28 20.4693 33.28 20.4693C33.28 20.4693 33.1428 20.7408 32.5171 20.7373L31.7022 20.7316L31.6125 20.8624L30.4985 22.4818Z" fill="url(#paint1_linear_812_25456)"/>
<defs>
<linearGradient id="paint0_linear_812_25456" x1="36" y1="20" x2="4" y2="20" gradientUnits="userSpaceOnUse">
<stop stop-color="#512698"/>
<stop offset="0.699974" stop-color="#991851"/>
<stop offset="1" stop-color="#E10A0A"/>
</linearGradient>
<linearGradient id="paint1_linear_812_25456" x1="36" y1="20" x2="4" y2="20" gradientUnits="userSpaceOnUse">
<stop stop-color="#512698"/>
<stop offset="0.699974" stop-color="#991851"/>
<stop offset="1" stop-color="#E10A0A"/>
</linearGradient>
</defs>
</svg>
