<svg width="40" height="40" viewBox="0 0 40 40" fill="none" xmlns="http://www.w3.org/2000/svg">
<rect width="40" height="40" rx="4" fill="white"/>
<path d="M32.9169 16.0297C31.6784 13.8254 29.2551 12.453 26.6199 12.4615H6.68136C6.54671 12.462 6.4152 12.5005 6.30321 12.5723C6.19122 12.6441 6.10371 12.746 6.05158 12.8652C6.00021 12.9836 5.98683 13.1141 6.01315 13.2399C6.03948 13.3656 6.10431 13.481 6.19935 13.5712L10.5428 17.7095C10.9263 18.076 11.4487 18.2812 11.9923 18.2812H26.0482C27.05 18.2711 27.8689 19.0329 27.8795 19.9813C27.89 20.9298 27.087 21.7067 26.0851 21.716H16.3947C16.2599 21.7161 16.1282 21.7542 16.0159 21.8257C15.9035 21.8972 15.8156 21.9989 15.7631 22.118C15.7113 22.2366 15.6975 22.3674 15.7237 22.4935C15.7499 22.6196 15.8148 22.7353 15.91 22.8258L20.2561 26.9674C20.642 27.3338 21.1629 27.539 21.7056 27.5383H26.0886C31.791 27.5383 36.1027 21.7616 32.9169 16.0271" fill="#FF3008"/>
</svg>
