<?xml version="1.0" encoding="UTF-8"?><svg id="a" xmlns="http://www.w3.org/2000/svg" xmlns:xlink="http://www.w3.org/1999/xlink" viewBox="0 0 119 44"><defs><style>.c{fill:none;}.d{fill:#e10a0a;}.e{clip-path:url(#b);}</style><clipPath id="b"><rect class="c" width="118.945" height="44"/></clipPath></defs><g class="e"><path class="d" d="m17.848,35.216h-1.034v-.631h1.034v-.699c0-.821.208-1.441.628-1.86.372-.372.87-.559,1.495-.559.214,0,.406.013.572.042.169.029.33.071.491.127v.644c-.206-.066-.388-.111-.546-.14-.158-.029-.332-.042-.517-.042-.96,0-1.44.602-1.44,1.805v.686h2.49v.631h-2.49v6.504h-.686v-6.504l.003-.003Z"/><path class="d" d="m21.931,34.585h.686v2.029c.14-.317.317-.612.53-.881.214-.269.456-.501.728-.691.269-.19.567-.335.889-.433.322-.098.659-.143,1.013-.132v.755h-.069c-.411,0-.802.077-1.174.232-.372.153-.702.383-.986.686-.285.303-.509.675-.678,1.119-.169.443-.253.953-.253,1.53v2.924h-.686v-7.138Z"/><path class="d" d="m32.04,37.818c-.029-.364-.1-.71-.216-1.042-.116-.33-.28-.625-.488-.881-.208-.256-.469-.462-.775-.615-.309-.153-.667-.232-1.076-.232-.353,0-.686.071-.992.211-.306.14-.575.332-.804.58-.229.248-.417.541-.567.881-.15.34-.237.707-.266,1.098h5.188-.003Zm-2.419,4.071c-.467,0-.913-.09-1.335-.267-.425-.177-.797-.43-1.118-.755-.322-.327-.575-.718-.762-1.174-.187-.457-.28-.966-.28-1.525v-.029c0-.512.087-.995.258-1.449.171-.451.409-.847.712-1.182.303-.335.657-.602,1.068-.797.409-.195.855-.293,1.34-.293s.952.095,1.353.288c.401.193.741.454,1.026.792.285.335.504.731.657,1.182.153.451.23.945.23,1.475v.148c0,.032-.005.077-.013.132h-5.9c.029.446.127.839.293,1.182.169.343.377.636.628.876.251.243.538.425.86.549.322.124.659.187,1.013.187.559,0,1.031-.106,1.419-.322.388-.214.731-.48,1.029-.797l.475.42c-.364.39-.775.715-1.237.971-.462.256-1.034.385-1.712.385"/><path class="d" d="m37.289,41.232c.375,0,.736-.074,1.087-.224.351-.148.662-.359.931-.628.272-.269.488-.591.651-.966.164-.372.245-.789.245-1.245v-.029c0-.457-.082-.873-.245-1.251-.164-.377-.38-.699-.651-.966-.272-.267-.583-.472-.931-.623-.348-.15-.712-.224-1.087-.224-.393,0-.76.069-1.1.208-.34.14-.638.34-.891.602-.253.261-.451.58-.596.958-.145.377-.216.805-.216,1.28v.029c0,.467.074.892.224,1.272.15.383.353.707.609.971.256.266.556.472.897.615.34.145.699.216,1.073.216m2.872-1.106c-.158.232-.332.456-.525.67-.19.214-.406.401-.644.559-.237.158-.504.288-.797.385-.293.098-.617.148-.971.148-.43,0-.852-.084-1.266-.251-.414-.169-.786-.409-1.11-.728-.327-.317-.591-.707-.791-1.169-.2-.462-.301-.982-.301-1.559v-.029c0-.578.1-1.098.301-1.559.2-.462.464-.852.791-1.174.327-.322.696-.567,1.11-.741.414-.172.836-.259,1.266-.259.353,0,.68.048.978.14.298.092.567.219.804.377.237.158.451.34.644.546.19.206.361.42.509.644v-1.538h.686v9.373h-.686v-3.834Z"/><path class="d" d="m45.602,41.889c-.448,0-.849-.071-1.203-.216-.353-.145-.654-.348-.902-.61-.248-.261-.433-.57-.559-.929-.127-.359-.19-.752-.19-1.182v-4.364h.686v4.238c0,.736.195,1.327.588,1.771.39.443.952.665,1.677.665.346,0,.67-.063.971-.19.303-.127.567-.301.791-.525.224-.224.398-.491.525-.805.127-.311.187-.654.187-1.029v-4.127h.686v7.135h-.686v-1.33c-.243.42-.57.773-.979,1.063-.411.288-.942.433-1.593.433"/><path class="d" d="m56.326,37.818c-.029-.364-.1-.71-.216-1.042-.116-.33-.279-.625-.491-.881-.208-.256-.469-.462-.775-.615-.309-.153-.667-.232-1.076-.232-.353,0-.686.071-.991.211-.309.14-.575.332-.804.58-.229.248-.417.541-.567.881-.15.34-.237.707-.266,1.098h5.188Zm-2.418,4.071c-.467,0-.91-.09-1.335-.267-.425-.177-.797-.43-1.118-.755-.322-.327-.575-.718-.762-1.174-.187-.457-.28-.966-.28-1.525v-.029c0-.512.087-.995.258-1.449.171-.451.409-.847.712-1.182.303-.335.657-.602,1.068-.797.409-.195.854-.293,1.34-.293s.952.095,1.353.288c.401.193.741.454,1.026.792.285.335.501.731.657,1.182.153.451.229.945.229,1.475v.148c0,.032-.005.077-.013.132h-5.9c.029.446.127.839.293,1.182.169.343.377.636.63.876.251.243.538.425.86.549.322.124.66.187,1.013.187.559,0,1.031-.106,1.419-.322.388-.214.73-.48,1.029-.797l.475.42c-.364.39-.776.715-1.237.971-.461.256-1.031.385-1.711.385"/><path class="d" d="m58.507,34.585h.686v1.33c.243-.42.57-.773.979-1.063.409-.29.941-.433,1.593-.433.449,0,.85.071,1.203.216.354.145.654.348.902.607.248.261.432.573.559.931.126.359.187.752.187,1.182v4.364h-.686v-4.238c0-.736-.195-1.327-.588-1.771-.391-.443-.953-.665-1.677-.665-.354,0-.681.063-.979.19-.298.127-.559.301-.783.525-.225.224-.398.491-.525.805-.126.311-.19.654-.19,1.029v4.127h-.686v-7.135l.005-.003Z"/><path class="d" d="m68.896,41.847c-.28,0-.541-.037-.783-.111-.243-.074-.454-.193-.636-.356-.182-.164-.324-.367-.427-.615s-.153-.538-.153-.873v-4.673h-1.034v-.631h1.034v-2.28h.686v2.28h2.503v.631h-2.503v4.591c0,.512.132.871.398,1.074.267.203.61.306,1.029.306.177,0,.346-.018.504-.053s.34-.098.546-.185v.644c-.187.084-.369.148-.551.19-.182.042-.385.063-.609.063"/><path class="d" d="m80.346,31.508h.686v10.212h-.686v-10.212h0Zm-4.74,3.707h-1.034v-.631h1.034v-.699c0-.821.211-1.441.63-1.86.372-.372.87-.559,1.495-.559.214,0,.406.013.572.042.169.029.33.071.491.127v.644c-.205-.066-.388-.111-.546-.14-.158-.029-.332-.042-.517-.042-.96,0-1.44.602-1.44,1.805v.686h2.49v.631h-2.49v6.504h-.686v-6.507Z"/><path class="d" d="m88.748,34.585h.755l-3.089,7.386c-.316.747-.664,1.269-1.041,1.573-.378.303-.823.454-1.335.454-.271,0-.511-.026-.728-.079-.213-.053-.443-.132-.686-.238l.237-.61c.187.092.366.161.546.203.177.042.401.063.673.063.187,0,.358-.029.517-.084.158-.055.309-.15.449-.288.14-.137.274-.309.406-.522.129-.214.261-.475.39-.781l-3.426-7.08h.797l2.964,6.378,2.572-6.378v.003Z"/><path class="d" d="m95.838,37.818c-.029-.364-.1-.71-.216-1.042-.116-.33-.279-.625-.491-.881-.208-.256-.469-.462-.775-.615-.309-.153-.667-.232-1.076-.232-.353,0-.686.071-.991.211-.309.14-.575.332-.804.58-.229.248-.417.541-.567.881-.15.34-.237.707-.267,1.098h5.188Zm-2.418,4.071c-.467,0-.91-.09-1.335-.267-.424-.177-.797-.43-1.118-.755-.322-.327-.575-.718-.762-1.174-.187-.457-.279-.966-.279-1.525v-.029c0-.512.087-.995.258-1.449.172-.451.409-.847.712-1.182.304-.335.657-.602,1.068-.797.409-.195.854-.293,1.34-.293s.952.095,1.353.288c.401.193.741.454,1.026.792.285.335.501.731.657,1.182.153.451.229.945.229,1.475v.148c0,.032-.005.077-.013.132h-5.9c.029.446.127.839.293,1.182.169.343.377.636.63.876.251.243.538.425.86.549.322.124.66.187,1.013.187.559,0,1.031-.106,1.419-.322.388-.214.73-.48,1.029-.797l.475.42c-.364.39-.776.715-1.237.971-.461.256-1.031.385-1.711.385"/><path class="d" d="m98.019,34.585h.686v2.029c.14-.317.316-.612.533-.881.213-.269.456-.501.728-.691.269-.19.567-.335.888-.433.322-.098.66-.143,1.013-.132v.755h-.071c-.412,0-.802.077-1.174.232-.372.153-.701.383-.986.686-.285.303-.512.675-.678,1.119-.169.443-.253.953-.253,1.53v2.924h-.686v-7.138Z"/><path class="d" d="m114.889,11.33l-.103.293.108-.293h-.005Z"/><path class="d" d="m118.945,11.33l-9.376,24.355h-3.642l2.667-7.233-7.095-17.122h4.185l4.677,12.315,4.425-12.022.108-.293h4.051Z"/><path class="d" d="m0,11.386h4.141l4.523,12.367,4.558-12.367h4.046l-6.881,16.956h-3.474L0,11.386Z"/><path class="d" d="m30.202,18.621c-.063-.615-.2-1.195-.411-1.736-.211-.541-.498-1.008-.857-1.404-.359-.393-.789-.707-1.284-.939-.499-.235-1.063-.351-1.699-.351-1.184,0-2.163.409-2.935,1.227-.773.818-1.242,1.887-1.411,3.203h8.601-.003Zm-3.79,9.977c-1.211,0-2.342-.214-3.394-.639-1.052-.425-1.968-1.021-2.751-1.784-.781-.765-1.398-1.683-1.846-2.757-.451-1.074-.675-2.259-.675-3.554v-.063c0-1.211.203-2.348.607-3.409.404-1.063.973-1.992,1.706-2.789.733-.797,1.601-1.422,2.601-1.881,1-.457,2.107-.686,3.321-.686,1.34,0,2.516.245,3.526.734,1.01.488,1.852,1.148,2.521,1.976.67.829,1.176,1.792,1.517,2.884.34,1.095.512,2.248.512,3.459,0,.169-.005.346-.016.525-.011.179-.026.367-.047.557h-12.359c.211,1.383.76,2.438,1.641,3.172.881.734,1.949,1.1,3.202,1.1.955,0,1.783-.169,2.484-.509.702-.34,1.39-.839,2.07-1.499l2.263,2.008c-.807.955-1.767,1.72-2.883,2.296-1.116.573-2.448.86-3.998.86"/><path class="d" d="m41.065,4.95h-3.856v23.265h3.856V4.95Z"/><path class="d" d="m53.232,25.22c.786,0,1.493-.142,2.118-.43.625-.288,1.163-.67,1.609-1.148.446-.478.786-1.04,1.021-1.689.232-.649.35-1.333.35-2.056v-.063c0-.744-.126-1.446-.382-2.103-.256-.657-.612-1.232-1.068-1.72-.456-.488-.999-.876-1.624-1.164-.628-.288-1.322-.43-2.086-.43s-1.461.143-2.086.43c-.628.288-1.163.67-1.609,1.148-.446.478-.786,1.048-1.021,1.705-.235.66-.351,1.348-.351,2.071v.063c0,.744.127,1.441.382,2.087.256.649.609,1.216,1.068,1.705.456.488.997.876,1.625,1.164.625.288,1.311.43,2.055.43m-.063,3.378c-1.274,0-2.458-.23-3.553-.686-1.095-.456-2.039-1.079-2.835-1.866s-1.419-1.71-1.865-2.773c-.446-1.061-.67-2.187-.67-3.378v-.063c0-1.211.227-2.348.686-3.409.456-1.061,1.084-1.992,1.88-2.789s1.741-1.428,2.835-1.897c1.095-.467,2.289-.702,3.584-.702s2.49.23,3.584.686c1.095.457,2.039,1.084,2.836,1.881s1.419,1.72,1.864,2.773c.446,1.053.67,2.182.67,3.393v.063c0,1.19-.229,2.317-.686,3.378-.457,1.063-1.084,1.992-1.881,2.789-.797.797-1.746,1.43-2.851,1.897-1.105.467-2.305.702-3.6.702"/><path class="d" d="m72.953,28.598c-1.253,0-2.411-.23-3.473-.686-1.063-.456-1.981-1.079-2.756-1.866s-1.38-1.71-1.814-2.773c-.435-1.061-.654-2.187-.654-3.378v-.063c0-1.19.219-2.322.654-3.393.435-1.074,1.044-2.008,1.833-2.805.786-.797,1.709-1.428,2.772-1.897,1.063-.467,2.231-.702,3.505-.702.786,0,1.504.069,2.15.208.649.137,1.243.335,1.783.588.541.256,1.039.565,1.498.924.457.362.886.755,1.29,1.18l-2.421,2.581c-.596-.615-1.226-1.121-1.896-1.515-.67-.393-1.482-.588-2.437-.588-.701,0-1.348.142-1.944.43-.596.288-1.11.67-1.546,1.148-.435.478-.775,1.048-1.021,1.705-.245.66-.366,1.348-.366,2.071v.063c0,.744.121,1.446.366,2.103.245.66.591,1.232,1.037,1.72.446.488.976.871,1.593,1.148.618.277,1.295.414,2.039.414.912,0,1.714-.19,2.405-.573.691-.383,1.342-.881,1.959-1.499l2.326,2.296c-.828.937-1.772,1.694-2.836,2.28-1.063.583-2.41.876-4.046.876"/><path class="d" d="m86.522,11.386h-3.853v16.83h3.853V11.386Z"/><path class="d" d="m96.271,28.503c-.701,0-1.348-.084-1.944-.256-.593-.169-1.11-.446-1.545-.829-.435-.383-.77-.887-1.003-1.515-.235-.625-.35-1.406-.35-2.343v-8.861h-2.134v-3.314h2.134v-3.662h3.853v3.662h4.524v3.314h-4.524v8.254c0,.744.179,1.28.541,1.61.361.33.87.493,1.53.493.828,0,1.624-.19,2.39-.573v3.156c-.488.277-1.005.488-1.546.639-.541.148-1.184.224-1.928.224"/><path class="d" d="m83.394,8.415s-.021.032-.055.066c-.09.087-.295.23-.683.256l.688-2.422.417-1.467-.412-.011-2.054-.055-1.274.873s-.032.024-.114.071c-.082.048-.172-.045-.121-.127l.686-1.108v-.274l-.66-1.116c-.047-.082.045-.174.124-.124.076.047.11.071.11.071l1.253.889,2.049-.026.459-.008-.076-.282-.987-3.62c.564.047.733.33.733.33l.501.781,1.066,1.654.071.113.622.966,1.582.011c1.213.008,1.469.554,1.469.554,0,0-.267.541-1.483.533l-1.582-.011-.174.261-2.163,3.224.005-.003Z"/><path class="d" d="m78.381,5.304v-1.971l-33.71,1.037,33.71.934Z"/></g></svg>