<?xml version="1.0" encoding="UTF-8"?><svg id="a" xmlns="http://www.w3.org/2000/svg" width="153.558268" height="45.959159" viewBox="0 0 153.558268 45.959159"><defs><style>.b{fill:#414042;}.b,.c,.d{stroke-width:0px;}.c{fill:#e10a0a;}.d{fill:#fff;}</style></defs><path class="c" d="m20.1209,43.72767c.807134,1.572724,1.857595,2.231489,3.347233,2.231489h20.532461c1.264114,0,1.808137-.741851,2.617251-1.772529l12.686643-18.144688c2.19588-2.967404,2.144443-2.807164.575677-4.130627L36.038055,1.687464c-1.576683-1.325441-2.830903-1.687464-4.917978-1.687464H1.362949C.361945,0-.296819,1.046505.134444,1.948596l19.984479,41.777097.001977.001977Z"/><path class="d" d="m39.547506,14.403781c-.079133-.108804.02176-.271023.043521-.387741.035608-.098914.110783-.259153.207717-.35411,0-.001978.00989-.009892.00989-.01187.003958-.005934,0-.013848.003958-.015826.08111-.057369.152326-.150349.241348-.207718.338283-.284871,1.175092-.460936,1.248289.11474.037585.427306-.413458.860547-.741851,1.157288-.3185.221566-.975287.219588-1.012872-.292783m-1.032655,8.255318c-.069239-.464893.063304-.949568.083087-1.414463,0,0-.00989,0-.003958-.005935.035608-.138478.027696-.385762.067262-.569742.00989-.185957.017806-.397633.057368-.551938-.003958-.003956-.00989-.001979-.013848-.007913v-.017804c.02176-.003956.013848-.027696,0-.037587.017806-.075174.039566-.195849.037585-.235415,0-.003956-.003958,0-.00989-.003956v-.015827s.00989-.009892.013848-.015827c.001977-.047479-.00989-.195849.029673-.269044.019783-.011869-.011871-.031652-.013848-.043523.003958-.003956.00989-.003956.013848-.005935.001977-.031652.011871-.108805.00989-.136501-.011871-.071218.057368-.176065.005935-.235415.055391-.011869.003958-.122653.023738-.116718.045502.013848-.02176-.011869.003958-.035608.003958-.007913.031654-.007913.003958-.015827-.00989-.005935.005935-.015827.00989-.019783-.001977-.092979.013848-.20574.023738-.274979,0-.073195.00989-.176065.023738-.247284.015825-.003956.019783-.023739.003958-.031652v-.033631c.015825-.019783.003958-.047479.019783-.067262,0-.007913.02176-.007913.00989-.019783,0-.003956-.00989,0-.00989-.003956,0-.019783-.007913-.059348.00989-.05737.003958-.003956-.003958-.007913-.003958-.009892.017806-.073195.035608-.276958.053414-.405545.027696-.005935-.011871-.011869,0-.019783,0-.003956.00989-.003956.00989-.007913.015825-.015827-.013848-.025717-.00989-.033631.015825-.025717.025718-.098914.019783-.114739.007913-.029675.025718-.144414.049456-.154305-.003958-.041543.031654-.077152.037585-.120674,0-.005935.003958-.007913.003958-.013848.005935-.005935,0-.005935-.003958-.009892.027696,0,.011871-.025717.029673-.041543,0,0,.019783-.007913.015825-.013848,0-.003956-.005935-.003956-.005935-.005935.027696-.077152.063304-.172109.116718-.235415,0-.001979.003958,0,.00989-.005935.019783-.08111.118695-.134522.154303-.199805.035608-.015827.043521-.0455.077152-.061327.00989-.017804.08111-.071218.09298-.087043.122653-.110783.328393-.182001.449066-.176065.045502-.017804.126608,0,.160239-.025717.104847.023739.180022.035608.255196.110783.003958.003956-.005935.005935,0,.009892,0,.003956.00989.003956.00989.009892.007913.011869.003958.077152.013848.067262.00989-.003956.00989.013848.00989.017804.003958.013848-.003958.033631-.003958.049456-.003958,0-.013848,0-.00989.005935.029673.005935.019783.037587.003958.051435-.007913.005935-.00989.035608.003958.02176.003958,0,0,.005935-.003958.007913.00989.011869.00989.041543.023738.017804,0-.017804.035608-.003956.039566,0s-.003958.007913-.003958.011869c.023738.009892-.007913.017804-.005935.027696.005935,0,.00989-.005935.00989-.003956.003958.001979,0,.005935-.003958.005935,0,.007913-.013848.0455,0,.053414.02176-.003956.001977.0455.019783.027696,0-.003956.003958-.017804.00989-.017804,0,0,.005935.005935.005935.009892.00989.031652.013848.0455.033631.071218-.001977.017804-.005935.037587-.019783.053414,0,.019783-.005935.059348.013848.069239.025718.039566-.035608.049456-.019783.087043-.011871.023739-.069239.029675-.019783.051435-.011871.023739.023738,0,.00989.025717-.015825,0,.001977.013848-.023738.015827,0,.001979-.00989.001979-.00989,0-.023738.015827.005935.043523.019783.05737.013848.035608-.075174.059348-.059349.087043.005935.005935.005935.013848.00989.015827,0,.001979.003958.011869.003958.013848-.003958.005935-.003958.007913,0,.013848.003958-.011869.051433.001979.033631.005935-.019783-.007913-.041543.049456-.013848.051435v.007913s.00989,0,.013848.003956c0,.005935,0,.02176-.003958.025717-.013848,0-.00989.007913-.003958.017804.015825.085066-.041543.037587-.043521.094958,0,0,0,.001979.003958.003956.001977.025717.063304.025717-.003958.047479-.003958,0-.00989.007913-.003958.009892.005935.011869.007913.027696.00989.041543.005935.001979.015825,0,.015825.003956,0,.02176-.039566.037587-.053414.065283-.001977.019783-.031654.007913-.029673.035608,0,.023739.039566.017804.063304.017804.005935.013848.013848,0,.023738,0-.025718.015827-.017806.041543-.037585.055391,0,0,.003958.009892.00989.013848,0,0,.00989,0,.003958.005935,0,.001979-.00989.001979-.013848,0v-.011869s-.013848.011869-.013848,0c-.007913,0-.019783.013848-.027696,0-.00989.003956.003958.005935,0,.011869.017806.031652.017806.02176.033631.059348.00989.065283-.085064.009892-.029673.079131,0,.003956.019783.013848.015825.017804-.005935.013848.001977.009892.013848.015827,0,.003956-.005935.007913-.00989.011869.003958.015827-.025718.019783-.029673.009892-.003958-.001979-.003958-.003956-.003958-.001979-.017806.027696,0,.069239-.013848.098914,0,.007913.00989.023739-.005935.027696.023738.059348-.027696.221567.023738.247284.005935-.001979.005935-.005935.00989-.007913.003958-.007913.015825,0,.003958.007913,0,.005935-.00989.005935-.00989.011869-.005935.003956-.013848.02176-.013848.023739-.019783.005935-.005935.007913.003958.007913,0,.003956-.00989.005935-.00989.005935-.015825.007913.001977.015827.005935.003956.003958,0,.00989.003956.00989.001979.005935,0,.00989.001979.013848.005935,0,.007913-.00989.005935-.00989.009892-.013848.009892.011871.009892-.005935.019783,0,.005935.00989.003956.005935.009892-.015825.003956.003958.017804.00989.027696.00989.007913.017806.02176.013848.033631-.003958.001979-.003958-.001979-.00989-.001979.003958.073195-.090999.162218-.00989.217609,0,.003956.003958.003956.00989.003956h.00989c0,.005935-.00989.009892-.00989.017804.039566.017804-.067262.039566-.033631.067262.071216.019783-.063304.14837.033631.185957.041543.013848-.023738.033631-.027696.05737,0,.047479-.013848.112762.033631.043523.033631.033631-.019783.0455-.029673.071218,0,.02176-.023738.08111-.003958.114739.11276.122653-.057368.067262.037585.168153-.057368.142435.049456.185957-.019783.172109-.061327-.003956-.015825.0455-.033631.071218-.156284.055391.02176.110783-.061327.14837-.011871.069239-.019783.20574.067262.221567.003958.001979.017806.013848.023738.017804.039566.043523.003958.073195,0,.116718-.027696,0-.029673-.041543-.063304-.047479-.039566.031652.02176-.031652-.023738-.035608-.031654,0-.02176.05737-.019783.073195.011871.005935.055391-.009892.043521.011869-.001977.005935-.023738.015827,0,.017804.015825.011869-.023738.041543-.003958.055391.02176.035608.077152-.02176.061327.02176.031654.122653-.049456.007913-.100893.003956-.037585.156284-.039566.464893-.049456.696351-.025718.019783.023738.02176-.003958.049456-.015825.150349-.019783.419393.039566.549959-.001977.031652-.071216.063304-.033631.100891.045502.02176-.063304.083087.005935.069239-.158261.549959-.882307,1.117721-1.523268.991114-.090999-.075174-.187934-.156284-.211676-.294762m12.68862-3.68156c-.047479.003956-.017806.037587-.027696.05737-.055391.025717-.053414.075174.00989.041543-.005935.039566-.003958.067262.039566.077152,0,.009892-.029673.033631-.039566.031652-.059349-.017804-.073197.108805-.08111.158261-.00989.039566-.079133-.055391-.067262.059348h.00989c0,.017804-.019783.031652-.037585.029675-.001977.047479-.015825.077152.003958.118697-.118695-.043523-.16222.292783-.332348.336306.025718.051435-.087045.047479-.08111.100891-.72998.561829-1.71318.638981-2.538122,1.020787-.217611.073195-.510392.178045-.674589.288827-.239371.08111-.514351.215632-.753722.33235,0,.001979,0,.007913-.003958.013848-.282892.110783-.5737.280915-.828896.421372v-.009892c-.106828.061327-.20574.12661-.314546.162218-.031654.061327-.170132.075174-.211676.122653-.059349.027696-.128589.047479-.174086.096935-.324435.122653-.613262.364002-.925831.458959-.075174.098914-.223546.114739-.312568.20574-.045502.013848-.106828.005935-.122653.055391-.178045.087043-.358066.182001-.520286.294762-.085064.035608-.172109.098914-.26509.140457-1.204765.688437-2.451077,1.388745-3.632104,2.152358-.015825-.009892-.059349.035608-.077152.041543-.039566.059348-.126608.090999-.197828.138478-.09298.077152-.251242.12661-.332348.221567.067262.053414-.098912.023739-.12463.065283-.120676.112762-.377849.239371-.530176.348175-.025718.019783-.053414.029675-.073197.05737-.090999.029675-.239371.174088-.30861.209696-.039566.007913-.067262.063304-.106828.079131.003958-.001979,0-.005935,0-.007913-.017806,0-.025718.023739-.043521.029675,0,.001979-.003958.009892-.003958.009892-.019783.007913-.037585.009892-.049456.031652-.001977.0455-.085064.029675-.067262.065283-.045502,0-.089022.0455-.114741.069239.015825.12661-.180022.130566-.227501.213653-.019783.005935-.019783-.003956-.033631-.015827-.00989.013848-.013848.027696-.023738.039566.003958,0,.003958.003956.00989.003956-.005935.053414-.11276.059348-.077152.112762.037585.043523.005935.120674-.029673.178045,0,.033631.023738.015827.047479.027696.015825.031652-.013848.073195-.047479.05737-.00989.001979-.003958.013848-.003958.02176.047479,0,.015825.235415.003958.274979.033631.08111.130566-.007913-.039566.18398v.0455c-.033631.053414.079133.001979.063304.039566-.039566.073195-.023738.172109-.08111.221567.114741.051435.09298.187936.027696.300698.037585.043523-.019783.0455-.019783.19387.00989.009892.029673.009892.043521.013848,0,0,.003958.003956.00989.005935,0,0,.005935-.003956.005935-.001979.005935.029675-.023738.164197-.049456.067262-.090999-.015827-.011871.134522.015825.170132.065285.067262-.073197.158261-.029673.235415.057368.013848.033631.039566.023738.089022.041543.033631,0,.090999-.023738.122653-.011871.013848-.011871.051435.013848.049456.027696.039566-.059349.071218.003958.114739.003958.005935-.003958.013848-.003958.019783-.02176.059348-.053414.352133.00989.373893.007913.0455-.029673.071218-.033631.110783-.051433.047479.02176.011869.033631.027696.047479.051435-.001977.0455,0,.110783.104847.029675-.045502.029675-.047479.055391.027696.007913.013848.041543-.00989.043523-.005935.017804.003958.053414-.023738.0455.031654.053414.098912-.079131.057368.069239.00989,0,.00989-.003956.013848,0,0,.037587.017806.071218,0,.106826,0,.001979-.005935.005935-.00989.009892.001977.013848.023738,0,.025718.02176.049456.011869-.059349-.017804-.015825.108805-.029673.031652-.025718.098914-.00989.136501,0,.003956.003958,0,.003958.003956.005935.003956,0,.005935-.003958.011869,0,.003956-.003958.009892-.003958.013848-.067262.047479.00989.003956.003958.05737.013848,0,.00989.011869.00989.02176-.041543.039566-.00989.146393-.013848.211676.007913.025717.011871.085066-.029673.087043.013848.029675.067262.150347-.003958.183978.003958.037585.001977.049456-.029673.053414-.007913.031654.017806.011871.029673.001977.037585.00989.033631.057368,0,.065285-.013848.047479.017806.071216.053414.09298,0,.017806,0,.043521-.00989.061327-.005935.013848-.003958.037585-.00989.053414-.013848.037585-.017806.061327-.043521.094958.003958.02176.047479-.005935.033631.019783-.015825.00989-.011871.019783.00989.02176.033631.019783-.10287.229478-.003958.114741.075174-.075174-.100893.18398.00989.089022.007913.029673-.063304.039566-.019783.059349.077152.025718-.057368.047479.029673.100893.104847.017806-.08111.031654-.09298.073197.003958.041543-.013848.067262-.033631.096935.025718.017806.003958.049456.023738.067262.089022-.005935-.023738.037585-.00989.051433-.023738.023738,0,.037585.00989.057368.011871-.063304.079133,0,.019783.019783.061327-.039566.10287-.013848.090999.075174,0,.017806-.011871.037585-.023738.00989-.051433-.031654-.136501.011871-.063304.057368.209698.180022-.110783.025718.067262.174086.017806.108805.013848.152326-.130566.130566.001977.031654.187934.001977.08111.039566-.023738,0-.025718.037585-.003958.029673.073197.09298-.136501.126608-.037585.227501.075174,0-.049456.164197.090999.065285-.025718.043521,0,.08111-.043521.098912.059349.049456.003958.094958.08111.019783-.037585.067262-.077152.195851.00989.075174-.019783.087045-.134524.061327-.154303.16222-.049456.027696.051433.051433.007913.116718.033631.019783.075174.005935.053414.067262-.007913.035608.08111.023738.053414.075174-.128589.003958-.140455-.039566-.106828.219588.069239.017806.067262-.02176.067262-.063304.061327-.00989-.001977.098912.023738.132543.011871.013848.051433,0,.063304.025718-.09298.063304-.172109.015825-.067262.150349.043521.077152-.126608.158261.003958.191892,0,.019783-.00989.035608-.00989.053414.019783.00989.033631.011871.049456-.001977.033631.02176-.017806.051433.013848.055391.025718-.029673.096935-.033631.063304.027696-.005935.005935-.013848.011871-.023738.015825-.079133.061327.005935.051433-.067262.170132.025718,0,.191892-.003958.096935.023738-.051433.00989-.045502.079133-.029673.11276.031654.031654.083087-.017806.067262.041543-.130566.11276.098912.039566-.023738.156284.00989.003958.049456,0,.049456.00989-.035608.043521,0,.106828-.019783.146391.015825.053414-.055391.037585-.005935.007913-.007913-.108805-.150349.019783-.043521.045502.035608.047479-.031654.079133-.023738.12463,0,.003958-.00989.007913-.00989.011871-.041543.049456.003958.031654.013848.069239.00989.007913.00989.015825.00989.02176.100893.148372.053414.049456.12463.00989.047479.035608-.055391.049456.047479.094958,0,.039566-.053414.073197-.003958.098912-.001977.037585-.031654-.029673-.029673.005935.003958.011871.013848.013848.00989.027696h.013848c.013848.035608.005935.090999.023738.12463,0,.007913.025718.005935.013848.019783.027696.027696.00989.02176-.003958.063304.00989.001977.019783,0,.023738-.003958-.011871.047479.019783.023738.039566.033631-.037585.019783,0,.037585.019783.001977.013848.029673-.051433.033631.00989.059349-.013848.053414-.142436.126608-.063304.166174-.027696.023738-.231459.007913-.140455.063304.005935.011871.00989.015825.019783.019783.00989-.055391.053414-.049456.09298-.003958.003958-.001977.00989-.003958.013848-.007913l.003958.003958c-.02176.071216-.168151.003958-.120676.067262.027696.013848-.033631.025718.019783.031654-.073197.098912.023738.09298-.00989.156284.005935.122653.170132.128589.130566.00989.065285.015825-.00989.077152.029673.122653,0-.055391.019783-.025718.047479-.001977,0,.023738.035608.023738.053414.053414-.045502.075174-.08111-.063304-.130566.035608.059349.003958.049456-.017806.114741.055391.047479.025718.132543.049456.039566.096935.079133-.077152-.089022-.051433-.019783-.017806-.015825.041543-.039566.005935-.063304.017806.00989.007913.019783.00989.023738.011871,0,.035608.069239.065285-.013848.061327,0,.114741-.087045.00989-.106828-.00989,0,.013848.013848.025718-.003958.031654.035608.017806-.003958.089022.067262.051433.049456-.043521.019783.059349.053414.055391-.027696.023738-.128589.031654-.057368.098912,0,.007913,0,.011871-.00989.015825.059349-.001977.049456.049456.071216.031654.001977.001977.005935.001977.00989.001977,0,.013848-.00989.019783-.019783.027696.013848.013848.033631-.011871.033631-.027696.023738.033631-.049456.071216.00989.09298-.02176.015825-.031654.055391.00989.045502,0-.005935,0-.011871.005935-.017806.019783.023738.049456.02176.077152.025718-.00989.029673.015825.051433.029673,0,.013848.00989.00989.035608-.003958.055391-.126608.033631-.035608.130566-.120676.140455.015825.00989.033631.031654.053414.035608-.100893.061327-.168151.166174.047479.209698-.043521.039566-.116718.047479-.150349.089022-.298717.947591-1.88727.836809-1.992117-.178045-.003958.001977-.00989,0-.013848,0-.039566-.213653-.100893-.419393-.096935-.629091.003958-.09298.017806-.217611-.013848-.28685.019783-.358066.055391-.712178.027696-1.056397.110783-1.149373.039566-2.480749.110783-3.523298.013848-.104847.017806-.211676-.005935-.300698-.003958-.011871,0-.019783.00989-.025718v-.005935s-.003958,0-.00989-.001977c.011871-.3185.029673-.640958.005935-.951548.033631-.142435-.00989-.322458.013848-.47874,0-.510394.005935-1.070245-.00989-1.582616.019783-.298719.013848-.635025.019783-.929787-.49259.223544-.890223.621177-1.321483.921873-.120676.12463-.383785.294762-.526221.429285-.170132.112762-.385762.28685-.555894.43522,0-.001979-.003958-.003956-.003958-.003956-.00989,0-.013848.005935-.013848.019783-.029673.009892-.063304.025717-.08111.051435h0c-1.05442.858569-2.096965,1.715161-3.165232,2.599445-.005935-.001977-.005935-.005935-.005935-.007913-.449068.352131-.826917.759657-1.214658,1.163221-.227501.150349-.45698.338283-.607329.553917-.344218.310588-.64096.684483-.969352,1.02672-.003956-.003958-.015827-.003958-.015827-.005935-.112762.158261-.312567.310588-.429285.460936-.10287.077152-.189913.185957-.284871.255196,0,0,0,.011871-.003956.013848-.443132.536111-.99507,1.082115-1.509419,1.552941-.609306.516328-1.742855-.120676-1.529202-.955504.003956-.013848.033631-.041543.009892-.051433.977266-1.461942,2.455033-2.553947,3.734974-3.715191.051435-.047479.136501-.12463.201784-.164197.300698-.259154.65085-.591502.965395-.791307.118697-.187934.387741-.284869.492588-.48072.098914-.027696.237392-.142436.294762-.233436.023739-.009892.013848.015827.037587.013848-.013848-.051435.116718-.051435.092979-.106826.690416-.524242,1.355115-1.111788,2.031682-1.638007v-.019783c.120674-.067262.265088-.150349.352133-.247284,0,.005935.003956.011869.003956.017804.059348-.039566.12661-.12463.207717-.140457.063304-.116718.237394-.146393.298717-.243327.108805-.055391.191892-.136501.288827-.199805v-.009892c.225523-.166174.476761-.322458.666677-.486655.075174-.053414.209698-.112762.255196-.185957.152326-.083087.314546-.20574.439176-.322458.431264-.273.79922-.658764,1.246308-.908025-.005935-.001979-.005935,0-.00989-.003956.00989-.005935.00989-.009892.019783-.011869.18398-.144414.381808-.30861.597437-.415437v-.011869h-.005935c-.003958-.005935-.003958-.017804,0-.025717.023738-.013848-.003958-.049456.005935-.083087.00989-.02176.001977-.077152.00989-.083087.035608-.019783.007913-.055391.019783-.112762-.067262-.112762.055391-.53809-.063304-.666677,0-.001979-.023738,0-.023738-.001979-.039566-.009892-.089022.031652-.090999.065283-.197828.087043-.302675.22948-.476761.29674-.049456.092979-.241348.047479-.322458.106826,0,.011869.005935.023739.013848.029675-.027696.013848-.322458.05737-.140455.08111-.039566.029675-.166174.019783-.207717-.017804-.013848-.007913-.013848-.019783-.037585-.005935.005935.013848-.013848.027696-.023738.029675-.017806.005935-.043521-.003956-.053414.011869-.136501.039566-.306633.049456-.425328.073195-.037585.015827-.09298-.015827-.12463.003956v.011869s-.013848.005935-.019783.001979v-.011869c-.170132.017804-.330371-.035608-.49259-.073195.00989.009892,0,.009892,0,.02176-.069239-.090999-.231459-.106826-.328393-.20574-.003958.005935-.00989.009892-.00989.013848-.122653-.142435-.274979-.265088-.332348-.445111-.073197-.215632-.120676-.498524-.144414-.739872.003958,0,.00989-.001979.013848-.003956-.033631-.482699.035608-.997047-.033631-1.446115.049456-.356089.098912-.763611.106828-1.101896.02176-.12661.051433-.282892.077152-.429285.011871-.269044.122653-.621177.207717-.910004.083087-.231457.207717-.520284.342241-.745807.003958.001979.00989,0,.015825.001979.007913-.090999.106828-.158261.134524-.225523.015825-.029675.063304-.098914.08111-.112762.185957-.28685.393674-.55985.700308-.741851.019783-.0455.089022-.061327.110783-.075174.019783.02176.114741-.089022.158261-.120674.013848,0,.033631-.011869.033631-.025717.290804-.116718.945614-.401589,1.056397.02176.003958-.001979.00989-.001979.00989-.003956.015825.063304.049456.142435.013848.20574-.031654.011869-.011871.085066-.037585.10287.085064.077152-.090999.235415-.049456.326414-.027696.041543-.079133.073195-.085064.112762-.005935.013848-.013848.031652,0,.039566-.005935.02176-.029673.015827-.043521.015827-.019783.041543-.033631.12661-.077152.14837-.00989.023739-.033631.007913-.043521.031652-.031654.023739-.047479.047479-.090999.061327,0,.005935,0,.011869.003958.015827-.003958.001979-.00989,0-.00989,0-.003958.003956-.003958.009892-.00989.011869-.051433.019783-.11276.132545-.114741.203761-.003958-.001979-.019783,0-.023738-.001979-.003958.055391-.033631.047479-.067262.079131-.003958-.001979,0-.003956-.003958-.005935-.00989.031652-.098912.077152-.063304.110783-.003958.019783-.019783.043523-.013848.071218.007913.007913-.023738.049456-.033631.061327-.067262-.075174-.023738.112762-.077152.094958,0,.017804.003958.035608-.003958.051435-.023738-.005935-.033631.035608-.033631.053414-.146391.383785-.52424,1.1652-.36796,1.509419.025718.069239.051433.178045-.013848.227501-.180022.791307-.294762,2.838816,1.052439,1.800225.005935.003956.00989.003956.013848.007913.530176-.449068.482697-1.238398.569742-1.857595.00989.001979.013848,0,.013848,0,.031654-.344218.083087-.737895.096935-1.054418,0-.033631.00989-.085066,0-.116718.185957-.757678.011871-2.172139.375872-3.014883-.00989-.007913-.003958-.009892-.003958-.017804.003958,0,.00989-.003956.013848-.003956.065285-.094958.168151-.182001.26509-.233436,0-.009892.00989-.013848.019783-.013848.003958.02176.037585-.007913.057368-.011869.427305-.292783.991112-.061327,1.173115.316523-.00989.033631-.055391-.003956-.059349.029675.061327.073195-.055391.253219.025718.346198-.094958.071218.047479.174088.013848.231457-.049456.005935-.061327.02176-.039566.071218.023738.009892.049456.154305-.003958.150349-.061327.059348.017806.191892-.023738.255196.089022.079131-.049456.114739-.003958.176065.051433.12661,0,.223544.003958.334327-.089022-.049456-.015825.041543-.023738.087043-.00989,0-.019783-.003956-.023738-.009892-.023738.02176-.013848.215632.027696.114739.053414.029675-.033631.055391-.047479.059348-.041543.510394-.055391,1.012874-.110783,1.570745-.017806.087043-.033631.310588-.023738.397633h0c-.037585.162218-.067262.472807-.047479.603373-.007913.104849-.106828.360045-.005935.393676,0,.015827-.013848.027696-.029673.027696-.035608.261132-.089022.512371-.003958.726024.005935.203761-.085064.207717-.013848.280915-.013848.003956-.019783,0-.033631,0-.005935.019783-.019783.100891.013848.10287,0,.011869-.047479.05737,0,.047479-.045502.19387.035608.100891-.00989.320479-.077152.267067.001977.544023-.049456.787351.017806.025717.013848.071218.019783.089022.718114-.425328,1.47579-.947591,2.247314-1.390724,0-.001979-.003958-.005935-.00989-.005935.472807-.360045,1.145419-.625133,1.572724-.967374.890223-.377849,1.859574-1.078157,2.807166-1.558877.132543-.071218.28685-.18398.439176-.233436,0-.001979-.003958-.005935-.003958-.009892.340264-.276958,1.869464-.874396,1.833856-1.171136-.547982-.247284-.451047-1.052439-.391697-1.505462.043521-.369937-.057368-.706243.053414-1.054418-.079133-.217609-.027696-.154305-.003958-.320479-.00989,0-.013848-.003956-.023738-.001979.065285-.225523.065285-.635025.063304-.824938-.003958-.379829.150349-1.038592-.391697-1.038592-.225523-.047479-.458959.156283-.640958.271023-.106828.053413-.053414.156283-.170132.187935-.003958.12661-.271021.334327-.328393.298719.148372.140457-.132543.18398-.134524.274979.013848.069239-.017806.174088-.053414.225523.027696.073195-.043521.003956-.049456.05737.015825.12661.00989.263111-.059349.367958.098912-.003956.047479.106826-.023738.090999.043521-.043523-.037585-.059348-.043521-.037587.025718.043523.005935.039566-.019783.071218-.059349.085066.189915.023739.057368.089022-.029673.05737.041543.10287-.073197.112762.037585.009892.077152,0,.096935.043523-.223546.017804-.096935.114739-.120676.255196.152326.132545.02176.195849-.013848.221567.037585.051435-.053414.031652-.073197.051435.015825.02176.037585.025717.037585.05737.041543.027696-.043521.011869-.063304,0-.003958.013848,0,.035608,0,.051435.003958,0,.003958.001979.00989.001979-.00989.029675-.027696.063304.00989.069239.011871.0455.053414.05737.09298.079131-.013848.017804-.013848.049456.003958.065283-.057368.023739.017806.098914-.019783.150349.114741.025717-.003958.08111-.063304.08111-.001977-.166174-.041543-.037587-.013848.027696,0,.003956-.077152.043523-.027696.053414-.031654.0455-.02176.071218.027696.106826-.00989.023739.019783.025717.013848.047479-.146391.013848-.037585.334327-.077152.466872-.025718.053414-.007913.067262.023738.085066-.069239.071218-.007913.073195.033631.025717,0,.003956.003958.005935.003958.009892,0,0,.005935-.003956.005935-.005935.00989,0,.015825,0,.023738.001979.02176.104849-.130566.069239-.057368.156284-.09298.05737.027696.100891.033631.16024-.09298-.011869-.106828.053414-.00989.043523.029673.039566.071216.087043-.003958.14837.003958.0455-.00989.10287-.043521.142435.033631.061327.10287.245305-.023738.055391,0,.112762.09298.187936.071216.300698-.087045-.009892-.003958.041543-.071216.071218-.075174.037587.007913.089022-.067262.085066-.08111.195849.027696.087043-.067262.187936-.00989,0-.013848.005935-.019783.009892.047479.154305-.065285.130566-.071216.191892q.003958,0,.00989-.001979c.017806.019783-.039566.033631-.049456.011869q-.003958,0-.00989.001979c-.290804.334327-1.173115.759655-1.422376.156284,0-.003956.003958-.013848,0-.017804-.110783-.37587.013848-.842742-.005935-1.202787.005935-.0455.017806-.092979.00989-.140457-.003958-.001979-.00989-.005935-.015825-.007913.035608-.031652.023738-.134522.019783-.182001.005935-.003956.005935-.005935.00989-.009892.027696-.387741.003958-.83483.067262-1.196854-.005935-.017804-.023738-.033631-.005935-.049456-.02176-.100891-.007913-.237392.00989-.328393.015825-1.64592,0-3.309645,2.089052-2.979274.324435.075174.617221-.223544.807136-.413459-.003958-.003956,0-.007913-.003958-.013848.484678-.565786,1.299722-1.198831,2.089052-.820982.063304.035609.10287.120674.158261.156283.073197-.112762.015825.017804.047479.057369.055391.049457.059349.10287.067262.172109.11276-.049457-.077152.051435.154303.278936-.00989.021761-.053414.005934-.073197.005934-.063304.142435.114741.241349.110783.259153-.027696.049457-.055391.144414.00989.172109.069239.01187-.059349.053413-.087045.037587-.049456.061327-.059349.203762-.019783.269045-.047479.203762-.003958.094957.087045.047479.003958.059349-.055391.1365-.019783.207718.029673,0,.00989.053413.047479.021761.013848.096935-.140455-.059349-.067262.085066.035608.055391-.027696.037587-.033631.065283.019783.017804.08111.015826.019783.037587.015825.067261,0,.162219.067262.221566-.011871.007913-.007913.027696-.013848.035608-.031654,0-.061327,0-.106828-.003956-.083087.20574.185957.132545-.00989.253219-.043521.065283.160239.14837.047479.128587-.11276-.025717-.096935.741851-.027696.815046.055391.039566.029673.104849-.037585.085066-.019783.025717.035608.02176.003958.059348-.027696.073195.11276.104849-.003958.12463.007913.027696.019783.029675,0,.061327-.039566.100891.130566.067262.085064.140457-.110783.027696.057368.140457,0,.207717-.041543-.164197-.033631.170132-.037585.221567-.108805-.0455-.017806.043523-.053414.106826.031654.071218.067262-.118697.077152-.001979.049456.075174-.104847.027696-.053414.08111.104847.011869-.152326.059348.063304.128587-.023738.138478-.096935-.120674-.063304.237392-.049456.053414.047479.019783.077152.043523.005935.011869-.067262.08111-.019783.075174-.045502.104849.120676.033631.087045.130566-.003958.067262-.132543.05737-.053414.106826-.003958.005935-.019783.007913-.025718.005935.003958.025717.049456.063304.067262.013848.023738-.007913.00989.027696.033631.029675.003958.017804,0,.035608,0,.049456-.055391.087043.077152.031652.033631.098914-.037585.071218.061327.015827.090999.051435.015825.031652.031654.110783.106828.116718v.015827c.168151.063304.391697-.043523.530176-.110783.126608-.031652.223546-.110783.342241-.152326,0,0,0-.009892.003958-.009892.011871-.007913.059349-.005935.057368-.025717.071216-.037587.166174-.073195.26509-.136501.003958.005935.013848.009892.019783.001979-.00989-.019783.039566-.019783.043521-.039566.144414-.065283.316523-.162218.458959-.249263,0,.001979.003958.003956.00989.007913.122653-.069239.259154-.150349.415435-.201784.3185-.156284.684483-.067262,1.01683-.029675-.013848-.011869-.029673-.013848-.023738-.035608.019783.001979.029673.025717.043521,0,.035608.019783.025718.087043.090999.075174,0-.015827-.019783-.013848-.019783-.027696.148372.05737.191892.237392.298717.350154-.00989.075174.087045.114739.029673.164197.045502.041543.065285.031652.047479.087043m-21.974618,2.326444c.013848.001979.023739-.005935.023739-.019783.114739-.025717.225523-.041543.348175-.0455.217609-.041543.393676-.164197.613264-.199805.007913-.041543-.033631-.001979-.047479-.007913-.003956-.043523.029675-.031652.063304-.033631v-.011869c.013848,0,.023739,0,.027696-.011869.075174.033631.075174-.031652.120674-.047479.055391-.059348.140457-.019783.191892-.065283-.009892-.009892-.023739-.007913-.023739-.02176.023739,0,.037587-.013848.043523-.031652h.003956c0,.041543.0455.041543.049456.003956-.037587-.051435.096935.007913.106826-.049456.199805-.073195.514351-.08111.607329.14837.069239.079131.098914.18398.12661.253219.003956.007913.009892.013848.019783.019783,0,.015827.031652.043523.033631.071218.003956-.001979.009892,0,.009892,0-.007913.027696-.015827.065283.009892.087043-.003956.065283-.067262.213653-.013848.241348-.003956.140457-.120674.199805-.158261.328393-.05737.027696-.098914.120674-.164197.154305-.16024.100891-.288827.247284-.453024.340262-.015827.043523-.073195.05737-.106826.089022,0,0,.003956.003956.003956.005935-.027696.005935-.033631.037587-.053414.041543-.053414.027696-.094958.087043-.154305.128587,0,.001979.005935.005935.003956.009892-.025717,0-.039566.013848-.053414.027696-.092979.156284-.267067.306631-.338283.482699-.055391.043523-.12661.176065-.067262.245305-.033631.033631-.142435.092979-.043523.130566-.089022.013848-.009892.12463-.12661.344218.015827.176065.065283.142435-.071218.225523.023739.005935.053414.043523.013848.05737-.005935.031652-.055391.085066-.013848.110783-.003956.033631-.009892.085066-.019783.116718,0-.001979-.003956-.003956-.009892-.005935-.009892.009892-.003956.025717.009892.02176,0,.007913-.003956.017804-.009892.023739.005935.005935.009892.009892.019783.009892-.049456.191892.011869.429285-.047479.581611,0,.019783-.005935.047479.013848.05737-.039566.164197-.019783.360045-.029675.528198-.017804.106826-.02176.364002-.019783.516328.053414,0-.003956.027696-.009892.043523.007913.065283.059348.168153-.003956.215632-.029675.231457-.011869.48072-.077152.70822-.168153.447089-.506436.724047-.915939.886265-.013848.005935-.029675.007913-.043523.007913-.116718.075174-.320479.083087-.443132.073195-.039566-.013848-.075174-.033631-.110783-.049456v-.029675s-.013848-.003956-.019783,0c-.013848,0-.027696-.019783-.043523-.025717-.369937-.470828-.132545-1.186962-.150349-1.725051h.005935c-.013848-.197828-.067262-.381806.027696-.573698.001979-.094958-.087043-.195849-.009892-.278936.005935-.051435-.017804-.134522.003956-.201784-.029675-.003956.015827-.043523-.003956-.055391.013848-.011869.009892-.035608.003956-.051435-.029675-.003956-.037587-.098914.003956-.10287.019783-.085066.085066-.164197.063304-.243327.003956-.041543-.011869-.12463.019783-.152326.015827-.468851.104849-1.026722.067262-1.479746.05737-.284871.009892-.609306.140457-.874396.05737-.510394.565786-.842742,1.038591-.965395-.003956,0-.003956.003956-.003956.003956.013848-.005935.043523-.011869.023739.011869m-2.542076,2.130596c-.182001.039566-.162218.25124-.037587.41148.033631.035608-.085066.166174.003956.235415-.223544.722068-.217609,1.788356-.371914,2.59549h-.013848c-.013848.326414-.106826.664699-.110783,1.002983.005935,0,.005935.001979.009892.001979-.025717.128587,0,.247284-.033631.373893.043523.041543.009892.118697.029675.168153.029675.041543-.029675.207717-.053414.267067.019783.217609-.073195.43522-.114739.648873.019783.079131.189913-.069239.100891.138478.003956.041543-.035608.027696-.053414.037587-.033631-.003956-.053414-.019783-.063304-.049456-.25124.28685-.99507.967374-1.45205.547982-.063304-.10287-.096935-.253219-.110783-.360045-.011869-.591502.0455-1.226527.063304-1.818029-.009892,0-.013848-.003956-.019783-.005935.077152-.243327.023739-.696351.096935-.828894.019783-.049456,0-.114739.013848-.166174h.003956c-.037587-.071218.02176-.209696-.009892-.282892.085066-.290806.019783-.660741.08111-.923852-.047479-.358066.083087-.830873.08111-1.194875.110783-.29674.203761-.735916.476763-.95946.033631-.061327.10287-.136501.178045-.14837-.009892-.001979-.013848-.009892-.019783-.015827.389718-.330371,1.119701-.601394,1.230483.110783-.071218.05737,0,.203761.092979.217609m.714155-4.025778c-.019783.019783-.025717.0455-.019783.071218.009892.001979.013848.005935.013848.013848-.0455.02176-.003956.053414.003956.069239h-.023739c-.015827.134522-.118697.195849-.154305.322458-.10287.130566-.096935.023739-.134522.164197-.013848.085066-.134522.063304-.150349.142435-.009892-.003956-.027696.007913-.013848.019783-.051435.015827-.079131.053414-.12661.085066-.023739.011869-.025717.051435-.067262.0455,0,.005935-.005935.005935-.005935.011869-.061327.037587-.120674.053414-.178045.116718-.037587.015827-.077152.035608-.100891.067262,0,.031652-.090999.005935-.073195.0455-.019783.003956-.033631.013848-.047479.019783-.003956.017804-.033631.013848-.029675.033631-.009892.005935-.023739.001979-.039566-.001979.005935-.001979.005935-.009892.009892-.011869-.077152.035608-.118697.092979-.207717.041543v-.011869c-.031652.015827-.059348.013848-.100891.003956-.009892-.023739-.043523.003956-.05737.007913-.003956-.007913-.015827-.015827-.019783-.019783.003956-.005935.013848-.013848.019783-.019783-.08111-.025717-.18398-.029675-.178045-.140457-.037587-.001979-.0455-.033631-.051435-.061327-.011869.011869-.011869.025717-.025717.009892-.003956-.003956,0-.02176-.003956-.025717-.025717-.104849-.053414-.207717-.037587-.284871.079131-.678547.858569-1.41644,1.529202-1.32742.019783.013848.033631.033631.063304.027696,0,.003956.003956.009892.003956.015827.073195.007913.090999.189913.12463.265088.061327.013848.013848.114739.073195.12463-.011869.061327.037587.116718.003956.174088m-4.362084,5.45211c.18398-.219588-.035608-.510394.090999-.76757,0-.037587-.003956-.104849.053414-.085066.053414-.013848.114739-.166174.033631-.170132.12463-.18398-.027696-.112762.067262-.273-.035608-.172109.065283-.367958.090999-.557871.077152-.290806.108805-.680524.231457-.949568-.005935-.017804-.041543-.035608.003956-.051435-.011869-.007913-.02176-.013848-.003956-.02176.005935-.130566.051435-.231457.077152-.358066,0-.003956.009892,0,.013848-.005935.015827-.118697.033631-.189913.077152-.304654.0455-.170132.05737-.407524.178045-.526219-.009892-.029675-.005935-.08111.033631-.089022.043523-.247284.185957-.425328.235415-.664699,0-.005935.005935-.007913.005935-.009892.003956-.219588.195849-.292783.25124-.472807.100891-.19387.019783-.369937.083087-.575677.007913-.326414.120674-.593481.25124-.910004.035608-.278936.152326-.528198.280915-.75372-.136501-.134522.059348-.350154.100891-.496546-.047479-.092979.073195-.191892.039566-.255196.0455-.18398.083087-.419393.197828-.635025,0-.067262.085066-.164197.047479-.207718.035608-.055391.053414-.100892.087043-.158261.02176-.168153.065283-.367958.174088-.484676.02176-.015826.009892-.055391.029675-.069239-.019783-.089022.061327-.041543.047479-.203762.037587-.041543.019783-.120674.067262-.16024.003956-.003956.003956-.007913,0-.01187.011869-.116718.096935-.219588.120674-.328393.029675-.085066.158261-.183979.12463-.278936.069239-.0455.059348-.146392.114739-.201783.017804-.015826.02176-.041543.037587-.055391.023739-.079131.003956-.176066.013848-.237392.059348-.183979.168153-.367958.221567-.540067.029675.005934.009892-.035609.029675-.0455-.005935-.021761,0-.031652.009892-.0455.063304-.083087.053414-.14837.100891-.219588v-.025718c.10287-.146392.136501-.375871.25124-.528198-.003956-.001978-.003956-.005934-.009892-.009892.071218-.152327.128587-.306632.213653-.458958,0-.007913,0-.019783.003956-.021761.094958-.156283.132545-.395654.298719-.500502.003956-.023739-.009892-.128588.037587-.106826,0-.037587.019783-.061327.053414-.079131-.037587-.025718.013848-.055391.039566-.071217-.005935-.001978-.005935-.003956-.009892-.007913.172109-.249262.364002-.557872.58359-.779438.011869-.081109.138478-.138479.162218-.20574.005935-.003956.009892-.005934.009892-.007913.019783-.015826.039566-.037587.043523-.063305.085066.01187.12463-.063305.130566-.134522.077152-.053413.009892.049457.033631.053413.063304.013848.087043-.089022.067262-.140457.033631-.007913.033631-.023739.037587-.051435.033631-.005934-.013848.081109.053414.025718-.009892-.043522.017804-.063305.067262-.079131.005935,0,.019783.007913.025717.009892-.007913.01187.009892.017804.019783.009892,0-.001978,0-.009892.003956-.013848,0,0,.009892-.005934.009892-.007913.037587-.017804.019783-.073196.047479-.10287.039566.035609.007913-.041543.037587-.031652.017804-.073196-.019783-.221566.096935-.182001-.047479-.055391.027696-.075174.033631-.130566.023739-.003956.035608-.041543.049456-.061327,0-.003956.003956-.009892.003956-.013848.063304-.049457.069239-.14837.130566-.189914.053414-.132544.089022-.280915.120674-.42335-.029675-.128588.009892-.373893-.063304-.538089-.195849-1.010896-1.711203-1.331376-2.310619-.482698-.023739.009892-.047479.027696-.05737.051435-.003956.001978-.009892.003957-.019783.003957-.100891.152327-.294762.310588-.342241.51435-1.192896,2.577686-2.114771,5.430349-3.030708,8.10497-.637002,2.318532-1.365005,4.76565-1.808137,7.175183-.391697,1.818029-.666677,3.691451-.911983,5.531241-.009892,0-.013848.009892-.023739.009892-.009892.019783-.009892.047479-.009892.069239-.025717.061327-.085066.104849-.067262.007913-.033631-.039566-.029675-.043523-.08111-.019783-.08111-.136501.085066-.451045-.12463-.476763.087043-.20574-.071218-.470828-.029675-.674589.027696-.35411.049456-.28685-.087043-.553915.067262.011869.007913-.05737,0-.007913-.08111.023739-.011869-.154305.033631-.168153-.019783-.023739-.051435.019783-.077152.015827-.090999.085066-.02176-.466872.029675-.476763.087043-.132545-.075174-.316523-.077152-.401589-.112762-.243327-.049456-.553915-.18398-.797242.043523-.049456-.043523-.142435-.019783-.176065.027696,0,.077152-.011869.063304-.053414-.142435-.19387-.059348-.292783-.207717-.710199-.164197-.120674.043523-.219588-.090999-.249263-.120674-.0455.019783-.33235-.08111-.362023-.059348-.369937-.094958-.609306-.154305-.933743-.023739-.019783.007913-.067262-.013848-.05737-.009892-.023739,0-.019783.019783-.025717-.094958-.085066.059348-.100891.003956-.158261,0-.118697-.05737-.172109-.003956-.233436-.085066-.0455-.120674-.071218-.053414-.174088-.02176-.033631-.089022-.134522-.003956-.140457,0-.05737-.092979.037587-.087043-.037587.090999-.035608-.075174-.120674.025717-.140457-.14837-.352133-.152326-.809113-.231457-1.218614-.069239-.261132-.079131-.611285-.154305-.888244,0-.712176-.549959-1.503485-1.321484-1.159267h.003956c-.504459.18398-.589525.828894-.747786,1.222571-.310588.896156-.555894,1.792312-.882308,2.678577-.079131.401589-.302675.908025-.419393,1.248287-.027696.037587-.073196.049456-.027696.110783-.087044.25124-.207718.591502-.33235.868461.009892,0,.013848.003956.023739.001979-.043522.150349-.091.302675-.16024.43522-.314545.638981-.451046,1.796269.609307,1.596464.221567.015827.389718-.274979.540067-.300698-.063304-.104849.077152-.219588.077152-.316523.08111-.118697.090999-.324435.203761-.421372.055391-.10287.035608-.263111.150349-.346198.14837-.02176-.087043-.037587.019783-.114739.019783-.090999.049456-.059348.043523-.090999-.013848-.013848.005935-.02176.009892-.02176.015827-.011869-.023739-.023739-.003956-.0455.011869-.007913.019783-.033631.023739-.037587.009892-.003956.025717-.005935.019783-.017804-.031652-.033631.071218-.067262.047479-.106826-.031652-.059348-.009892-.087043.029675-.128587.049456-.023739-.118697.007913-.009892-.073195.077152.100891.015827-.122653.096935-.182001-.049456-.013848-.037587-.114739.013848-.106826-.033631-.073195.063304-.092979.067262-.144414-.061327-.053414.023739-.110783.019783-.174088.013848,0,.009892-.011869.013848-.019783.023739-.017804.063304-.019783.05737-.053414-.005935-.011869-.051435,0-.033631-.017804.017804-.013848,0-.041543.023739-.039566.037587-.003956-.013848-.059348.05737-.055391.059348-.035608-.005935-.055391-.003956-.094958.041543-.035608.029675.083087.047479-.128587-.011869.047479-.023739-.007913-.029675-.035608-.023739-.051435.02176-.035608.039566-.013848.023739-.015827.067262-.061327.090999-.009892.05737-.005935-.02176-.029675-.015827-.037587.019783-.013848-.001979-.013848-.019783-.017804-.003956.005935,0,.013848-.003956.017804-.015827-.017804.009892-.037587.003956-.059348,0-.007913.003956-.007913.009892-.011869-.009892-.009892-.003956-.027696-.003956-.039566.025717-.005935.075174.065283.077152.005935.033631-.009892.011869-.033631.019783-.049456.003956-.001979.025717,0,.023739-.013848.009892-.009892.013848-.019783,0-.029675.009892-.007913.013848-.025717,0-.029675-.003956-.007913.005935-.005935.009892-.009892,0-.003956.003956-.009892.003956-.013848.005935-.005935.015827-.017804.025717-.015827.009892-.017804.015827-.023739.013848-.041543,0-.003956.003956-.005935.009892-.009892-.007913-.043523.033631-.067262.023739-.114739.011869-.007913,0-.017804.003956-.025717.065283-.071218.118697.005935.19387.009892.035608.041543.049456.098914.100891.087043-.011869.025717-.063304.14837-.029675.168153.041543.075174.033631-.047479.092979-.031652.067262.011869.051435.065283,0,.079131.033631.051435-.017804.100891-.003956.116718.039566.015827.055391.031652.027696.065283-.027696.005935-.0455.015827-.027696.043523.041543.015827-.051435.122653.037587.140457.011869.055391-.047479.108805.003956.166174.087043.090999.182001.19387.100891.346198.009892.015827.029675-.023739.037587-.027696.039566.304654.112762.638981.136501.935721.071218.259152.08111.565786.090999.797242.009892.017804-.013848.017804-.013848.033631.029675.003956.009892.096935.049456.075174.049456.136501.075174.330371.073195.476763.104849.488632.16024,1.038591.237392,1.521289.085066.587546.176065,1.103874.241348,1.634051h.019783v.013848c.001979.241348.063304.53809.110783.773503.025717.114739.005935.267067.05737.358066.003956.017804,0,.037587,0,.055391.019783.075174.0455.180022.043523.263111.049456.085066-.065283.223544-.029675.320479.087043.023739.134522.130566.110783.201784-.027696.073197-.092979.073197-.096935.12463.013848,0,.019783-.00989.023739-.019783.182001-.033631.116718.280915.174088.39961.003956.035608.011869.075174.003956.110783-.033631.043521.089022.229478.067262.346196-.059348.12463.073195.211676.053414.362024.003956.003958.013848.019783.013848.017806.069239.395655.104849.739874.197828,1.155309.003956.035608.015827.148372.029675.189915.005935.053414-.005935.083087.025717.130566,0,.001977.003956,0,.009892.003958-.003956.104847.041543.170132.047479.267067.065283.274979.100891.587548.217609.854611.039566.025718.069239.073197.087043.110783.003956.001977.013848.001977.013848.007913.02176.045502.071218.073197.116718.087045.009892.017806.019783.025718.033631.043521.217609.12463.484676.067262.704264.005935v-.005935c.035608-.045502.213653-.118695.280915-.213653.005935-.013848.015827-.043521.029675-.053414.003956-.003958.009892-.011871.009892-.015825.02176-.015825.023739-.045502.039566-.063304.114739-.211676.120674-.476761.207717-.682502.02176-.41148.130566-.975287.201784-1.408528-.005935-.160239.043523-.350154.063304-.512373.017804-.110783.019783-.261132.047479-.362024.005935-.039566.011869-.08111.009892-.118695.013848-.146391.037587-.371914.071218-.561829v.003958c.001979-.12463.053414-.302675.043523-.417416.031652-.08111.015827-.174088.033631-.261132.003956-.003956.009892-.001979.013848-.003956.015827-.338285.083087-.773503.136501-1.095961.003956-.174088.031652-.387741.104849-.546002.037587-.055391.055391-.156284.037587-.235415-.029675-.003956.015827-.019783.009892-.035608,0-.005935.003956-.007913.003956-.013848-.009892-.003956.019783-.029675.029675-.019783-.027696.033631.051435,0,.043523.017804.005935.005935.023739-.009892.029675-.013848,0-.003956.003956-.011869.003956-.017804.085066-.134522-.067262-.130566-.087043-.233436,0-.233436.092979-.514351.073195-.74383,0-.071218.047479-.083087.047479-.132545.005935,0,.005935-.001979.005935-.001979.009892-.02176.02176-.049456.033631-.077152,0-.001979.009892,0,.009892,0,.003956-.003956.003956-.007913.003956-.009892.096935-.037587.085066-.158261.092979-.249263,0-.003956.009892,0,.009892-.001979.005935-.003956,0-.005935.005935-.011869.069239-.029675.031652-.172109.067262-.243327-.009892-.043523-.047479-.077152-.009892-.122653,0-.031652-.015827-.051435-.019783-.085066-.16024.067262-.079131-.259152-.067262-.360045.005935-.005935,0-.015827.005935-.023739.001979-.013848.005935-.035608.003956-.051435.013848-.033631.059348-.079131.033631-.118697.043523-.090999.055391-.482699.12463-.447089.017804-.015827-.075174-.037587-.017804-.067262.017804-.063304-.061327-.164197.027696-.203761.005935-.013848.017804-.025717.033631-.023739.077152-.073195-.017804-.185957.019783-.255196.039566-.089022.001979-.132545.023739-.201784-.027696-.164197.122653-.328393.120674-.506436-.049456-.023739-.015827-.106826-.013848-.158261.005935-.003956.009892-.005935.009892-.009892.003956-.001979.003956-.007913.003956-.009892.011869-.003956.023739-.009892.003956-.017804,0-.013848.013848-.003956.023739-.003956.013848-.005935.007913-.013848.009892-.017804,0-.011869.009892-.007913.015827-.015827"/><path class="b" d="m72.558894,34.659283c-.567761-.033631-1.952551-.049456-2.375902-.049456-4.876435,0-6.437292.599415-6.437292,3.535169,0,.888242.365983,1.598443,1.09794,2.126641.682505.488632,1.548987.72998,2.597467.72998,1.867487,0,3.285904-.615243,4.257237-1.849681.674589-.854611.862527-2.02179.862527-3.49758v-.99507h0l-.001977-.000004Zm.025718,5.056456c-1.095963,1.833856-2.927838,2.488662-5.028761,2.488662-1.256198,0-2.364031-.003958-3.43823-.726026-1.02672-.690418-1.837814-2.003988-1.837814-3.236448,0-4.326476,2.763641-4.838849,7.756798-4.838849.403564,0,2.478768-.003958,2.478768-.003958-.007916-.791307-.045498-1.099917-.114737-1.450071-.320477-1.636028-1.566789-2.761664-3.436253-2.761664-1.175096,0-3.731019.189913-5.171193.997047l-.342241-1.149375c1.744834-1.060353,4.031717-1.214658,5.402652-1.214658,2.21566,0,3.76267.953527,4.425388,2.54999.312568.75372.476765,1.960464.490613,3.62221l.033627,3.723103c.015825,1.881335,0,4.294822,0,4.294822h-1.226525l.007916-2.294792-.000008.000008Z"/><path class="b" d="m129.869365,34.659283c-.567768-.033631-1.952551-.049456-2.375895-.049456-4.876435,0-6.437292.599415-6.437292,3.535169,0,.888242.365983,1.598443,1.09794,2.126641.682505.488632,1.548987.72998,2.597467.72998,1.867487,0,3.285912-.615243,4.257237-1.849681.672604-.854611.86252-2.02179.86252-3.49758v-.99507h0l-.001977-.000004Zm.023741,5.056456c-1.095963,1.833856-2.927846,2.488662-5.028761,2.488662-1.256198,0-2.364031-.003958-3.43823-.726026-1.026724-.690418-1.839791-2.003988-1.839791-3.236448,0-4.326476,2.763641-4.838849,7.75679-4.838849.405549,0,2.478768-.003958,2.478768-.003958-.007909-.791307-.045505-1.099917-.114737-1.450071-.320485-1.636028-1.566789-2.761664-3.436253-2.761664-1.175096,0-3.729035.189913-5.171193.997047l-.342241-1.149375c1.744834-1.060353,4.03171-1.214658,5.402652-1.214658,2.215667,0,3.76267.953527,4.425388,2.54999.312561.75372.476758,1.960464.490613,3.62221l.033627,3.723103c.015833,1.881335,0,4.294822,0,4.294822h-1.226533l.007909-2.294792h0l.001992.000008Z"/><path class="b" d="m152.308866,34.659283c-.567768-.033631-1.952551-.049456-2.375895-.049456-4.876427,0-6.437285.599415-6.437285,3.535169,0,.888242.365975,1.598443,1.09794,2.126641.682505.488632,1.548979.72998,2.597475.72998,1.867487,0,3.285912-.615243,4.259214-1.849681.672604-.854611.860542-2.02179.860542-3.49758v-.99507l-.001992-.000004Zm.025718,5.056456c-1.095963,1.833856-2.927846,2.488662-5.028761,2.488662-1.256205,0-2.364031-.003958-3.43823-.726026-1.026716-.690418-1.839791-2.003988-1.839791-3.236448,0-4.326476,2.763649-4.838849,7.75679-4.838849.403572,0,2.478768-.003958,2.478768-.003958-.007909-.791307-.045505-1.099917-.114737-1.450071-.320485-1.636028-1.566789-2.761664-3.436253-2.761664-1.175096,0-3.729042.189913-5.171193.997047l-.342234-1.149375c1.744841-1.060353,4.031717-1.214658,5.40266-1.214658,2.215667,0,3.76267.953527,4.425388,2.54999.312561.75372.476758,1.960464.490613,3.62221l.033627,3.723103c.015833,1.881335,0,4.294822,0,4.294822h-1.226533l.007909-2.294792h0l.001977.000008Z"/><path class="b" d="m82.149544,40.918527c1.256198,0,2.304686-.36796,3.731019-1.932768.783395-.858569,1.234441-2.516358,1.218616-4.275039v-6.716226h1.357095v13.841951h-1.295764l-.015825-2.735946c-1.068267,2.061356-2.993123,2.929819-5.200874,2.929819-2.354138,0-4.401647-1.103876-5.010959-3.311623-.20574-.761634-.453024-2.055421-.458955-3.883342v-6.840856h1.311589l.045498,6.840856s.045498,2.862557.413458,3.596496c.36796.735916,1.141461,2.484708,3.905102,2.484708"/><path class="b" d="m101.16467,29.088476l-.743828,1.078157c-1.343247-.886265-2.457012-1.198831-3.643971-1.198831-2.148398,0-3.699362.836809-3.628146,2.587576.035612.860546.294759,1.511398,2.3581,2.158291l2.213683.640958c3.036643,1.062332,3.932798,2.140489,3.932798,4.176127,0,1.361049-.668658,2.41151-2.005965,3.155339-1.056397.587548-2.124664.710197-3.851688.563807-1.361049-.114741-3.452078-.935721-4.674649-1.845727l.692391-1.080134c1.366988.862527,2.712204,1.598443,3.940714,1.699332,1.485679.120676,2.366009-.047479,3.08808-.429283.854611-.453024,1.279939-1.242354,1.279939-2.039596,0-1.030678-.726026-2.057402-2.383818-2.753752l-2.937731-.757676c-2.480753-1.040568-2.971359-1.89716-3.006971-3.436253-.025718-1.090026.575677-2.164227,1.65383-3.020818.815045-.646893,2.073227-.862525,3.428344-.862525,1.171134,0,3.141495.599417,4.292841,1.366984"/><polygon class="b" points="108.703857 28.00834 105.611822 28.00834 105.611822 24.591868 104.31605 24.591868 104.31605 42.03427 105.611822 42.03427 105.611822 29.304106 108.703857 29.304106 108.703857 28.00834"/><path class="b" d="m112.85822,31.72551v-3.711234h-1.438204v14.019998h1.438204v-7.782512c.619198-1.820008,2.219622-4.925891,5.962504-4.925891v-1.31357s-3.51934-.520286-5.962504,3.711233"/><rect class="b" x="133.782376" y="24.546368" width="1.457984" height="17.487905"/><rect class="b" x="137.905089" y="27.992513" width="1.457984" height="14.039779"/><rect class="b" x="137.905089" y="24.536477" width="1.457984" height="1.671638"/></svg>