<svg width="112" height="42" viewBox="0 0 112 42" fill="none" xmlns="http://www.w3.org/2000/svg">
<path d="M107.77 11.4423L107.672 11.714L103.629 23.2475L103.518 22.9588L99.1294 11.438H95.2049L101.858 27.4516L104.229 29.8721C104.569 29.3073 104.905 28.6151 105.225 27.7913L111.567 11.4338H107.762L107.77 11.4423Z" fill="#E10A0A"/>
<path d="M111.575 11.4422L102.777 34.2246H99.3635L101.862 27.4557L103.522 22.9629L107.672 11.714L107.774 11.4422H111.575Z" fill="#E10A0A"/>
<path d="M16.7408 33.7831H15.7703V33.1928H16.7408V32.5388C16.7408 31.7702 16.9366 31.1927 17.3324 30.7978C17.6815 30.4496 18.1497 30.2755 18.7371 30.2755C18.9371 30.2755 19.1159 30.2882 19.2734 30.3137C19.4309 30.3391 19.5841 30.3774 19.7331 30.4326V31.0356C19.5415 30.9761 19.3713 30.9294 19.2223 30.9039C19.0733 30.8785 18.9116 30.8657 18.7371 30.8657C17.8347 30.8657 17.3878 31.4305 17.3878 32.5558V33.197H19.7246V33.7873H17.3878V39.8725H16.745V33.7873L16.7408 33.7831Z" fill="#414042"/>
<path d="M20.5716 33.1971H21.2144V35.0953C21.3463 34.798 21.5123 34.522 21.7124 34.2714C21.9124 34.0166 22.1423 33.8043 22.3934 33.6217C22.6488 33.4434 22.9255 33.3075 23.2277 33.2141C23.5299 33.1249 23.8449 33.0824 24.1769 33.0909V33.7958H24.113C23.7299 33.7958 23.3596 33.868 23.0106 34.0124C22.6616 34.1568 22.3508 34.3691 22.0869 34.6536C21.8188 34.9381 21.6102 35.2863 21.4485 35.6983C21.291 36.1144 21.2144 36.59 21.2144 37.1336V39.8683H20.5716V33.1971V33.1971Z" fill="#414042"/>
<path d="M30.0551 36.2163C30.0295 35.8765 29.9614 35.5496 29.8508 35.2438C29.7401 34.9381 29.5869 34.6578 29.3911 34.42C29.1953 34.178 28.9526 33.9869 28.6632 33.8425C28.3738 33.6981 28.0375 33.6259 27.6544 33.6259C27.3224 33.6259 27.0117 33.6896 26.7222 33.8212C26.4328 33.9529 26.1817 34.1312 25.9688 34.3648C25.756 34.5941 25.5772 34.8701 25.4368 35.1886C25.2963 35.5071 25.2154 35.8511 25.1856 36.2163H30.0508H30.0551ZM27.7864 40.0254C27.3479 40.0254 26.9308 39.9404 26.535 39.7748C26.1348 39.6092 25.7858 39.3757 25.4836 39.0699C25.1814 38.7642 24.943 38.399 24.7685 37.9701C24.594 37.5412 24.5046 37.0656 24.5046 36.5432V36.5178C24.5046 36.0379 24.5855 35.5878 24.7472 35.1631C24.909 34.7385 25.1303 34.3733 25.4155 34.059C25.7007 33.7448 26.0327 33.4943 26.4158 33.3117C26.7989 33.1291 27.2202 33.0356 27.6714 33.0356C28.1226 33.0356 28.5653 33.1248 28.9399 33.3032C29.3144 33.4815 29.6337 33.7278 29.9018 34.0421C30.1657 34.3563 30.3743 34.7257 30.519 35.1462C30.6637 35.5708 30.7361 36.0294 30.7361 36.5263V36.6621C30.7361 36.6919 30.7319 36.7343 30.7233 36.7853H25.1899C25.2154 37.2015 25.3091 37.5709 25.4666 37.8936C25.6241 38.2164 25.8199 38.4881 26.0582 38.7132C26.2923 38.9383 26.5647 39.1081 26.867 39.227C27.1692 39.3459 27.4842 39.4011 27.8162 39.4011C28.3397 39.4011 28.7866 39.2992 29.1484 39.0996C29.5102 38.9001 29.8337 38.6495 30.1104 38.3523L30.5573 38.7429C30.2168 39.1081 29.8295 39.4139 29.3953 39.6517C28.9612 39.8895 28.4248 40.0126 27.7906 40.0126" fill="#414042"/>
<path d="M34.9798 39.4097C35.3289 39.4097 35.6694 39.3417 35.9971 39.2016C36.3249 39.0614 36.6186 38.8661 36.8697 38.6113C37.1251 38.3608 37.3294 38.0593 37.4827 37.7111C37.6359 37.3628 37.7125 36.9722 37.7125 36.5475V36.522C37.7125 36.0931 37.6359 35.7067 37.4827 35.35C37.3294 34.9933 37.1251 34.696 36.8697 34.4455C36.6143 34.195 36.3249 34.0039 35.9971 33.8637C35.6694 33.7236 35.3289 33.6556 34.9798 33.6556C34.6095 33.6556 34.269 33.7193 33.9455 33.851C33.6263 33.9826 33.3453 34.1695 33.1112 34.4158C32.8729 34.6621 32.6898 34.9593 32.5536 35.3118C32.4174 35.6642 32.3493 36.0634 32.3493 36.5093V36.5348C32.3493 36.9722 32.4174 37.3671 32.5579 37.7238C32.6984 38.0805 32.8899 38.3862 33.1283 38.6325C33.3709 38.8788 33.6476 39.0742 33.971 39.2101C34.2903 39.346 34.6265 39.4139 34.9756 39.4139M37.6699 38.382C37.521 38.5986 37.355 38.8109 37.1804 39.0105C37.0017 39.2101 36.8016 39.3842 36.576 39.5328C36.3547 39.6814 36.1036 39.8003 35.8269 39.8938C35.5502 39.9872 35.248 40.0296 34.916 40.0296C34.5116 40.0296 34.12 39.9532 33.7284 39.7961C33.3411 39.639 32.9921 39.4139 32.6856 39.1166C32.3791 38.8194 32.1322 38.4542 31.945 38.0253C31.7577 37.5922 31.664 37.108 31.664 36.5645V36.539C31.664 35.9997 31.7577 35.5114 31.945 35.0825C32.1322 34.6493 32.3791 34.2841 32.6856 33.9826C32.9921 33.6811 33.3411 33.4518 33.7284 33.2905C34.1158 33.1291 34.5116 33.0484 34.916 33.0484C35.248 33.0484 35.5545 33.0909 35.8354 33.18C36.1163 33.265 36.3675 33.3839 36.5888 33.5325C36.8101 33.6811 37.0144 33.851 37.1932 34.0421C37.372 34.2332 37.5337 34.437 37.6699 34.6451V33.2055H38.3127V41.9703H37.6699V38.3862V38.382Z" fill="#414042"/>
<path d="M42.7777 40.0254C42.3563 40.0254 41.9818 39.9574 41.6498 39.8215C41.3178 39.6857 41.0368 39.4988 40.8027 39.2525C40.5686 39.0062 40.3941 38.7175 40.2792 38.382C40.16 38.0465 40.1004 37.6771 40.1004 37.2779V33.197H40.7431V37.1632C40.7431 37.8512 40.9262 38.4032 41.2922 38.8194C41.6583 39.2355 42.1861 39.4394 42.8671 39.4394C43.1906 39.4394 43.4928 39.3799 43.778 39.261C44.0632 39.1421 44.3101 38.9807 44.5186 38.7727C44.7272 38.5646 44.8932 38.314 45.0124 38.021C45.1316 37.728 45.1912 37.4095 45.1912 37.0613V33.2013H45.8339V39.8725H45.1912V38.6283C44.9613 39.019 44.6591 39.3502 44.2718 39.622C43.8887 39.8937 43.3907 40.0254 42.7777 40.0254Z" fill="#414042"/>
<path d="M52.8358 36.2163C52.8103 35.8765 52.7422 35.5496 52.6315 35.2438C52.5208 34.9381 52.3676 34.6578 52.1718 34.42C51.976 34.178 51.7334 33.9869 51.4439 33.8425C51.1545 33.6981 50.8182 33.6259 50.4352 33.6259C50.1032 33.6259 49.7924 33.6896 49.503 33.8212C49.2135 33.9529 48.9624 34.1312 48.7496 34.3648C48.5368 34.5941 48.358 34.8701 48.2175 35.1886C48.0771 35.5071 47.9962 35.8511 47.9664 36.2163H52.8316H52.8358ZM50.5671 40.0254C50.1287 40.0254 49.7116 39.9404 49.3157 39.7748C48.9156 39.6092 48.5666 39.3757 48.2686 39.0699C47.9664 38.7642 47.728 38.399 47.5535 37.9701C47.379 37.5412 47.2896 37.0656 47.2896 36.5432V36.5178C47.2896 36.0379 47.3705 35.5878 47.5322 35.1631C47.694 34.7385 47.9153 34.3733 48.2005 34.059C48.4857 33.7448 48.8177 33.4943 49.2008 33.3117C49.5839 33.1291 50.0053 33.0356 50.4564 33.0356C50.9076 33.0356 51.3503 33.1248 51.7249 33.3032C52.0994 33.4815 52.4187 33.7278 52.6868 34.0421C52.9507 34.3563 53.1593 34.7257 53.304 35.1462C53.4488 35.5708 53.5211 36.0294 53.5211 36.5263V36.6621C53.5211 36.6919 53.5169 36.7343 53.5083 36.7853H47.9749C48.0004 37.2015 48.0941 37.5709 48.2516 37.8936C48.4091 38.2164 48.6049 38.4881 48.8432 38.7132C49.0773 38.9383 49.3498 39.1081 49.652 39.227C49.9542 39.3459 50.2692 39.4011 50.6012 39.4011C51.1247 39.4011 51.5716 39.2992 51.9334 39.0996C52.2952 38.9001 52.6187 38.6495 52.8954 38.3523L53.3423 38.7429C53.0018 39.1081 52.6145 39.4139 52.1803 39.6517C51.7462 39.8895 51.2098 40.0126 50.5756 40.0126" fill="#414042"/>
<path d="M54.8832 33.1971H55.5259V34.4413C55.7515 34.0506 56.058 33.7151 56.4453 33.4476C56.8284 33.1758 57.3264 33.0442 57.9393 33.0442C58.3607 33.0442 58.7353 33.1121 59.0673 33.248C59.3993 33.3839 59.6802 33.5708 59.9143 33.8171C60.1442 34.0633 60.323 34.3521 60.4379 34.6876C60.5571 35.0231 60.6167 35.3925 60.6167 35.7917V39.8726H59.9739V35.9063C59.9739 35.2184 59.7909 34.6664 59.4249 34.2502C59.0588 33.834 58.531 33.6302 57.85 33.6302C57.5179 33.6302 57.2115 33.6897 56.9305 33.8086C56.6496 33.9275 56.407 34.0888 56.1942 34.2969C55.9856 34.505 55.8196 34.7555 55.7047 35.0485C55.5855 35.3415 55.5259 35.66 55.5259 36.0125V39.8726H54.8832V33.2013V33.1971Z" fill="#414042"/>
<path d="M64.6263 39.9872C64.3624 39.9872 64.1198 39.9532 63.8899 39.881C63.6601 39.8088 63.4643 39.6984 63.294 39.5456C63.1237 39.3927 62.9918 39.2016 62.8939 38.968C62.796 38.7387 62.7492 38.4627 62.7492 38.1485V33.7788H61.7787V33.1886H62.7492V31.0568H63.3919V33.1886H65.7372V33.7788H63.3919V38.072C63.3919 38.5519 63.5153 38.8874 63.7665 39.0785C64.0176 39.2695 64.3368 39.3672 64.7284 39.3672C64.8944 39.3672 65.0519 39.3502 65.2009 39.3163C65.3499 39.2823 65.5201 39.2271 65.7117 39.1422V39.7452C65.5372 39.8216 65.3627 39.881 65.1924 39.9193C65.0221 39.9575 64.8306 39.9787 64.622 39.9787" fill="#414042"/>
<path d="M75.3654 30.3179H76.0081V39.8683H75.3654V30.3179ZM70.9174 33.7873H69.9469V33.1971H70.9174V32.5431C70.9174 31.7745 71.1132 31.197 71.509 30.802C71.8581 30.4538 72.3263 30.2797 72.9137 30.2797C73.1137 30.2797 73.2925 30.2925 73.45 30.3179C73.6075 30.3434 73.7607 30.3816 73.9097 30.4368V31.0398C73.7181 30.9804 73.5479 30.9337 73.3989 30.9082C73.2499 30.8827 73.0882 30.87 72.9137 30.87C72.0113 30.87 71.5644 31.4348 71.5644 32.5601V33.2013H73.8969V33.7916H71.5644V39.8768H70.9216V33.7916L70.9174 33.7873Z" fill="#414042"/>
<path d="M83.2484 33.197H83.955L81.0563 40.1061C80.7584 40.8025 80.4349 41.2951 80.0774 41.5796C79.7241 41.8641 79.3069 42.0042 78.8259 42.0042C78.5706 42.0042 78.345 41.9788 78.1449 41.9321C77.9449 41.8811 77.7278 41.8089 77.5022 41.7112L77.7235 41.1422C77.898 41.2271 78.0683 41.2951 78.2343 41.3333C78.4003 41.3715 78.6089 41.3928 78.8643 41.3928C79.0388 41.3928 79.2005 41.3673 79.3495 41.3163C79.4985 41.2654 79.6389 41.1762 79.7709 41.0488C79.9028 40.9214 80.0305 40.76 80.1497 40.5604C80.2732 40.3609 80.3966 40.1146 80.5158 39.83L77.3021 33.2055H78.0513L80.8307 39.1718L83.2442 33.2055L83.2484 33.197Z" fill="#414042"/>
<path d="M89.8971 36.2163C89.8715 35.8765 89.8034 35.5496 89.6928 35.2438C89.5821 34.9381 89.4289 34.6578 89.2331 34.42C89.0373 34.178 88.7946 33.9869 88.5052 33.8425C88.2158 33.6981 87.8795 33.6259 87.4964 33.6259C87.1644 33.6259 86.8537 33.6896 86.5642 33.8212C86.2748 33.9529 86.0237 34.1312 85.8108 34.3648C85.598 34.5941 85.4192 34.8701 85.2788 35.1886C85.1383 35.5071 85.0574 35.8511 85.0276 36.2163H89.8928H89.8971ZM87.6284 40.0254C87.1899 40.0254 86.7728 39.9404 86.3769 39.7748C85.9811 39.6092 85.6278 39.3757 85.3299 39.0699C85.0276 38.7642 84.7893 38.399 84.6148 37.9701C84.4402 37.5412 84.3509 37.0656 84.3509 36.5432V36.5178C84.3509 36.0379 84.4317 35.5878 84.5935 35.1631C84.7552 34.7385 84.9766 34.3733 85.2617 34.059C85.5469 33.7448 85.8789 33.4943 86.262 33.3117C86.6451 33.1291 87.0665 33.0356 87.5177 33.0356C87.9689 33.0356 88.4116 33.1248 88.7861 33.3032C89.1607 33.4815 89.4842 33.7278 89.7481 34.0421C90.012 34.3563 90.2206 34.7257 90.361 35.1462C90.5057 35.5708 90.5781 36.0294 90.5781 36.5263V36.6621C90.5781 36.6919 90.5739 36.7343 90.5653 36.7853H85.0319C85.0574 37.2015 85.1511 37.5709 85.3086 37.8936C85.4661 38.2164 85.6619 38.4881 85.9002 38.7132C86.1343 38.9383 86.4067 39.1081 86.7047 39.227C87.0069 39.3459 87.3219 39.4011 87.6539 39.4011C88.1774 39.4011 88.6201 39.2992 88.9862 39.0996C89.348 38.9001 89.6715 38.6495 89.9524 38.3523L90.3993 38.7429C90.0588 39.1081 89.6715 39.4139 89.2373 39.6517C88.8031 39.8895 88.2711 40.0126 87.6326 40.0126" fill="#414042"/>
<path d="M91.9445 33.1971H92.5872V35.0953C92.7191 34.798 92.8851 34.522 93.0852 34.2714C93.2853 34.0166 93.5151 33.8043 93.7662 33.6217C94.0216 33.4434 94.2983 33.3075 94.6005 33.2141C94.9027 33.1249 95.2177 33.0824 95.5497 33.0909V33.7958H95.4859C95.1028 33.7958 94.7325 33.868 94.3834 34.0124C94.0344 34.1568 93.7237 34.3691 93.4598 34.6536C93.1916 34.9381 92.983 35.2863 92.8256 35.6983C92.6681 36.1144 92.5914 36.59 92.5914 37.1336V39.8683H91.9487V33.1971H91.9445Z" fill="#414042"/>
<path d="M0 11.4932H3.88618L8.1299 23.0606L12.3992 11.4932H16.1959L9.74311 27.3538H6.48689L0 11.4932Z" fill="#E10A0A"/>
<path d="M28.327 18.2621C28.2674 17.6846 28.1397 17.1453 27.9396 16.6357C27.7396 16.1303 27.4714 15.693 27.1351 15.3235C26.7989 14.9583 26.3945 14.6653 25.9305 14.4445C25.4623 14.2279 24.9345 14.1175 24.3386 14.1175C23.2277 14.1175 22.3083 14.4997 21.5847 15.2641C20.8611 16.0284 20.4184 17.0264 20.2609 18.2578H28.3312L28.327 18.2621ZM24.7728 27.5959C23.6363 27.5959 22.5764 27.3963 21.5889 27.0014C20.6014 26.6022 19.7416 26.0459 19.0095 25.3325C18.2774 24.6191 17.6985 23.757 17.2771 22.7549C16.8557 21.7527 16.6429 20.6444 16.6429 19.4299V19.3704C16.6429 18.2366 16.8302 17.175 17.2133 16.1813C17.5921 15.1876 18.1284 14.3171 18.8137 13.574C19.5032 12.8308 20.3162 12.2448 21.2527 11.8159C22.1891 11.387 23.2277 11.1747 24.3684 11.1747C25.6241 11.1747 26.7265 11.404 27.6757 11.8584C28.6249 12.317 29.4124 12.9327 30.0423 13.7056C30.6723 14.4827 31.1447 15.3787 31.464 16.4021C31.7832 17.4255 31.9407 18.5041 31.9407 19.6379C31.9407 19.7993 31.9365 19.9607 31.9237 20.1305C31.9152 20.3004 31.8981 20.4745 31.8811 20.6529H20.2864C20.4865 21.9438 20.9973 22.9332 21.8273 23.6212C22.653 24.3048 23.6533 24.6488 24.8281 24.6488C25.7262 24.6488 26.5009 24.4874 27.1607 24.1732C27.8162 23.8547 28.4674 23.3876 29.1016 22.7719L31.2214 24.6488C30.4637 25.5448 29.5613 26.2582 28.5185 26.7933C27.4714 27.3283 26.22 27.6001 24.7685 27.6001" fill="#E10A0A"/>
<path d="M38.517 5.47168H34.9032V27.235H38.517V5.47168Z" fill="#E10A0A"/>
<path d="M49.9329 24.4323C50.6693 24.4323 51.3333 24.2964 51.9207 24.0289C52.5081 23.7613 53.0103 23.4046 53.4317 22.9545C53.8489 22.5086 54.1681 21.982 54.3894 21.3748C54.6065 20.7675 54.7172 20.1263 54.7172 19.4511V19.3917C54.7172 18.6953 54.598 18.0413 54.3596 17.4256C54.1213 16.8098 53.785 16.2748 53.3594 15.8161C52.9295 15.3575 52.4229 14.9966 51.8355 14.729C51.2481 14.4615 50.5969 14.3256 49.8776 14.3256C49.1582 14.3256 48.507 14.4615 47.9196 14.729C47.3322 14.9966 46.8299 15.3533 46.4128 15.8034C45.9956 16.2493 45.6764 16.7801 45.4551 17.4001C45.2337 18.0158 45.1273 18.6613 45.1273 19.3365V19.3959C45.1273 20.0924 45.2465 20.7421 45.4849 21.3493C45.7232 21.9566 46.0552 22.4874 46.4851 22.946C46.915 23.4046 47.4216 23.7656 48.009 24.0331C48.5963 24.3006 49.2391 24.4365 49.9371 24.4365M49.8776 27.5959C48.6815 27.5959 47.5705 27.3836 46.5447 26.9547C45.5189 26.5258 44.6336 25.944 43.8844 25.2094C43.1395 24.4747 42.5564 23.6085 42.135 22.6148C41.7179 21.6211 41.505 20.568 41.505 19.4554V19.3959C41.505 18.2621 41.7179 17.2005 42.1478 16.2068C42.5777 15.2131 43.1651 14.3426 43.91 13.5995C44.6548 12.8521 45.5444 12.2618 46.5703 11.8244C47.5961 11.387 48.7155 11.1705 49.9329 11.1705C51.1502 11.1705 52.2697 11.3828 53.2955 11.8117C54.3213 12.2406 55.2067 12.8266 55.9558 13.5697C56.705 14.3171 57.2838 15.1792 57.7052 16.1643C58.1224 17.1495 58.3309 18.2069 58.3309 19.3407V19.4002C58.3309 20.5128 58.1181 21.5659 57.6882 22.5596C57.2583 23.5532 56.6709 24.4238 55.926 25.1669C55.1811 25.9101 54.2873 26.5046 53.253 26.942C52.2186 27.3793 51.0907 27.5959 49.8776 27.5959" fill="#E10A0A"/>
<path d="M68.4316 27.5959C67.2568 27.5959 66.1714 27.3836 65.1754 26.9547C64.1794 26.5258 63.3195 25.944 62.5917 25.2094C61.8638 24.4747 61.2977 23.6084 60.8891 22.6147C60.4805 21.6211 60.2762 20.5679 60.2762 19.4554V19.3959C60.2762 18.2833 60.4805 17.2259 60.8891 16.2195C61.2977 15.2174 61.8723 14.3426 62.6087 13.5952C63.3451 12.8478 64.2134 12.2575 65.2094 11.8202C66.2054 11.3828 67.2994 11.1662 68.4954 11.1662C69.2318 11.1662 69.9043 11.2299 70.513 11.3615C71.1217 11.4889 71.6793 11.6758 72.1858 11.9136C72.6923 12.1514 73.1605 12.4401 73.5905 12.7799C74.0204 13.1196 74.4205 13.4848 74.7993 13.884L72.5263 16.3002C71.9687 15.7227 71.3771 15.2513 70.7471 14.8861C70.1214 14.5167 69.3552 14.3341 68.4614 14.3341C67.8059 14.3341 67.1972 14.47 66.6396 14.7375C66.082 15.005 65.5968 15.3617 65.1924 15.8119C64.7838 16.2577 64.4645 16.7886 64.2347 17.4085C64.0048 18.0243 63.8899 18.6698 63.8899 19.3449V19.4044C63.8899 20.1008 64.0048 20.7548 64.2347 21.3705C64.4645 21.9863 64.788 22.5213 65.2052 22.9799C65.6223 23.4386 66.1203 23.7953 66.6992 24.0543C67.2781 24.3133 67.9123 24.4407 68.6104 24.4407C69.4659 24.4407 70.2193 24.2624 70.8663 23.9057C71.5133 23.549 72.1262 23.0819 72.7051 22.5043L74.8844 24.6488C74.1055 25.5236 73.2201 26.2328 72.2241 26.7806C71.2281 27.3284 69.9639 27.6001 68.4273 27.6001" fill="#E10A0A"/>
<path d="M81.1585 11.4932H77.5447V27.2349H81.1585V11.4932Z" fill="#E10A0A"/>
<path d="M90.3057 27.5025C89.6502 27.5025 89.0415 27.4218 88.4839 27.2647C87.9263 27.1076 87.4411 26.8485 87.0367 26.4918C86.6281 26.1351 86.3131 25.6638 86.096 25.0735C85.8747 24.4875 85.7683 23.7571 85.7683 22.8823V14.5931H83.7677V11.4932H85.7683V8.06628H89.382V11.4932H93.6258V14.5931H89.382V22.3133C89.382 23.0097 89.5523 23.5108 89.8886 23.8208C90.2291 24.1308 90.7058 24.2836 91.323 24.2836C92.1019 24.2836 92.8468 24.1053 93.5662 23.7486V26.6999C93.1065 26.9589 92.6255 27.1585 92.119 27.2944C91.6124 27.4345 91.008 27.5025 90.31 27.5025" fill="#E10A0A"/>
<path d="M78.2258 8.71599C78.2258 8.71599 78.2087 8.74572 78.1747 8.77544C78.0896 8.85613 77.898 8.99201 77.532 9.01325L78.1789 6.74562L78.5705 5.374L78.1832 5.36551L76.255 5.31455L75.0589 6.12988C75.0589 6.12988 75.0291 6.15111 74.9525 6.19357C74.8759 6.23604 74.7908 6.15111 74.8376 6.07467L75.4803 5.03853V4.78374L74.8631 3.7391C74.8206 3.66266 74.9057 3.57773 74.9781 3.62445C75.0504 3.66691 75.0802 3.68814 75.0802 3.68814L76.255 4.52046L78.1789 4.49498L78.6088 4.48648L78.5365 4.2232L77.6128 0.838745C78.1406 0.88121 78.3024 1.14874 78.3024 1.14874L78.7749 1.87914L79.7751 3.42486L79.8432 3.53102L80.4264 4.43553L81.9119 4.44402C83.0526 4.45251 83.291 4.96209 83.291 4.96209C83.291 4.96209 83.0399 5.46742 81.9034 5.45893L80.4179 5.45044L80.2561 5.69249L78.23 8.7075L78.2258 8.71599Z" fill="#E10A0A"/>
<path d="M73.5224 5.80288V3.9599L41.9052 4.9281L73.5224 5.80288Z" fill="#E10A0A"/>
</svg>
