<svg width="40" height="40" viewBox="0 0 40 40" fill="none" xmlns="http://www.w3.org/2000/svg">
<rect width="40" height="40" rx="4" fill="white"/>
<path fill-rule="evenodd" clip-rule="evenodd" d="M20 36C28.8366 36 36 28.8366 36 20C36 11.1634 28.8366 4 20 4C11.1634 4 4 11.1634 4 20C4 28.8366 11.1634 36 20 36ZM18.4169 20.5752L21.3674 12.48H25.408L22.2109 20.4433L25.76 20.32V21.6L21.7964 21.4757L18.5347 29.6H15.0658L11.6604 21.1578L6.40002 20.9928L11.5221 20.8148L8.16002 12.48H12.2962L15.2665 20.6847L18.4169 20.5752ZM18.1305 21.3607L15.4812 21.2776L16.8165 24.9659L18.1305 21.3607ZM29.4407 23.9695H29.4401C29.4374 23.9747 29.4248 23.9927 29.3975 24.0179C29.3291 24.0825 29.1729 24.1877 28.8759 24.2071L29.7185 21.3245L29.4042 21.3174L27.8352 21.2761L26.8636 21.923C26.8636 21.923 26.839 21.9404 26.7779 21.9746C26.7161 22.0101 26.647 21.9411 26.6848 21.8817L27.2078 21.0592L27.2105 20.8565L26.7048 20.0288C26.6682 19.9688 26.7387 19.9003 26.7998 19.9371C26.8589 19.972 26.8849 19.9888 26.8849 19.9888L27.8412 20.6479L29.4055 20.6273L29.7557 20.6221L28.945 17.7305C29.3749 17.7654 29.5052 17.9752 29.5052 17.9752L29.888 18.5543L30.7021 19.7803L30.7572 19.8648L31.2324 20.5808L32.4405 20.5879C33.3676 20.5937 33.5616 20.9978 33.5616 20.9978C33.5616 20.9978 33.3583 21.3988 32.4312 21.3936L31.2237 21.3852L31.0908 21.5782L29.4407 23.9682V23.9695Z" fill="#E10A0A"/>
</svg>
