<svg width="30" height="18" viewBox="0 0 30 18" fill="none" xmlns="http://www.w3.org/2000/svg">
<path d="M26.0188 8.80859C26.0188 13.2262 24.2847 15.825 20.8165 16.605C22.7861 17.2515 27.4925 15.9394 28.3633 12.6406C28.9438 10.4414 28.1623 9.16407 26.0188 8.80859Z" fill="#8DE2E0"/>
<path d="M10.7092 8.80859C10.7092 13.2262 8.97513 15.825 5.50696 16.605C7.47649 17.2515 12.1829 15.9394 13.0537 12.6406C13.6342 10.4414 12.8527 9.16407 10.7092 8.80859Z" fill="#8DE2E0"/>
<path d="M1.20997 8.92842C1.40056 8.683 1.78842 8.6155 2.07618 8.77803C2.36374 8.94064 2.44245 9.27186 2.25196 9.51728L2.15333 9.64326C2.15324 9.64502 2.15342 9.64733 2.15333 9.64912C2.10325 10.6599 2.21182 11.8778 2.60645 13.029C3.3303 15.1401 4.79853 16.3532 7.29591 16.3532C9.81448 16.3531 11.2753 15.2799 11.9912 13.4235C12.3803 12.4145 12.4879 11.3449 12.4385 10.4587C12.4351 10.3988 12.4315 10.3586 12.4297 10.3405C12.3998 10.0472 12.6542 9.78795 12.9981 9.7624C13.3419 9.73691 13.6449 9.95444 13.6748 10.2478C13.678 10.2792 13.6824 10.3333 13.6865 10.4079C13.7425 11.4128 13.6235 12.6031 13.1787 13.7565C12.3056 16.0204 10.4018 17.4195 7.29591 17.4196C4.16859 17.4196 2.27156 15.852 1.40626 13.3278C0.966883 12.0461 0.848981 10.721 0.904304 9.6042C0.90838 9.52196 0.912968 9.46215 0.916022 9.42842C0.924282 9.33812 0.958971 9.25101 1.01758 9.17549L1.20997 8.92842ZM27.9121 8.77803C28.1999 8.61562 28.5878 8.68296 28.7783 8.92842L28.9697 9.17549C29.0284 9.25103 29.064 9.33809 29.0723 9.42842C29.0753 9.46215 29.0789 9.52196 29.083 9.6042C29.1383 10.7211 29.0205 12.046 28.5811 13.3278C27.7158 15.8519 25.8195 17.4195 22.6924 17.4196C19.5863 17.4196 17.6827 16.0205 16.8096 13.7565C16.3648 12.6031 16.2448 11.4128 16.3008 10.4079C16.3049 10.3333 16.3093 10.2792 16.3125 10.2478C16.3424 9.95447 16.6455 9.737 16.9893 9.7624C17.3331 9.78789 17.5875 10.0472 17.5576 10.3405C17.5558 10.3586 17.5531 10.3988 17.5498 10.4587C17.5004 11.3449 17.6079 12.4144 17.9971 13.4235C18.713 15.28 20.1736 16.3532 22.6924 16.3532C25.1895 16.3531 26.657 15.14 27.3809 13.029C27.7755 11.8778 27.8841 10.6599 27.834 9.64912C27.8339 9.64733 27.8341 9.64502 27.834 9.64326L27.7354 9.51728C27.5448 9.27178 27.6243 8.94058 27.9121 8.77803Z" fill="#323232"/>
<path d="M8.31187 0.510098C10.4119 -0.817406 12.4602 0.602187 12.4603 2.97006C12.4603 3.26442 12.1804 3.50313 11.8353 3.50326C11.4901 3.50326 11.2103 3.26451 11.2103 2.97006C11.2102 1.3665 10.1828 0.654322 9.05601 1.36654C7.83835 2.13634 4.37492 6.34726 2.05211 9.5101C1.86885 9.75962 1.48329 9.83537 1.19078 9.67904C0.898453 9.52281 0.80973 9.19413 0.992537 8.94467C3.444 5.60664 6.90369 1.40034 8.31187 0.510098ZM17.5462 2.97006C17.5463 0.602284 19.5938 -0.817126 21.6937 0.510098C22.5138 1.02854 23.8758 2.4982 25.683 4.7015C26.8419 6.11449 27.88 7.44967 29.0082 8.93783C29.1956 9.18508 29.1125 9.51525 28.8226 9.67514C28.5328 9.8349 28.1458 9.76414 27.9584 9.51693C26.8379 8.03899 25.8075 6.71249 24.6595 5.31283C22.9474 3.22539 21.6131 1.786 20.9496 1.36654C19.8229 0.654594 18.7963 1.36663 18.7962 2.97006C18.7962 3.26442 18.5163 3.50311 18.1712 3.50326C17.8261 3.50326 17.5462 3.26451 17.5462 2.97006Z" fill="#323232"/>
<path d="M18.8129 8.53739C21.7575 7.31899 24.8837 7.45766 27.8384 8.41399C28.3388 8.57597 28.7919 8.74977 29.1906 8.9242C29.4338 9.03061 29.6077 9.1152 29.7052 9.16691C29.9982 9.3225 30.0879 9.65127 29.9055 9.90126C29.7232 10.1513 29.3377 10.2278 29.0447 10.0722C28.9756 10.0355 28.8315 9.96545 28.6202 9.87298C28.2613 9.71596 27.8502 9.5583 27.3949 9.41093C24.7329 8.54931 21.9469 8.42574 19.3585 9.49677C18.6454 9.79184 17.9589 10.1757 17.3018 10.6545C17.1886 10.7369 17.0447 10.7822 16.8959 10.7822H13.0561C12.9064 10.7822 12.7617 10.7364 12.6482 10.653C11.9698 10.1545 11.259 9.75909 10.519 9.45968C7.97164 8.42896 5.22806 8.56029 2.60384 9.41084C2.14914 9.55822 1.73847 9.71589 1.37978 9.87292C1.16853 9.9654 1.02444 10.0355 0.955317 10.0722C0.66226 10.2278 0.276839 10.1513 0.0944546 9.90126C-0.0879298 9.65127 0.00178804 9.3225 0.294845 9.16691C0.392212 9.11522 0.566035 9.03065 0.809043 8.92426C1.20746 8.74984 1.66011 8.57606 2.15987 8.41408C5.07359 7.46969 8.15323 7.32228 11.0547 8.49627C11.8305 8.81016 12.5752 9.21529 13.2846 9.71594H16.6688C17.3528 9.23691 18.0688 8.84532 18.8129 8.53739Z" fill="#323232"/>
</svg>
