<svg width="40" height="40" viewBox="0 0 40 40" fill="none" xmlns="http://www.w3.org/2000/svg">
<path d="M31.0188 18.8086C31.0188 23.2262 29.2847 25.825 25.8165 26.605C27.7861 27.2515 32.4925 25.9394 33.3633 22.6406C33.9438 20.4414 33.1623 19.1641 31.0188 18.8086Z" fill="#8DE2E0"/>
<path d="M15.7092 18.8086C15.7092 23.2262 13.9751 25.825 10.507 26.605C12.4765 27.2515 17.1829 25.9394 18.0537 22.6406C18.6342 20.4414 17.8527 19.1641 15.7092 18.8086Z" fill="#8DE2E0"/>
<path d="M6.20997 18.9284C6.40056 18.683 6.78842 18.6155 7.07618 18.778C7.36374 18.9406 7.44245 19.2719 7.25196 19.5173L7.15333 19.6433C7.15324 19.645 7.15342 19.6473 7.15333 19.6491C7.10325 20.6599 7.21182 21.8778 7.60645 23.029C8.3303 25.1401 9.79853 26.3532 12.2959 26.3532C14.8145 26.3531 16.2753 25.2799 16.9912 23.4235C17.3803 22.4145 17.4879 21.3449 17.4385 20.4587C17.4351 20.3988 17.4315 20.3586 17.4297 20.3405C17.3998 20.0472 17.6542 19.7879 17.9981 19.7624C18.3419 19.7369 18.6449 19.9544 18.6748 20.2478C18.678 20.2792 18.6824 20.3333 18.6865 20.4079C18.7425 21.4128 18.6235 22.6031 18.1787 23.7565C17.3056 26.0204 15.4018 27.4195 12.2959 27.4196C9.16859 27.4196 7.27156 25.852 6.40626 23.3278C5.96688 22.0461 5.84898 20.721 5.9043 19.6042C5.90838 19.522 5.91297 19.4622 5.91602 19.4284C5.92428 19.3381 5.95897 19.251 6.01758 19.1755L6.20997 18.9284ZM32.9121 18.778C33.1999 18.6156 33.5878 18.683 33.7783 18.9284L33.9697 19.1755C34.0284 19.251 34.064 19.3381 34.0723 19.4284C34.0753 19.4622 34.0789 19.522 34.083 19.6042C34.1383 20.7211 34.0205 22.046 33.5811 23.3278C32.7158 25.8519 30.8195 27.4195 27.6924 27.4196C24.5863 27.4196 22.6827 26.0205 21.8096 23.7565C21.3648 22.6031 21.2448 21.4128 21.3008 20.4079C21.3049 20.3333 21.3093 20.2792 21.3125 20.2478C21.3424 19.9545 21.6455 19.737 21.9893 19.7624C22.3331 19.7879 22.5875 20.0472 22.5576 20.3405C22.5558 20.3586 22.5531 20.3988 22.5498 20.4587C22.5004 21.3449 22.6079 22.4144 22.9971 23.4235C23.713 25.28 25.1736 26.3532 27.6924 26.3532C30.1895 26.3531 31.657 25.14 32.3809 23.029C32.7755 21.8778 32.8841 20.6599 32.834 19.6491C32.8339 19.6473 32.8341 19.645 32.834 19.6433L32.7354 19.5173C32.5448 19.2718 32.6243 18.9406 32.9121 18.778Z" fill="#323232"/>
<path d="M13.3119 10.5101C15.4119 9.18259 17.4602 10.6022 17.4603 12.9701C17.4603 13.2644 17.1804 13.5031 16.8353 13.5033C16.4901 13.5033 16.2103 13.2645 16.2103 12.9701C16.2102 11.3665 15.1828 10.6543 14.056 11.3665C12.8384 12.1363 9.37492 16.3473 7.05211 19.5101C6.86885 19.7596 6.48329 19.8354 6.19078 19.679C5.89845 19.5228 5.80973 19.1941 5.99254 18.9447C8.444 15.6066 11.9037 11.4003 13.3119 10.5101ZM22.5462 12.9701C22.5463 10.6023 24.5938 9.18287 26.6937 10.5101C27.5138 11.0285 28.8758 12.4982 30.683 14.7015C31.8419 16.1145 32.88 17.4497 34.0082 18.9378C34.1956 19.1851 34.1125 19.5152 33.8226 19.6751C33.5328 19.8349 33.1458 19.7641 32.9584 19.5169C31.8379 18.039 30.8075 16.7125 29.6595 15.3128C27.9474 13.2254 26.6131 11.786 25.9496 11.3665C24.8229 10.6546 23.7963 11.3666 23.7962 12.9701C23.7962 13.2644 23.5163 13.5031 23.1712 13.5033C22.8261 13.5033 22.5462 13.2645 22.5462 12.9701Z" fill="#323232"/>
<path d="M23.8129 18.5374C26.7575 17.319 29.8837 17.4577 32.8384 18.414C33.3388 18.576 33.7919 18.7498 34.1906 18.9242C34.4338 19.0306 34.6077 19.1152 34.7052 19.1669C34.9982 19.3225 35.0879 19.6513 34.9055 19.9013C34.7232 20.1513 34.3377 20.2278 34.0447 20.0722C33.9756 20.0355 33.8315 19.9654 33.6202 19.873C33.2613 19.716 32.8502 19.5583 32.3949 19.4109C29.7329 18.5493 26.9469 18.4257 24.3585 19.4968C23.6454 19.7918 22.9589 20.1757 22.3018 20.6545C22.1886 20.7369 22.0447 20.7822 21.8959 20.7822H18.0561C17.9064 20.7822 17.7617 20.7364 17.6482 20.653C16.9698 20.1545 16.259 19.7591 15.519 19.4597C12.9716 18.429 10.2281 18.5603 7.60384 19.4108C7.14914 19.5582 6.73847 19.7159 6.37978 19.8729C6.16853 19.9654 6.02444 20.0355 5.95532 20.0722C5.66226 20.2278 5.27684 20.1513 5.09445 19.9013C4.91207 19.6513 5.00179 19.3225 5.29485 19.1669C5.39221 19.1152 5.56604 19.0307 5.80904 18.9243C6.20746 18.7498 6.66011 18.5761 7.15987 18.4141C10.0736 17.4697 13.1532 17.3223 16.0547 18.4963C16.8305 18.8102 17.5752 19.2153 18.2846 19.7159H21.6688C22.3528 19.2369 23.0688 18.8453 23.8129 18.5374Z" fill="#323232"/>
</svg>
