<svg width="40" height="40" viewBox="0 0 40 40" fill="none" xmlns="http://www.w3.org/2000/svg">
<path d="M31.9947 25.8436C31.1877 24.9827 30.2975 24.2515 29.3599 23.6618C30.2857 23.0722 31.1758 22.3292 31.9829 21.4682C30.9266 20.9375 29.8347 20.5484 28.7547 20.3125C29.4193 19.4398 30.0008 18.4373 30.4756 17.3641C29.3006 17.2226 28.1494 17.2344 27.0456 17.3759C27.3779 16.3263 27.5797 15.1941 27.639 14.0148C26.4878 14.286 25.3959 14.6752 24.4227 15.1823C24.3634 14.0855 24.1735 12.9534 23.8293 11.8212C22.8442 12.4698 21.9541 13.2128 21.2064 14.0148C20.7791 13.0005 20.1976 12.0099 19.4855 11.0664C18.7734 12.0099 18.2037 13.0123 17.7765 14.0266C17.0287 13.2128 16.1386 12.4698 15.1535 11.833C14.8094 12.9534 14.6195 14.0855 14.5601 15.1823C13.5751 14.6752 12.495 14.286 11.3438 14.0148C11.415 15.1941 11.6168 16.3263 11.9491 17.3759C10.8453 17.2344 9.69411 17.2344 8.50728 17.3759C8.97014 18.4609 9.55169 19.4516 10.2282 20.3243C9.14817 20.5719 8.05628 20.9611 7 21.4918C7.80705 22.3528 8.69717 23.0839 9.63477 23.6736C8.70904 24.2633 7.81892 25.0063 7.01187 25.8672C8.06815 26.3979 9.16004 26.7871 10.2401 27.023C9.57543 27.8957 8.99388 28.8981 8.51915 29.9713C9.69411 30.1128 10.8453 30.1011 11.9372 29.9713C11.6049 31.0209 11.4032 32.1531 11.3438 33.3207C12.495 33.0494 13.5869 32.6602 14.5601 32.1531C14.6076 33.2499 14.8094 34.3821 15.1535 35.5143C16.1386 34.8656 17.0287 34.1344 17.7765 33.3207C18.2037 34.3349 18.7853 35.3374 19.4974 36.2808C20.2095 35.3374 20.7791 34.3349 21.2064 33.3207C21.9541 34.1344 22.8442 34.8774 23.8412 35.5143C24.1854 34.3939 24.3752 33.2617 24.4346 32.1531C25.4197 32.6602 26.5115 33.0494 27.6628 33.3207C27.5916 32.1413 27.3898 31.0209 27.0575 29.9713C28.1494 30.1128 29.3125 30.1128 30.4874 29.9713C30.0246 28.8863 29.443 27.8957 28.7665 27.023C29.8466 26.7635 30.9384 26.3743 31.9947 25.8436Z" fill="#009900"/>
<path d="M28.7688 27.0159C28.1516 26.214 27.4514 25.5064 26.6918 24.9285C27.6057 24.6454 28.4958 24.2091 29.3622 23.6666C28.4958 23.1241 27.6057 22.6995 26.6918 22.4165C27.4514 21.8386 28.1398 21.131 28.7688 20.3172C27.7718 20.0932 26.7868 19.9988 25.8254 20.046C26.3358 19.244 26.7512 18.3477 27.0479 17.3689C26.0391 17.4986 25.0777 17.7463 24.1876 18.1119C24.3894 17.1802 24.4724 16.2013 24.4131 15.1753C23.5111 15.647 22.6922 16.2013 21.992 16.85C21.8614 15.9065 21.6003 14.9512 21.1968 14.0195C20.4965 14.7743 19.9269 15.5763 19.4877 16.4254C19.0486 15.5881 18.4671 14.7743 17.7668 14.0313C17.3752 14.963 17.1141 15.9183 16.9954 16.85C16.2952 16.2131 15.4644 15.647 14.5505 15.1871C14.503 16.2013 14.5861 17.192 14.7879 18.1237C13.9096 17.7581 12.9483 17.5222 11.9276 17.3925C12.2362 18.3595 12.6516 19.2558 13.1619 20.0578C12.2124 20.0224 11.2155 20.1167 10.2067 20.3408C10.8239 21.1428 11.5241 21.8504 12.2837 22.4283C11.3698 22.7113 10.4797 23.1477 9.61328 23.6902C10.4797 24.2327 11.3698 24.6572 12.2837 24.9403C11.5241 25.5182 10.8357 26.2258 10.2067 27.0395C11.2036 27.2636 12.1887 27.3579 13.1382 27.3108C12.6278 28.1127 12.2124 29.009 11.9157 29.9879C12.9245 29.8581 13.8978 29.6105 14.776 29.2449C14.5742 30.1648 14.4912 31.1554 14.5386 32.1697C15.4525 31.6979 16.2714 31.1436 16.9717 30.5068C17.1022 31.4503 17.3633 32.4055 17.755 33.3372C18.4433 32.5824 19.0249 31.7805 19.464 30.9431C19.9031 31.7805 20.4847 32.5942 21.1849 33.3372C21.5766 32.4055 21.8377 31.4503 21.9682 30.5068C22.6685 31.1436 23.4992 31.7097 24.4131 32.1697C24.4606 31.1554 24.3775 30.1648 24.1757 29.2449C25.054 29.6105 26.0272 29.8464 27.036 29.9761C26.7274 29.009 26.312 28.1127 25.8017 27.3108C26.7749 27.3343 27.7718 27.24 28.7688 27.0159Z" fill="#99CC00"/>
<path d="M24.4262 23.6729C25.2213 23.3781 25.9928 22.9535 26.7049 22.411C25.8504 22.1398 24.984 22.01 24.1413 21.9982C24.7941 21.4557 25.3638 20.7953 25.8385 20.0405C24.9484 20.0759 24.082 20.241 23.2868 20.5358C23.7141 19.8046 24.0226 18.9909 24.2125 18.1182C23.3818 18.4602 22.634 18.9083 21.9813 19.4508C22.1237 18.6135 22.1356 17.7408 22.0169 16.8563C21.3523 17.4577 20.7945 18.1418 20.3672 18.873C20.2129 18.0356 19.9281 17.2101 19.5127 16.4199C19.1092 17.2101 18.8124 18.0238 18.67 18.8494C18.2428 18.1182 17.685 17.446 17.0203 16.8445C16.9016 17.729 16.9135 18.6017 17.0559 19.439C16.4032 18.8965 15.6436 18.4484 14.8128 18.1182C15.0027 18.9909 15.3113 19.8046 15.7385 20.5358C14.9434 20.2528 14.077 20.0877 13.1869 20.0523C13.6735 20.8071 14.2431 21.4557 14.884 22.01C14.0295 22.01 13.1631 22.1515 12.3086 22.4228C13.0207 22.9653 13.7803 23.3899 14.5873 23.6729C13.7921 23.9677 13.0207 24.3923 12.3086 24.9348C13.1631 25.1943 14.0295 25.3358 14.8722 25.3476C14.2194 25.8901 13.6497 26.5505 13.1631 27.3053C14.0532 27.2699 14.9196 27.1048 15.7148 26.8218C15.2875 27.5529 14.979 28.3785 14.7891 29.2394C15.6199 28.8974 16.3676 28.4493 17.0203 27.9068C16.8779 28.7441 16.866 29.605 16.9847 30.4895C17.6493 29.8881 18.2072 29.2158 18.6344 28.4846C18.7887 29.322 19.0735 30.1357 19.4889 30.9259C19.9043 30.1357 20.1892 29.322 20.3435 28.4846C20.7707 29.2158 21.3285 29.8881 21.9932 30.4895C22.1118 29.605 22.1 28.7323 21.9576 27.9068C22.6103 28.4493 23.3699 28.8974 24.2007 29.2394C24.0108 28.3667 23.7022 27.5529 23.2749 26.8218C24.082 27.1048 24.9365 27.2699 25.8385 27.3053C25.3519 26.5505 24.7822 25.9019 24.1295 25.3476C24.984 25.3476 25.8504 25.2061 26.7049 24.9348C25.9809 24.3805 25.2213 23.9559 24.4262 23.6729Z" fill="#FFFF00"/>
<path d="M21.9888 24.0998C22.8196 24.0998 23.6385 23.9465 24.41 23.6634C23.6267 23.3804 22.8196 23.2271 21.9888 23.2271C22.7722 22.944 23.4843 22.5195 24.1133 21.9888C23.2825 21.9888 22.4636 22.1185 21.6803 22.4015C22.3212 21.8708 22.8434 21.234 23.2588 20.5146C22.4755 20.7976 21.7634 21.1986 21.1225 21.7293C21.5379 21.0099 21.8108 20.2315 21.9532 19.4296C21.3124 19.9603 20.7783 20.5854 20.351 21.3048C20.4934 20.491 20.4816 19.6655 20.3392 18.8517C19.9238 19.5593 19.6389 20.3259 19.4965 21.1278C19.3541 20.3141 19.0574 19.5357 18.642 18.8281C18.4996 19.6419 18.4877 20.4674 18.6301 21.2812C18.2147 20.5618 17.6688 19.9367 17.0398 19.406C17.1822 20.2198 17.4551 20.9981 17.8705 21.7057C17.2296 21.175 16.5057 20.774 15.7342 20.491C16.1496 21.2104 16.6718 21.8355 17.3127 22.378C16.5294 22.0949 15.7105 21.9652 14.8916 21.9652C15.5206 22.4959 16.2327 22.9087 17.016 23.2035C16.1852 23.2035 15.3663 23.3568 14.583 23.6399C15.3663 23.9229 16.1734 24.0762 17.0041 24.0762C16.2208 24.3593 15.5087 24.7838 14.8678 25.3145C15.6986 25.3145 16.5175 25.1848 17.3009 24.9018C16.66 25.4325 16.1378 26.0693 15.7224 26.7887C16.5057 26.5057 17.2296 26.1047 17.8587 25.574C17.4433 26.2934 17.1703 27.0718 17.0279 27.8855C17.6688 27.3548 18.2029 26.7297 18.6182 26.0221C18.4758 26.8359 18.4877 27.6614 18.6301 28.4634C19.0455 27.7558 19.3422 26.9774 19.4846 26.1755C19.6271 26.9892 19.9238 27.7558 20.3392 28.4752C20.4816 27.6614 20.4934 26.8477 20.351 26.0339C20.7664 26.7533 21.3124 27.3784 21.9414 27.8973C21.799 27.0835 21.526 26.317 21.1106 25.5976C21.7515 26.1283 22.4755 26.5293 23.2588 26.8123C22.8434 26.0929 22.3212 25.4678 21.6803 24.9253C22.4636 25.2084 23.2825 25.3381 24.1133 25.3381C23.4843 24.8074 22.7722 24.3946 21.9888 24.0998Z" fill="white"/>
<path d="M26.2961 6.83287C26.2961 7.55228 26.035 8.54293 25.0143 8.54293C23.78 8.54293 23.78 7.16309 23.78 6.88005C23.78 6.59701 23.78 5.13462 25.0499 5.13462C26.2011 5.12282 26.2961 6.39652 26.2961 6.83287ZM23.8037 3H22.973V8.28347L22.9492 9.07363H23.7444L23.7681 8.4132C23.8512 8.54293 23.958 8.69624 24.1954 8.86135C24.5752 9.12081 24.9668 9.14439 25.1805 9.14439C25.7858 9.14439 26.3792 8.88494 26.7352 8.38961C26.9607 8.10657 27.1625 7.63483 27.1625 6.7857C27.1625 5.81864 26.8658 5.38228 26.6403 5.13462C26.2367 4.67467 25.6789 4.56853 25.2398 4.56853C24.231 4.56853 23.9106 5.12282 23.7919 5.32331V3H23.8037Z" fill="#009900"/>
<path d="M28.5891 7.00931C28.5891 6.62012 28.5891 5.22849 29.9065 5.22849C30.8797 5.22849 31.1171 6.05404 31.1171 6.8442C31.1171 7.16262 31.0696 7.78768 30.761 8.22403C30.4762 8.61322 30.0371 8.6486 29.8234 8.6486C28.6722 8.6368 28.5891 7.54001 28.5891 7.00931ZM27.8058 10.7596H28.6247V8.58963C28.8621 8.97881 29.3368 9.25006 29.9777 9.25006C31.034 9.25006 31.9953 8.53066 31.9953 6.89137C31.9953 5.26387 31.0933 4.61523 30.1439 4.61523C29.7878 4.61523 29.052 4.72138 28.6366 5.41719L28.6247 4.686H27.7939C27.8058 5.11056 27.8177 5.2167 27.8177 5.4054L27.8058 10.7596Z" fill="#009900"/>
</svg>
