<svg width="40" height="40" viewBox="0 0 40 40" fill="none" xmlns="http://www.w3.org/2000/svg">
<path d="M5.66895 16.7709L7.74049 12.9629H22.1148L26.0232 16.5533L5.66895 16.7709Z" fill="#8DE2E0"/>
<path d="M4.96973 16.7412C4.96973 17.1154 5.27331 17.4189 5.64747 17.4189H6.14551C5.88911 18.2189 5.68668 19.0317 5.54298 19.8496C5.50515 20.234 5.47311 20.6746 5.4463 21.1602C5.40957 21.8253 5.38449 22.5402 5.36915 23.2549C5.36716 23.3473 5.36485 23.4372 5.36329 23.5244H7.79981C8.174 23.5244 8.47754 23.828 8.47755 24.2021C8.47755 24.5763 8.174 24.8799 7.79981 24.8799H4.67774C4.30239 24.8799 3.99838 24.5745 4.00001 24.1992C4.00023 24.1495 4.00142 24.0576 4.00294 23.9297C4.00545 23.7172 4.00918 23.4804 4.01465 23.2256C4.0303 22.497 4.05512 21.7679 4.09278 21.0859C4.12059 20.5824 4.15442 20.1228 4.20118 19.667C4.38177 18.6338 4.64279 17.6179 4.98048 16.6289C4.97436 16.6655 4.96973 16.7029 4.96973 16.7412ZM27.6846 16.3037C28.4648 16.4105 29.2586 16.5176 30.0186 16.6172C30.2073 16.6419 30.2082 16.6424 30.3975 16.667C31.9862 16.8732 33.1592 17.0114 33.7227 17.0547C34.6822 17.13 35.3528 17.5174 35.7168 18.1299C35.9488 18.5204 36.0161 18.9158 35.9971 19.2529C35.9949 19.2858 35.9952 19.2866 35.9941 19.2969C35.9837 19.4096 35.965 19.6063 35.9404 19.8584C35.8994 20.279 35.8564 20.6997 35.8145 21.0928C35.7971 21.2558 35.7801 21.4114 35.7637 21.5576C35.7282 21.8736 35.6951 22.1429 35.666 22.3584C35.4755 23.7681 34.657 24.8799 33.4316 24.8799H31.6885C31.3143 24.8799 31.0107 24.5763 31.0107 24.2021C31.0108 23.828 31.3143 23.5244 31.6885 23.5244H33.4316C33.8235 23.5244 34.2125 22.9962 34.3232 22.1768C34.3508 21.9728 34.3825 21.7129 34.417 21.4062C34.4331 21.2627 34.4497 21.1098 34.4668 20.9492C34.5083 20.5605 34.5511 20.1436 34.5918 19.7266C34.6157 19.4812 34.6333 19.2889 34.6445 19.1689C34.648 19.0777 34.6236 18.9433 34.5518 18.8223C34.4218 18.6034 34.1522 18.4482 33.6172 18.4062C33.0219 18.3605 31.8369 18.2202 30.2227 18.0107C30.0325 17.986 30.0323 17.9857 29.8428 17.9609C29.08 17.861 28.2836 17.7536 27.501 17.6465C27.227 17.609 26.9735 17.5742 26.7481 17.543C26.5174 17.5109 26.5168 17.511 26.4658 17.5039C26.3799 17.4919 26.2982 17.4616 26.2236 17.4189H26.5674C26.9416 17.4189 27.2451 17.1154 27.2451 16.7412C27.2451 16.5227 27.14 16.3309 26.9795 16.207C27.1927 16.2365 27.4295 16.2688 27.6846 16.3037ZM25.4551 23.5137C25.8293 23.5137 26.1328 23.8172 26.1328 24.1914C26.1328 24.5656 25.8293 24.8691 25.4551 24.8691H14.0332C13.6591 24.8691 13.3555 24.5656 13.3555 24.1914C13.3555 23.8173 13.6591 23.5137 14.0332 23.5137H25.4551ZM26.1055 17.3359C26.1416 17.3685 26.1819 17.395 26.2236 17.4189H6.14551C6.29188 16.9623 6.45584 16.5099 6.6377 16.0635H24.6973L26.1055 17.3359ZM4.98048 16.6289C4.99269 16.5558 5.01815 16.488 5.05176 16.4248C5.02775 16.4927 5.00376 16.5607 4.98048 16.6289ZM21.959 12C22.1268 12 22.2886 12.0624 22.4131 12.1748L26.749 16.0908C26.6912 16.0747 26.6304 16.0635 26.5674 16.0635H24.6973L21.6982 13.3545H8.58594C8.23767 13.4024 7.92166 13.5845 7.70508 13.8613C7.30065 14.5733 6.94451 15.3103 6.6377 16.0635H5.64747C5.38818 16.0635 5.16564 16.2108 5.05176 16.4248C5.45174 15.2933 5.95241 14.1974 6.54981 13.1514L6.59376 13.085C7.04143 12.4797 7.72058 12.0877 8.46876 12.0039L8.54395 12H21.959ZM26.749 16.0908C26.8342 16.1145 26.9114 16.1545 26.9795 16.207C26.9644 16.2049 26.9494 16.2032 26.9346 16.2012C26.9063 16.1972 26.8813 16.1935 26.8594 16.1904L26.749 16.0908Z" fill="#323232"/>
<path d="M15.6873 20.8023C15.3131 20.8023 15.0098 20.499 15.0098 20.1248C15.0098 19.7506 15.3131 19.4473 15.6873 19.4473H22.8987C23.2729 19.4473 23.5762 19.7506 23.5762 20.1248C23.5762 20.499 23.2729 20.8023 22.8987 20.8023H15.6873Z" fill="#E40000"/>
<path d="M10.6973 20.75C12.6715 20.75 14.2724 22.35 14.2725 24.3242C14.2725 26.2985 12.6716 27.8994 10.6973 27.8994C8.72293 27.8994 7.12207 26.2986 7.12207 24.3242C7.12216 22.35 8.72298 20.75 10.6973 20.75ZM10.6973 22.1045C9.47137 22.1045 8.47763 23.0983 8.47754 24.3242C8.47754 25.5502 9.47131 26.5439 10.6973 26.5439C11.9232 26.5439 12.917 25.5502 12.917 24.3242C12.9169 23.0984 11.9231 22.1045 10.6973 22.1045Z" fill="#323232"/>
<path d="M28.5342 20.75C30.5084 20.7501 32.1093 22.35 32.1094 24.3242C32.1094 26.2985 30.5085 27.8993 28.5342 27.8994C26.5598 27.8994 24.959 26.2986 24.959 24.3242C24.9591 22.35 26.5599 20.75 28.5342 20.75ZM28.5342 22.1045C27.3083 22.1045 26.3145 23.0983 26.3145 24.3242C26.3145 25.5502 27.3082 26.5439 28.5342 26.5439C29.7601 26.5439 30.7539 25.5501 30.7539 24.3242C30.7538 23.0984 29.76 22.1046 28.5342 22.1045Z" fill="#323232"/>
</svg>
