<svg width="24" height="24" viewBox="0 0 24 24" fill="none" xmlns="http://www.w3.org/2000/svg">
<path d="M15.6647 9.67514C15.8847 9.19514 16.0047 8.65514 16.0047 8.09514C16.0047 5.98014 14.2947 4.26514 12.1797 4.26514C10.7297 4.26514 9.46973 5.07514 8.81973 6.26014C8.69473 6.49014 8.58973 6.72514 8.51473 6.98014C8.40473 7.33514 8.34473 7.71014 8.34473 8.10014C8.34473 8.66514 8.46473 9.20014 8.68973 9.68014H15.6597L15.6647 9.67514Z" fill="#8DE2E0"/>
<path d="M22.1547 9.17491H22.0047C22.1397 8.68991 22.1947 8.17991 22.1447 7.67491C21.9747 6.07491 22.4597 5.34991 22.4597 5.34991C22.5447 5.23991 22.5747 5.09491 22.5497 4.95991C22.5247 4.82491 22.4447 4.70491 22.3247 4.62991L19.8797 3.08991C19.7647 3.01991 19.6197 2.99991 19.4897 3.02991C19.3597 3.06491 19.2447 3.14991 19.1747 3.26991C19.1747 3.27491 18.7247 4.02991 17.2097 4.56491C16.8397 4.69491 16.2297 4.97991 15.6797 5.55491C14.9197 4.50491 13.7097 3.81491 12.3297 3.76491C11.9897 2.57991 11.2097 1.85491 11.1747 1.81991C10.9697 1.63491 10.6547 1.64991 10.4697 1.85491C10.2847 2.05991 10.2997 2.37491 10.4997 2.55991C10.5047 2.56491 11.0297 3.05991 11.3097 3.85491C10.0797 4.10491 9.00473 4.87491 8.38473 5.99991L6.82473 3.17491C6.41473 2.43491 5.70473 1.90991 4.87473 1.73491C4.19473 1.58991 3.48473 1.69991 2.87473 2.03491C2.19473 2.40991 1.70473 3.02991 1.48973 3.77491C1.27473 4.51991 1.36473 5.30491 1.73473 5.97491L3.40473 9.16491H1.84473C1.56973 9.16491 1.34473 9.38991 1.34473 9.66491V13.5849C1.34473 13.8599 1.56973 14.0849 1.84473 14.0849H3.34473L4.79973 21.8999C4.84473 22.1349 5.04973 22.3099 5.28973 22.3099H18.7047C18.9447 22.3099 19.1547 22.1399 19.1947 21.8999L20.6497 14.0849H22.1497C22.4247 14.0849 22.6497 13.8599 22.6497 13.5849V9.66491C22.6497 9.38991 22.4247 9.16491 22.1497 9.16491L22.1547 9.17491ZM18.2897 21.3199H5.70973L4.36473 14.0949H19.6397L18.2947 21.3199H18.2897ZM17.5447 5.51491C18.7247 5.09991 19.3847 4.55491 19.7347 4.17991L21.4097 5.23491C21.2197 5.70991 21.0197 6.53991 21.1497 7.78491C21.1797 8.06991 21.1897 8.59991 20.9647 9.17491H16.3647C16.4547 8.82491 16.5047 8.45991 16.5047 8.09491C16.5047 7.52991 16.3947 6.98991 16.1947 6.49491C16.6447 5.90491 17.2197 5.62991 17.5447 5.51491ZM9.25973 6.49491C9.84473 5.42491 10.9597 4.75991 12.1797 4.75991C14.0147 4.75991 15.5047 6.25491 15.5047 8.08991C15.5047 8.45991 15.4397 8.82991 15.3247 9.16991H9.02973C8.90973 8.82991 8.84473 8.46991 8.84473 8.08991C8.84473 7.75991 8.89473 7.43491 8.98973 7.11991C9.05473 6.90491 9.14473 6.69491 9.25473 6.49491H9.25973ZM2.61473 5.50991C2.36973 5.06491 2.30973 4.54991 2.44973 4.05991C2.58973 3.56991 2.91473 3.16491 3.35973 2.91991C3.76473 2.69491 4.21973 2.62491 4.66973 2.71991C5.21473 2.83491 5.67973 3.17991 5.94973 3.66491L6.09473 3.92491C5.42973 3.77491 4.70973 3.85991 4.06473 4.21491C3.82473 4.34991 3.73473 4.65491 3.86973 4.89491C4.00473 5.13491 4.30973 5.22491 4.54973 5.08991C5.46973 4.57991 6.62973 4.91491 7.13973 5.83491C7.14973 5.85491 7.16973 5.87491 7.18473 5.89491L7.50473 6.46991C6.79973 6.28491 6.03473 6.36991 5.36973 6.73491C5.12973 6.86991 5.03973 7.17491 5.17473 7.41491C5.30973 7.65491 5.61473 7.74491 5.85473 7.60991C6.49973 7.24991 7.28473 7.30491 7.87973 7.72491C7.86973 7.84491 7.85473 7.96491 7.85473 8.08991C7.85473 8.46491 7.90473 8.82491 7.99473 9.16991H4.53973L2.62473 5.50491L2.61473 5.50991ZM21.6547 13.0949H2.34473V10.1749H8.42973C8.42973 10.1749 8.47473 10.1649 8.49973 10.1599C8.52473 10.1599 8.54472 10.1749 8.56973 10.1749H21.6547V13.0949Z" fill="#323232"/>
<path d="M12.1846 19.92C12.4596 19.92 12.6846 19.695 12.6846 19.42V15.625C12.6846 15.35 12.4596 15.125 12.1846 15.125C11.9096 15.125 11.6846 15.35 11.6846 15.625V19.42C11.6846 19.695 11.9096 19.92 12.1846 19.92Z" fill="#323232"/>
<path d="M8.15527 19.92C8.43027 19.92 8.65527 19.695 8.65527 19.42V15.625C8.65527 15.35 8.43027 15.125 8.15527 15.125C7.88027 15.125 7.65527 15.35 7.65527 15.625V19.42C7.65527 19.695 7.88027 19.92 8.15527 19.92Z" fill="#323232"/>
<path d="M16.29 19.92C16.565 19.92 16.79 19.695 16.79 19.42V15.625C16.79 15.35 16.565 15.125 16.29 15.125C16.015 15.125 15.79 15.35 15.79 15.625V19.42C15.79 19.695 16.015 19.92 16.29 19.92Z" fill="#323232"/>
</svg>
