<?xml version="1.0"?>
<svg width="109" height="40" viewBox="0 0 109 40" xmlns="http://www.w3.org/2000/svg">
    <title>everyday-rewards-logo</title>
    <g stroke="none" stroke-width="1" fill="#FD6400" fill-rule="evenodd">
                <path d="M44.3982363,26 L41.9747001,26 C41.5428207,26 41.3405891,26.2698914 41.2536236,26.5389558 L38.7443011,34.8463186 L36.3505395,26.5389558 C36.2352734,26.1609975 35.9749665,26 35.6014572,26 L32.600706,26 C32.2263123,26 31.9957801,26.1609975 31.8796296,26.5389558 L29.4864576,34.8463186 L27.0343259,26.5389558 C26.9476552,26.2423234 26.7457184,26 26.3132494,26 L23.6028745,26 C23.1403361,26 22.8812085,26.2966325 23.0536654,26.7821062 L27.0629213,38.4334761 C27.1793666,38.757401 27.4381995,39 27.8137724,39 L31.043287,39 C31.4185651,39 31.7071726,38.757401 31.7938433,38.4334761 L34.0142635,30.6386038 L36.2352734,38.4334761 C36.3219441,38.757401 36.6105515,39 37.0144251,39 L40.1578586,39 C40.5617322,39 40.8214494,38.757401 40.9364207,38.4334761 L44.9459714,26.7821062 C45.1193128,26.2966325 44.8593007,26 44.3982363,26" id="Fill-225"></path>
                <path d="M51.5435926,36.7338758 C49.3968803,36.7338758 47.7714997,35.0592857 47.7714997,32.9997194 C47.7714997,30.9407143 49.3968803,29.2941837 51.5435926,29.2941837 C53.6908979,29.2941837 55.2863272,30.9407143 55.2863272,32.9997194 C55.2863272,35.0592857 53.6908979,36.7338758 51.5435926,36.7338758 M58.4202483,26.384415 L55.867265,26.384415 C55.5766478,26.384415 55.2863272,26.6307772 55.2863272,26.9610374 L55.2863272,28.0034473 C54.5897355,26.8502024 52.9943063,26 51.0219643,26 C47.3364636,26 44,28.7181224 44,32.9725017 C44,37.2280034 47.3364636,40 50.9926061,40 C52.9655411,40 54.5609703,39.1492364 55.2863272,37.9968333 L55.2863272,39.0675833 C55.2863272,39.3689422 55.5481792,39.6161462 55.867265,39.6161462 L58.4202483,39.6161462 C58.7393342,39.6161462 59,39.3689422 59,39.0675833 L59,26.9610374 C59,26.6307772 58.7393342,26.384415 58.4202483,26.384415" id="Fill-227"></path>
                <path d="M67.4206346,26 L67.0680222,26 C65.7839468,26 64.7261095,26.7460467 64.0965548,27.8915279 L64.0965548,26.6659964 C64.0965548,26.3994345 63.8443211,26.1601005 63.5923447,26.1601005 L61.5029231,26.1601005 C61.2259808,26.1601005 61,26.3994345 61,26.7196356 L61,38.467693 C61,38.760666 61.2259808,39 61.5029231,39 L63.7189764,39 C63.9709527,39 64.247895,38.7870772 64.247895,38.4941041 L64.247895,32.7133312 C64.247895,30.5024191 65.179358,29.6229553 66.7910799,29.6229553 L67.3956686,29.6229553 C67.5969408,29.6229553 68,29.4898105 68,28.9569588 L68,26.6659964 C68,26.1328726 67.6726109,26 67.4206346,26" id="Fill-229"></path>
                <path d="M75.5438909,36.6491924 C73.3965006,36.6491924 71.7716489,34.9311839 71.7716489,32.8182176 C71.7716489,30.7058271 73.3965006,29.0166056 75.5438909,29.0166056 C77.6909846,29.0166056 79.2861803,30.7058271 79.2861803,32.8182176 C79.2861803,34.9311839 77.6909846,36.6491924 75.5438909,36.6491924 M82.9285291,21.3180964 C82.9077699,21.2775067 82.8822657,21.2397958 82.8534994,21.2055392 C82.838968,21.1885549 82.8265125,21.1709948 82.8107948,21.1563134 C82.7669039,21.1142844 82.7167853,21.0814672 82.6628114,21.0569983 C82.6527284,21.0521045 82.6438316,21.046635 82.633452,21.0426048 C82.5919336,21.0267719 82.5480427,21.0181358 82.5023725,21.0164086 C82.4741993,21.0120905 82.4489917,21 82.4196323,21 L79.866548,21 C79.5788849,21 79.2935943,21.2487197 79.2879597,21.5817854 L79.2879597,22.2810218 C79.2873665,22.2839005 79.2861803,22.2856277 79.2861803,22.2882185 L79.257414,27.6368443 C78.5607948,26.5092573 76.9362396,25.637011 74.9344603,25.637011 C71.3078292,25.637011 68,28.4535317 68,32.7902942 C68,37.1561316 71.3078292,40 74.9928826,40 C76.9658956,40 78.4736062,39.127178 79.2861803,37.9448956 L79.2861803,39.0434078 C79.2861803,39.3525802 79.5480427,39.6061938 79.8671412,39.6061938 L82.3911625,39.6061938 C82.739917,39.6061938 83,39.3525802 83,39.0434078 L83,21.5895579 C83,21.5213327 82.9848754,21.451956 82.9593713,21.3857459 C82.9510676,21.3618527 82.9397983,21.3405503 82.9285291,21.3180964" id="Fill-231"></path>
                <path d="M13.8081649,31.6270493 C14.1724963,29.9524592 15.5162009,28.8544915 17.139522,28.8544915 C18.6804179,28.8544915 20.1076926,29.8155289 20.4442627,31.6270493 L13.8081649,31.6270493 Z M17.1117607,26 C15.3630844,26 13.8287712,26.5637151 12.6338901,27.5042691 L12.6338901,28.3710266 C12.6338901,28.3710266 12.8147679,31.0972862 10.0580984,32.2084419 C10.0243269,32.4865114 10,32.7671063 10,33.0549966 C10,36.9805187 12.9684568,40 17.1961895,40 C18.568514,40 19.7161723,39.7252976 20.6958317,39.2864473 C21.7038248,38.8200986 22.5721528,38.1337636 23.1602919,37.3649337 C23.3288632,37.1455085 23.3288632,36.8435884 23.020913,36.6513809 L21.0324018,35.4437006 C20.723593,35.2787109 20.5003577,35.3612058 20.303739,35.5806309 C19.9122187,36.0194813 19.5487458,36.3222432 19.0725106,36.568886 C18.568514,36.8163707 17.9803749,36.9805187 17.2525707,36.9805187 C15.431486,36.9805187 13.9200687,35.7456207 13.7234499,33.8782619 L23.3563383,33.8782619 C23.8603349,33.8782619 24,33.6041207 24,33.2744218 L24,32.6164268 C24,29.1019762 21.2839708,26 17.1117607,26 L17.1117607,26 Z" id="Fill-233"></path>
                <path d="M91.8794225,31.6270493 L89.6652996,31.2154167 C88.4323348,30.9959915 87.9562225,30.5843588 87.9562225,29.9524592 C87.9562225,29.3214014 88.741149,28.7725578 89.9741138,28.7725578 C91.1509305,28.7725578 92.3008192,29.2941837 93.1688218,29.8980238 C93.6732946,30.1999439 94.0946913,30.1999439 94.43072,29.8155289 L95.327656,28.7725578 C95.6353243,28.4156412 95.6917588,28.0034473 95.2998685,27.6745901 C94.43072,26.9326973 92.6365614,26 90.0583358,26 C86.5823147,26 84.3406908,27.8395799 84.3406908,30.2271616 C84.3406908,32.3686616 85.7973882,33.7143945 87.9837236,34.1524031 L90.1419849,34.5923758 C91.5433938,34.8670782 92.3008192,35.1409388 92.3008192,35.9097687 C92.3008192,36.5961037 91.6001147,37.2280034 90.1419849,37.2280034 C88.7133614,37.2280034 87.5912603,36.6241632 86.6943243,35.8553333 C86.358582,35.5806309 85.9658323,35.3612058 85.4338584,35.7728384 L84.3959794,36.5961037 C83.8365044,37.0357959 83.7800699,37.6668537 84.817949,38.4356836 C85.8816103,39.2311701 87.6201938,40 89.9741138,40 C93.5334975,40 96,38.1337636 96,35.5806309 C96,33.1919269 94.2619895,32.0667415 91.8794225,31.6270493" id="Fill-235"></path>
                <path d="M7.14005459,7.85509083 C5.51599598,7.85509083 4.17147196,8.95296437 3.80747368,10.6273764 L10.4444809,10.6273764 C10.1080626,8.81551894 8.68022409,7.85509083 7.14005459,7.85509083 M14,11.6156879 L14,12.27475 C14,12.6037178 13.8603764,12.8786086 13.3561798,12.8786086 L3.72387187,12.8786086 C3.91980464,14.7448247 5.43153229,15.9801436 7.25238555,15.9801436 C7.98009481,15.9801436 8.56789313,15.8153781 9.07208963,15.5686523 C9.54813158,15.3216448 9.91184256,15.0197155 10.3042827,14.5803408 C10.4999282,14.3606534 10.7240155,14.2784115 11.031992,14.4428954 L13.0203361,15.6508942 C13.3283126,15.8426982 13.3283126,16.1446275 13.1605344,16.3643149 C12.5721615,17.132939 11.704254,17.8193212 10.6961482,18.2857344 C9.71590979,18.7251091 8.56789313,19 7.19607642,19 C2.96772075,19 0,15.9801436 0,12.0550627 C0,8.12913674 2.96772075,5 7.11161273,5 C11.2839466,5 14,8.1020983 14,11.6156879" id="Fill-237"></path>
                <path d="M18.1619881,18 C17.7647745,18 17.5093813,17.7573119 17.3955172,17.4335434 L13.052959,5.83598706 C12.882891,5.40429563 13.1382842,5 13.5922842,5 L16.3454056,5 C16.771158,5 16.9418084,5.24268807 17.05509,5.53933756 L20.1486386,14.4670484 L22.9867939,5.53933756 C23.0721192,5.24268807 23.2710172,5 23.6964784,5 L26.3931045,5 C26.8473958,5 27.102789,5.40429563 26.9606774,5.83598706 L22.6178279,17.4335434 C22.5327939,17.7573119 22.2491531,18 21.8798959,18 L18.1619881,18 Z" id="Fill-239"></path>
                <path d="M34.1400546,7.85509083 C32.5154214,7.85509083 31.171472,8.95296437 30.8080483,10.6273764 L37.4441936,10.6273764 C37.1080626,8.81551894 35.6802241,7.85509083 34.1400546,7.85509083 M41,11.6156879 L41,12.27475 C41,12.6037178 40.8603764,12.8786086 40.3561798,12.8786086 L30.7232973,12.8786086 C30.9198046,14.7448247 32.4321069,15.9801436 34.251811,15.9801436 C34.9800948,15.9801436 35.5678931,15.8153781 36.0720896,15.5686523 C36.5481316,15.3216448 36.9121299,15.0197155 37.3042827,14.5803408 C37.4999282,14.3606534 37.7240155,14.2784115 38.031992,14.4428954 L40.0203361,15.6508942 C40.3283126,15.8426982 40.3283126,16.1446275 40.1605344,16.3643149 C39.5721615,17.132939 38.704254,17.8193212 37.6961482,18.2857344 C36.7159098,18.7251091 35.5678931,19 34.1960764,19 C29.9677208,19 27,15.9801436 27,12.0550627 C27,8.12913674 29.9677208,5 34.1121873,5 C38.2839466,5 41,8.1020983 41,11.6156879" id="Fill-241"></path>
                <path d="M48.4210157,5 C48.6726582,5 49,5.13338379 49,5.66609899 L49,7.95685631 C49,8.48957151 48.5969587,8.6229553 48.3959548,8.6229553 L47.7913929,8.6229553 C46.180003,8.6229553 45.2483576,9.50197637 45.2483576,11.7131954 L45.2483576,17.4937976 C45.2483576,17.7873512 44.9713959,18 44.7194951,18 L42.5032849,18 C42.2263232,18 42,17.7605652 42,17.4672848 L42,5.71939784 C42,5.39987805 42.2263232,5.16016988 42.5032849,5.16016988 L44.5934155,5.16016988 C44.8455747,5.16016988 45.0969587,5.39987805 45.0969587,5.66609899 L45.0969587,6.89169926 C45.7265815,5.7459106 46.7845648,5 48.068613,5 L48.4210157,5 Z" id="Fill-243"></path>
                <path d="M50.2528126,22.5950166 C49.9992223,22.34216 49.970885,21.9209244 50.2247644,21.5833017 L51.0983062,20.3752409 C51.4363302,19.9254617 51.9160409,19.9819724 52.2534865,20.2348291 C52.732908,20.6001305 53.2964741,20.8815308 53.9731003,20.8815308 C54.8466421,20.8815308 55.4946419,20.2910515 55.8046177,19.4480038 L56.1302079,18.5446972 L54.8619674,18.5446972 C54.495317,18.5446972 54.270064,18.3198076 54.1575822,17.9827615 L50.0425958,5.87101473 C49.9295356,5.42123553 50.0139693,5 50.6347884,5 L53.5373414,5 C53.8753654,5 54.072281,5.28053536 54.1575822,5.58990273 L57.1168099,15.2569842 L59.9063028,5.58990273 C59.9913148,5.28053536 60.2162786,5 60.6393146,5 L63.4290966,5 C63.9365663,5 64.1057229,5.36501313 63.9365663,5.87101473 L59.383797,20.0099395 C58.594978,22.4266377 56.9042799,24 54.2266906,24 C52.6198478,24 51.1827399,23.466608 50.2528126,22.5950166" id="Fill-245"></path>
                <path d="M95.2528224,22.5950166 C94.9992301,22.34216 94.9708925,21.9209244 95.224774,21.5833017 L96.098323,20.3752409 C96.4363497,19.9254617 96.915486,19.9819724 97.2535127,20.2348291 C97.7329381,20.6001305 98.2965087,20.8815308 98.9725622,20.8815308 C99.8461111,20.8815308 100.494694,20.2910515 100.804673,19.4480038 L101.129687,18.5446972 L99.8614365,18.5446972 C99.4947831,18.5446972 99.2701067,18.3198076 99.1570455,17.9827615 L95.0426039,5.87101473 C94.9295428,5.42123553 95.0139772,5 95.634223,5 L98.5367998,5 C98.8754048,5 99.072322,5.28053536 99.1570455,5.58990273 L102.116587,15.2569842 L104.906391,5.58990273 C104.990826,5.28053536 105.21637,5 105.638831,5 L108.429214,5 C108.936688,5 109.105557,5.36501313 108.936688,5.87101473 L104.383592,20.0099395 C103.594478,22.4266377 101.903766,24 99.2267328,24 C97.619877,24 96.1827574,23.466608 95.2528224,22.5950166" id="Fill-247"></path>
                <path d="M87.0402874,15.7333521 C89.0443756,15.7333521 90.5336191,14.0589064 90.5336191,12 C90.5336191,9.94109363 89.0443756,8.29453185 87.0402874,8.29453185 C85.0361991,8.29453185 83.5197269,9.94109363 83.5197269,12 C83.5197269,14.0589064 85.0361991,15.7333521 87.0402874,15.7333521 M86.5529491,5 C88.3942208,5 89.8837422,5.85144651 90.5336191,7.00426508 L90.5336191,5.96101074 C90.5336191,5.63175472 90.8042391,5.38474228 91.0751369,5.38474228 L93.4584822,5.38474228 C93.7563309,5.38474228 94,5.63175472 94,5.96101074 L94,18.0668732 C94,18.3688086 93.7563309,18.615821 93.4584822,18.615821 L91.0751369,18.615821 C90.7772882,18.615821 90.5336191,18.3688086 90.5336191,18.0668732 L90.5336191,16.9962982 C89.8562356,18.1491168 88.36727,19 86.5257204,19 C83.1137969,19 80,16.2276586 80,11.9726794 C80,7.71770008 83.1137969,5 86.5529491,5" id="Fill-249"></path>
                <path d="M10.8168658,26.0002757 L7.78236098,26.0002757 C6.07107352,26.0002757 4.68332316,27.3097313 4.66937008,28.9287699 L4.66937008,26.5665119 C4.66937008,26.2423182 4.41269149,26 4.09990989,26 L2.83453969,26 L1.5691695,26 C1.2563879,26 1,26.2423182 1,26.5665119 L1,38.4610556 C1,38.7574061 1.25551583,39 1.56800674,39 L2.83453969,39 L4.10107264,39 C4.41356356,39 4.66907939,38.7574061 4.66937008,38.4610556 L4.67024214,31.0969527 C4.67024214,31.0790339 4.6714049,31.0608393 4.67431179,31.0431961 C4.79959885,30.2365715 5.16964623,29.5018979 5.75800122,28.9262888 C6.5704776,28.1320695 7.70474696,27.6945734 8.95238511,27.6945734 C9.03842912,27.6945734 9.10964798,27.7574273 9.11633383,27.8390271 C9.1224383,27.9206268 9.06168425,27.9928537 8.976803,28.004432 C8.95907096,28.0069131 7.25069039,28.2608096 6.2710677,29.5622707 C5.94317026,29.998664 5.73271126,30.502322 5.63823726,31.0699366 L7.88613703,31.0699366 C9.60585448,31.0699366 11,29.7477999 11,28.1169074 L11,26.1739508 C11,26.078016 10.9180256,26.0002757 10.8168658,26.0002757" id="Fill-251"></path>
                <path d="M71.5438909,15.6491924 C69.3965006,15.6491924 67.7716489,13.9311839 67.7716489,11.8182176 C67.7716489,9.7058271 69.3965006,8.01660556 71.5438909,8.01660556 C73.690688,8.01660556 75.2861803,9.7058271 75.2861803,11.8182176 C75.2861803,13.9311839 73.690688,15.6491924 71.5438909,15.6491924 M78.9285291,0.318096421 C78.9077699,0.277506742 78.8822657,0.239795764 78.8534994,0.205539226 C78.838968,0.188554892 78.8265125,0.170994818 78.8107948,0.156313445 C78.7669039,0.114284416 78.7167853,0.0814672283 78.6628114,0.0569982728 C78.6527284,0.0521044817 78.6438316,0.0466349505 78.633452,0.0426047696 C78.5919336,0.026771916 78.5480427,0.0181358141 78.5023725,0.0164085937 C78.4741993,0.0120905427 78.4489917,0 78.4196323,0 L75.866548,0 C75.5788849,0 75.2935943,0.248719736 75.2879597,0.5817854 L75.2879597,1.28102179 C75.2873665,1.28390049 75.2861803,1.28562771 75.2861803,1.28821854 L75.257414,6.63684434 C74.5607948,5.5092573 72.9362396,4.637011 70.9344603,4.637011 C67.3078292,4.637011 64,7.45353171 64,11.7902942 C64,16.1561316 67.3078292,19 70.9928826,19 C72.9658956,19 74.4736062,18.127178 75.2861803,16.9448956 L75.2861803,18.0434078 C75.2861803,18.3525802 75.5480427,18.6061938 75.8671412,18.6061938 L78.3911625,18.6061938 C78.739917,18.6061938 79,18.3525802 79,18.0434078 L79,0.589557892 C79,0.521332687 78.9848754,0.451956001 78.9593713,0.385745886 C78.9510676,0.361852671 78.9397983,0.340550286 78.9285291,0.318096421" id="Fill-253"></path>
    </g>
</svg>