<svg width="34" height="34" viewBox="0 0 34 34" fill="none" xmlns="http://www.w3.org/2000/svg">
<rect x="6.375" y="29.75" width="16.2917" height="1.41667" fill="#8DE2E0"/>
<circle cx="6.02083" cy="14.5208" r="3.89583" fill="#E40000"/>
<path fill-rule="evenodd" clip-rule="evenodd" d="M26.2054 3.02206C26.28 2.76099 26.1988 2.48026 25.9963 2.29933C25.7939 2.1184 25.5058 2.06912 25.2547 2.17246L25.5243 2.82749C25.2547 2.17246 25.2547 2.17246 25.2547 2.17246L25.2533 2.17308L25.2507 2.17412L25.2427 2.17747L25.215 2.18918C25.1915 2.1992 25.1581 2.21363 25.1159 2.23233C25.0315 2.26971 24.9116 2.32426 24.7651 2.39486C24.4729 2.53575 24.0713 2.74216 23.6325 3.0053C22.9036 3.4424 22.0069 4.07398 21.3614 4.86618C20.0621 4.21875 18.9138 4.00804 18.0505 3.97176C17.5715 3.95163 17.1828 3.98526 16.9072 4.02598C16.7693 4.04635 16.6595 4.06852 16.5805 4.08671C16.541 4.09581 16.5092 4.10392 16.4854 4.11032C16.4735 4.11352 16.4635 4.1163 16.4557 4.11856L16.4454 4.12156L16.4414 4.12275L16.4397 4.12326L16.439 4.1235C16.439 4.1235 16.4382 4.12372 16.6455 4.80106L16.4382 4.12372C16.2005 4.19647 16.0183 4.38853 15.9582 4.62977C15.8981 4.87102 15.9688 5.12612 16.1446 5.30192L17.8995 7.05676C17.1619 7.15872 16.4432 7.3863 15.7756 7.73343C14.6313 8.32847 13.6882 9.24829 13.0648 10.3774C12.9353 10.6119 12.9492 10.8994 13.1007 11.1204C13.2522 11.3413 13.5154 11.4579 13.7808 11.4216C14.9568 11.2609 16.145 11.2178 17.3279 11.2924C16.7147 12.4407 16.1351 14.5167 16.9443 17.7953C17.0112 18.0662 17.2308 18.2726 17.5054 18.3225C17.7799 18.3724 18.0581 18.2565 18.216 18.0264C18.401 17.7569 19.2537 16.2668 20.0969 14.7815C20.6875 13.7413 21.2909 12.6721 21.698 11.9494L26.9586 18.0861C27.1517 18.3113 27.4647 18.3923 27.7428 18.2892C28.0209 18.186 28.2053 17.9204 28.2048 17.6238C28.2018 15.9734 27.9052 14.3436 27.3356 12.8086C28.2463 13.3666 29.1889 13.872 30.1589 14.322C30.3711 14.4204 30.6182 14.4077 30.8192 14.2881C31.0202 14.1685 31.1492 13.9574 31.164 13.724L30.457 13.6794C31.164 13.724 31.164 13.7231 31.164 13.7231L31.1642 13.7203L31.1644 13.7157L31.165 13.7033C31.1653 13.6979 31.1655 13.6916 31.1658 13.6844C31.166 13.679 31.1662 13.6731 31.1663 13.6667C31.1671 13.6371 31.1676 13.5972 31.1669 13.5479C31.1656 13.4494 31.1596 13.3129 31.1421 13.1453C31.1071 12.8104 31.0258 12.3486 30.8413 11.8172C30.5649 11.0209 30.0604 10.0791 29.1535 9.18175C29.583 9.06498 29.9248 8.92808 30.1931 8.79276C30.4478 8.66438 30.6339 8.53863 30.7642 8.43553C30.8293 8.38408 30.8801 8.33854 30.9183 8.30154C30.9374 8.28304 30.9533 8.26671 30.9663 8.25287C30.9728 8.24595 30.9785 8.23966 30.9836 8.23403L30.9906 8.2261L30.9937 8.22252L30.9951 8.22083L30.9958 8.22001C30.9958 8.22001 30.9965 8.21921 30.457 7.76018L30.9965 8.21921C31.1183 8.076 31.1783 7.89022 31.163 7.70281C31.1478 7.5154 31.0587 7.34173 30.9153 7.22008L30.457 7.76018C30.9153 7.22008 30.9153 7.22008 30.9153 7.22008L30.9143 7.21923L30.9131 7.21817L30.9098 7.21543L30.9003 7.20752C30.8961 7.20409 30.8912 7.20005 30.8855 7.19543C30.8807 7.19152 30.8754 7.18718 30.8695 7.18245C30.8437 7.16181 30.8077 7.1335 30.762 7.09899C30.6705 7.03004 30.5397 6.93594 30.3741 6.82853C30.044 6.6144 29.5694 6.3434 28.9875 6.11398C28.0641 5.74999 26.84 5.48025 25.493 5.73872C25.6131 5.23612 25.7422 4.73183 25.8578 4.29443C25.9552 3.92553 26.0423 3.60679 26.105 3.38043C26.1363 3.26729 26.1616 3.17732 26.1789 3.11581L26.1987 3.04558L26.2054 3.02206ZM29.0939 7.71928C28.9078 7.62145 28.6978 7.52255 28.4679 7.43194C27.5176 7.05731 26.2755 6.84085 24.9622 7.36423C24.836 7.41691 24.6983 7.43623 24.5623 7.42013C24.418 7.40305 24.2811 7.34675 24.1665 7.25732C24.0519 7.1679 23.9641 7.0488 23.9125 6.91297C23.8608 6.77713 23.8474 6.62974 23.8737 6.4868L23.8767 6.47143C24.0294 5.73241 24.2386 4.88832 24.4222 4.18387C24.4019 4.19586 24.3815 4.20798 24.3611 4.22024C23.5517 4.70565 22.6991 5.34939 22.2413 6.06017L21.6458 5.67661L22.2425 6.05821C22.125 6.242 21.9409 6.37322 21.7288 6.42439C21.5193 6.47494 21.2985 6.44351 21.1116 6.33673C19.9796 5.69991 18.9888 5.46932 18.2503 5.40411L19.9686 7.1224C20.0792 7.23119 20.1546 7.37085 20.1847 7.52322C20.2159 7.68081 20.1971 7.84419 20.1311 7.99064C20.0651 8.13708 19.955 8.2593 19.8163 8.34027C19.6775 8.42125 19.517 8.45695 19.357 8.44242L19.3453 8.44125C18.3404 8.33302 17.3259 8.52404 16.4292 8.99032C15.9825 9.22259 15.575 9.518 15.2181 9.86538C16.3221 9.80902 17.43 9.84757 18.5294 9.98111C18.5382 9.98218 18.547 9.98342 18.5558 9.98482C18.7 10.0079 18.8352 10.0699 18.9468 10.1642C19.0583 10.2586 19.142 10.3816 19.1887 10.52C19.2354 10.6584 19.2434 10.8069 19.2119 10.9496C19.1809 11.0896 19.1129 11.2187 19.015 11.3235C18.7683 11.5906 17.7576 12.846 18.0011 15.5976C18.2641 15.1387 18.5606 14.6182 18.8649 14.0821C19.721 12.5742 20.6045 11.0045 20.876 10.5219L20.8786 10.5173C20.9452 10.4009 21.0391 10.3025 21.1521 10.2304C21.2652 10.1583 21.394 10.1147 21.5276 10.1033C21.6612 10.092 21.7956 10.1132 21.9191 10.1652C22.0397 10.2159 22.1465 10.2945 22.2309 10.3943L26.6005 15.4916C26.3411 14.0116 25.8158 12.5847 25.0443 11.2818C24.9569 11.1399 24.919 10.9725 24.9373 10.806C24.9572 10.6257 25.0417 10.4587 25.1753 10.3359C25.3088 10.2131 25.4824 10.1429 25.6637 10.1382C25.8349 10.1338 26.0022 10.1881 26.1379 10.2915C27.221 11.0955 28.3638 11.8147 29.5559 12.4431C29.5396 12.3905 29.522 12.3366 29.503 12.2817C29.2187 11.4626 28.6047 10.3864 27.2563 9.44058C27.1261 9.35048 27.0263 9.22283 26.9704 9.07457C26.9131 8.92284 26.9046 8.757 26.946 8.60013C26.9875 8.44327 27.0768 8.30327 27.2015 8.19959C27.322 8.09941 27.4698 8.03794 27.6256 8.023C28.265 7.95555 28.744 7.83922 29.0939 7.71928ZM28.0549 8.27051C28.0585 8.27291 28.062 8.27535 28.0655 8.27782L28.0549 8.27051ZM21.1442 11.3031L21.1514 11.3117C21.149 11.3089 21.1466 11.306 21.1442 11.3031ZM17.9839 10.352L17.9779 10.3585C17.9799 10.3563 17.9819 10.3542 17.9839 10.352ZM21.8188 5.10925L21.8111 5.10482C21.8137 5.10628 21.8163 5.10775 21.8188 5.10925Z" fill="#323232"/>
<path d="M25.0892 30.9932C25.2462 31.1881 25.2899 31.4549 25.1976 31.6934C25.0919 31.9659 24.8297 32.1464 24.5374 32.1465H4.80596C4.52067 32.1465 4.26305 31.9749 4.15264 31.7119C4.04236 31.4487 4.10105 31.1449 4.30108 30.9414C5.59754 29.6235 7.1436 28.5762 8.84893 27.8623C10.554 27.1486 12.3843 26.782 14.2327 26.7832L25.0892 30.9932ZM14.2327 26.7832C17.3759 26.7833 20.0694 27.8192 21.9632 28.8408C22.9124 29.3529 23.6687 29.8656 24.1897 30.252C24.4721 30.4613 24.7534 30.6766 25.014 30.9131L14.2327 26.7832ZM14.2327 28.2002C12.5722 28.199 10.9276 28.5287 9.3958 29.1699C8.42785 29.5751 7.5171 30.0996 6.68389 30.7295H22.3831C22.0596 30.5236 21.6939 30.3056 21.2903 30.0879C19.5268 29.1366 17.0673 28.2003 14.2327 28.2002Z" fill="#323232"/>
<path fill-rule="evenodd" clip-rule="evenodd" d="M21.4662 10.0205C21.8526 9.95953 22.2153 10.2234 22.2762 10.6098C23.0191 15.3203 23.3564 22.539 18.2419 28.3953C17.9845 28.6899 17.5371 28.7202 17.2424 28.4628C16.9478 28.2055 16.9175 27.758 17.1748 27.4634C21.8566 22.1027 21.6039 15.4408 20.8769 10.8305C20.8159 10.4441 21.0798 10.0814 21.4662 10.0205Z" fill="#323232"/>
</svg>
