<svg width="34" height="34" viewBox="0 0 34 34" fill="none" xmlns="http://www.w3.org/2000/svg">
<g clip-path="url(#clip0_2149_10867)">
<path d="M32.4401 24.5797C32.4401 24.9339 31.6609 25.2172 30.7401 25.2172H2.97344C2.0526 25.2172 1.27344 24.9339 1.27344 24.5797V23.3047C1.27344 23.3047 2.0526 23.3047 2.97344 23.3047H30.7401C31.6609 23.3047 32.4401 23.3047 32.4401 23.3047V24.5797Z" fill="#8AE2E1"/>
<path d="M30.1052 14.7331H28.1927C27.7677 14.7331 27.4844 14.4497 27.4844 14.0247C27.4844 13.5997 27.7677 13.3164 28.1927 13.3164H30.1052C30.5302 13.3164 30.8135 13.5997 30.8135 14.0247C30.8135 14.4497 30.5302 14.7331 30.1052 14.7331Z" fill="#323232"/>
<path d="M17.5648 14.7331H16.3607C15.9357 14.7331 15.6523 14.4497 15.6523 14.0247C15.6523 13.5997 15.9357 13.3164 16.3607 13.3164H17.5648C17.9898 13.3164 18.2732 13.5997 18.2732 14.0247C18.2732 14.4497 17.919 14.7331 17.5648 14.7331Z" fill="#323232"/>
<path d="M5.6651 14.7331H4.10677C3.68177 14.7331 3.39844 14.4497 3.39844 14.0247C3.39844 13.5997 3.68177 13.3164 4.10677 13.3164H5.6651C6.0901 13.3164 6.37344 13.5997 6.37344 14.0247C6.37344 14.4497 6.0901 14.7331 5.6651 14.7331Z" fill="#323232"/>
<path d="M31.0247 26.2799H2.97474C1.62891 26.2799 0.566406 25.2174 0.566406 23.8716V20.2591C0.566406 19.8341 0.84974 19.5508 1.27474 19.5508H32.6539C33.0789 19.5508 33.3622 19.8341 33.3622 20.2591V23.8716C33.4331 25.2174 32.2997 26.2799 31.0247 26.2799ZM1.98307 20.9674V23.8716C1.98307 24.4383 2.40807 24.8633 2.97474 24.8633H30.9539C31.5206 24.8633 31.9456 24.4383 31.9456 23.8716V20.9674H1.98307Z" fill="#323232"/>
<path d="M3.82552 27.9091C3.40052 27.9091 3.11719 27.6258 3.11719 27.2008V25.5716C3.11719 25.1466 3.40052 24.8633 3.82552 24.8633C4.25052 24.8633 4.53385 25.1466 4.53385 25.5716V27.2008C4.53385 27.6258 4.25052 27.9091 3.82552 27.9091Z" fill="#323232"/>
<path d="M30.1732 27.9091C29.7482 27.9091 29.4648 27.6258 29.4648 27.2008V25.5716C29.4648 25.1466 29.7482 24.8633 30.1732 24.8633C30.5982 24.8633 30.8815 25.1466 30.8815 25.5716V27.2008C30.8815 27.6258 30.5273 27.9091 30.1732 27.9091Z" fill="#323232"/>
<path d="M1.27382 20.9663C1.20299 20.9663 1.06132 20.9663 0.990485 20.8954C0.636318 20.7538 0.494652 20.3288 0.636318 19.9746L3.18632 14.1663C3.32799 13.8121 3.75299 13.6704 4.10715 13.8121C4.46132 13.9538 4.60299 14.3788 4.46132 14.7329L1.91132 20.5413C1.84049 20.8246 1.55715 20.9663 1.27382 20.9663Z" fill="#323232"/>
<path d="M32.7262 20.9663C32.4428 20.9663 32.1595 20.8246 32.0887 20.5413L29.5387 14.7329C29.397 14.3788 29.5387 13.9538 29.8928 13.8121C30.247 13.6704 30.672 13.8121 30.8137 14.1663L33.3637 19.9746C33.5053 20.3288 33.3637 20.7538 33.0095 20.8954C32.8678 20.9663 32.797 20.9663 32.7262 20.9663Z" fill="#323232"/>
<path d="M30.1755 15.2293C29.7505 15.2293 29.4672 14.946 29.4672 14.521V8.50013C29.4672 7.93346 29.0422 7.50846 28.4755 7.50846H5.52552C4.95885 7.50846 4.53385 7.93346 4.53385 8.50013V14.521C4.53385 14.946 4.25052 15.2293 3.82552 15.2293C3.40052 15.2293 3.11719 14.946 3.11719 14.521V8.50013C3.11719 7.1543 4.17969 6.0918 5.52552 6.0918H28.4047C29.7505 6.0918 30.813 7.1543 30.813 8.50013V14.521C30.8839 14.8751 30.5297 15.2293 30.1755 15.2293Z" fill="#323232"/>
<path d="M26.7727 11.5454C26.7727 11.6871 26.7018 11.8996 26.7018 12.0412C26.7018 12.6787 26.7018 14.1662 26.7018 14.3787C26.7018 14.6621 26.8435 15.0162 26.8435 15.0162C27.2685 16.0079 27.056 16.0787 27.056 16.0787C27.056 16.0787 26.8435 16.2912 26.206 16.0079C25.9935 15.9371 25.781 15.8662 25.4977 15.8662H20.681H20.4685C20.1852 15.8662 19.831 16.0079 19.831 16.0079C18.8393 16.4329 18.7685 16.2204 18.7685 16.2204C18.7685 16.2204 18.556 15.9371 18.9102 15.2287C18.981 15.0871 19.0518 14.8746 19.0518 14.7329V14.3787V14.3079C19.0518 14.3079 19.0518 12.0412 19.0518 11.6871C19.0518 11.4037 18.9102 11.0496 18.9102 11.0496C18.4852 10.0579 18.6977 9.98705 18.6977 9.98705C18.6977 9.98705 18.981 9.77455 19.7602 10.1287C19.831 10.1996 19.9018 10.1996 19.9727 10.1996H25.5685C25.5685 10.1996 25.8518 10.1996 26.0643 10.1287C26.2768 10.0579 26.7018 9.91622 26.9143 9.98705C27.1268 10.0579 27.1268 10.2704 27.1268 10.2704C27.1268 10.2704 26.7727 11.2621 26.7727 11.5454Z" fill="#E70000"/>
<path d="M14.8742 11.5454C14.8742 11.6871 14.8034 11.8996 14.8034 12.0412C14.8034 12.6787 14.8034 14.1662 14.8034 14.3787C14.8034 14.6621 14.9451 15.0162 14.9451 15.0162C15.3701 16.0079 15.1576 16.0787 15.1576 16.0787C15.1576 16.0787 14.9451 16.2912 14.3076 16.0079C14.0951 15.9371 13.8826 15.8662 13.5992 15.8662H8.78255H8.57005C8.28672 15.8662 7.93255 16.0079 7.93255 16.0079C6.94089 16.4329 6.87005 16.2204 6.87005 16.2204C6.87005 16.2204 6.65755 15.9371 7.01172 15.2287C7.08255 15.0871 7.15339 14.8746 7.15339 14.7329V14.3787V14.3079C7.15339 14.3079 7.15339 12.0412 7.15339 11.6871C7.15339 11.4037 7.01172 11.0496 7.01172 11.0496C6.58672 10.0579 6.79922 9.98705 6.79922 9.98705C6.79922 9.98705 7.08255 9.77455 7.86172 10.1287C7.93255 10.1996 8.00339 10.1996 8.07422 10.1996H13.6701C13.6701 10.1996 13.9534 10.1996 14.1659 10.1287C14.3784 10.0579 14.8034 9.91622 15.0159 9.98705C15.2284 10.0579 15.2284 10.2704 15.2284 10.2704C15.2284 10.2704 14.9451 11.2621 14.8742 11.5454Z" fill="#E70000"/>
</g>
<defs>
<clipPath id="clip0_2149_10867">
<rect width="34" height="34" fill="white"/>
</clipPath>
</defs>
</svg>
