<svg width="32" height="32" viewBox="0 0 32 32" fill="none" xmlns="http://www.w3.org/2000/svg">
<path fill-rule="evenodd" clip-rule="evenodd" d="M7.16894 21.9142C5.78438 20.317 5.16559 17.9247 4.71933 16.1994C4.47302 15.2471 4.27926 14.498 4.03832 14.198C3.40644 13.4142 2.58082 19.1048 6.33269 23.6036C8.86082 26.333 12.0921 27.2498 13.7671 27.2498C14.7414 27.2498 15.1027 26.9892 14.3046 26.7005C13.5483 26.4273 9.11707 24.5105 7.16894 21.9142ZM18.1266 20.3749C18.1266 20.7205 17.8466 20.9999 17.5016 20.9999C17.1566 20.9999 16.8766 20.7205 16.8766 20.3749C16.8766 20.0293 17.1566 19.7499 17.5016 19.7499C17.8466 19.7499 18.1266 20.0293 18.1266 20.3749ZM11.2516 15.9999C11.5966 15.9999 11.8766 15.7199 11.8766 15.3749C11.8766 15.0299 11.5966 14.7499 11.2516 14.7499C10.9066 14.7499 10.6266 15.0299 10.6266 15.3749C10.6266 15.7199 10.9066 15.9999 11.2516 15.9999Z" fill="#8DE2E0"/>
<path fill-rule="evenodd" clip-rule="evenodd" d="M14.9998 2.25C16.8214 2.25 18.5943 2.60495 20.2445 3.28602C20.2606 3.29265 20.2762 3.29988 20.2914 3.30767C22.9763 4.42849 25.2419 6.37951 26.753 8.86146C26.7608 8.87268 26.7683 8.88422 26.7755 8.89609C28.0605 11.0217 28.75 13.461 28.75 16.0001C28.75 23.5942 22.5943 29.7501 15 29.7501C7.40607 29.7501 1.25 23.594 1.25 16.0001C1.25 12.5831 2.50163 9.35955 4.72826 6.85939C4.95783 6.60162 5.3529 6.57876 5.61067 6.80833C5.86844 7.0379 5.8913 7.43296 5.66174 7.69073C3.63708 9.96411 2.5 12.8926 2.5 16.0001C2.5 22.9036 8.09643 28.5001 15 28.5001C21.904 28.5001 27.5 22.9039 27.5 16.0001C27.5 13.8531 26.9587 11.7871 25.9443 9.9549C25.871 10.0086 25.7915 10.0849 25.7 10.1891L25.6308 10.2704C25.6044 10.3024 25.5144 10.4231 25.395 10.5833C25.1417 10.923 24.7564 11.4399 24.5656 11.6626C24.4438 11.8047 24.3202 11.9389 24.192 12.0671C23.7405 12.5185 23.2717 12.8456 22.7692 13.0686C22.0758 13.3764 21.5318 13.4578 20.4116 13.4902L19.9027 13.5036C19.6744 13.515 19.6853 13.5606 19.7725 13.9258L19.7726 13.9261C19.7852 13.9789 19.8 14.0338 19.8179 14.0942L19.8955 14.3372L20.0198 14.7115C20.106 14.9633 20.1822 14.9885 21.0917 15.2891C21.1984 15.3244 21.3166 15.3635 21.4477 15.4072C22.7155 15.8298 22.9731 16.86 22.3269 17.8939C21.8962 18.5831 21.0561 19.2959 20.2796 19.6841C20.0756 19.7861 19.9977 20.04 20.0344 20.5986L20.0468 20.7537L20.1213 21.4432C20.1983 22.2219 20.1461 22.4335 19.7656 22.738C19.6567 22.8253 19.5387 22.8953 19.3864 22.969L19.221 23.0445C19.1319 23.0832 18.932 23.17 18.8306 23.2164L18.7937 23.2335C18.3379 23.451 18.1505 23.6514 18.1275 24.0391L18.1251 24.1251C18.1251 24.4208 18.0793 24.8325 17.9367 25.2603C17.6654 26.0742 17.1145 26.6251 16.2501 26.6251C14.7014 26.6251 13.476 23.6771 13.747 22.2004L13.7673 22.1042C13.9018 21.5443 13.75 21.1001 13.433 20.9137C12.7674 20.522 12.4486 20.1041 12.0343 19.0375L11.913 18.7146C11.8282 18.4826 11.7976 18.4584 11.7166 18.4584C11.5955 18.4584 11.4645 18.4939 11.1261 18.6268L10.8304 18.7457C10.3927 18.9244 10.1281 19.016 9.82075 19.076C9.6749 19.1044 9.53256 19.1211 9.39125 19.1249C7.24683 19.1805 6.42952 15.0421 8.24192 12.5112C8.44289 12.2306 8.83331 12.166 9.11395 12.367C9.39459 12.568 9.45918 12.9584 9.25821 13.239C8.56148 14.2119 8.33526 15.4125 8.54908 16.4951C8.71719 17.3463 9.12321 17.8814 9.35825 17.8754C9.42666 17.8735 9.50081 17.8648 9.58154 17.8491C9.76311 17.8137 9.94629 17.7533 10.2417 17.6354L10.7321 17.4382C11.2027 17.2546 11.4007 17.2085 11.7163 17.2084C12.3537 17.2083 12.8312 17.5852 13.0872 18.2859L13.1922 18.5677C13.4745 19.3063 13.6376 19.5538 13.95 19.7633L14.0668 19.8364C14.8924 20.3218 15.238 21.3331 14.9828 22.396C14.7984 23.1642 15.6922 25.3751 16.2501 25.3751C16.4794 25.3751 16.6316 25.2229 16.7509 24.865C16.8039 24.706 16.8395 24.5281 16.8594 24.3491L16.873 24.189L16.8751 24.1251C16.8751 23.1658 17.3292 22.5824 18.1324 22.1665L18.2555 22.1053C18.3118 22.0784 18.4212 22.0298 18.5231 21.9851L18.8005 21.8634L18.8888 21.8195L18.889 21.736C18.8866 21.6584 18.8783 21.5647 18.8589 21.3891L18.8111 20.9612C18.8005 20.8582 18.7931 20.7718 18.7871 20.6805C18.7241 19.7212 18.9208 19.0248 19.613 18.624L19.7206 18.5661C20.3028 18.275 20.9668 17.7116 21.2669 17.2314C21.4991 16.8599 21.4911 16.7512 21.1252 16.6183L20.5767 16.4323C19.2768 15.9837 19.0785 15.8071 18.8119 15.0355L18.695 14.6889C18.6351 14.508 18.5918 14.3631 18.5568 14.2166C18.2943 13.1182 18.7032 12.2824 19.9844 12.2503L20.1792 12.2457C21.2794 12.2206 21.727 12.1637 22.262 11.9261C22.6212 11.7667 22.9631 11.5282 23.3081 11.1832C23.4128 11.0785 23.5148 10.9678 23.6164 10.8491L23.7182 10.7249C23.8857 10.5144 24.1376 10.1773 24.3422 9.90341C24.4959 9.69781 24.6229 9.52784 24.6675 9.47384C24.858 9.24355 25.047 9.0572 25.2456 8.91648L25.2819 8.892L25.2378 8.82775C23.9842 7.04235 22.2807 5.60766 20.3019 4.6792L20.0138 4.54825L19.9046 4.59598C19.7737 4.6522 19.6327 4.71056 19.4765 4.7734L18.4258 5.18486C16.4324 5.96801 15.6253 6.53444 15.6251 7.2495C15.6251 7.46298 15.6417 7.49513 15.6682 7.50833C15.7267 7.53745 15.8289 7.55211 16.0531 7.55635L16.2454 7.55763C17.4855 7.55453 18.1251 7.87602 18.1251 9.12512C18.1251 11.3586 15.8528 13.0628 14.0956 12.1841L12.9559 11.6126C12.9167 11.5934 12.8836 11.5774 12.8564 11.5644C12.5447 11.4161 12.4124 11.0431 12.5607 10.7315C12.7091 10.4198 13.0821 10.2874 13.3937 10.4358L14.6546 11.0661C15.5223 11.5 16.8751 10.4854 16.8751 9.12512L16.8746 9.02807C16.8701 8.82836 16.8276 8.80835 16.4314 8.80737L16.2485 8.80763C15.6754 8.80907 15.4273 8.78485 15.1108 8.62716C14.6232 8.38423 14.3751 7.90547 14.3751 7.24929C14.3755 5.85126 15.3455 5.09286 17.5642 4.18361L18.1275 3.9595C18.1582 3.94753 18.1918 3.93446 18.2272 3.92069C17.1846 3.64279 16.1024 3.5 14.9998 3.5C13.059 3.5 11.1823 3.94249 9.47994 4.78182C9.17034 4.93446 8.79563 4.80722 8.64299 4.49763C8.49035 4.18803 8.61759 3.81332 8.92718 3.66068C10.8006 2.73705 12.8662 2.25 14.9998 2.25Z" fill="#323232"/>
<path fill-rule="evenodd" clip-rule="evenodd" d="M2.47266 3.44336C5.86481 3.44336 8.39817 5.37362 10.1763 8.53476C10.7869 9.62029 11.2646 10.7784 11.6264 11.9361C11.7277 12.2602 11.8141 12.5662 11.8864 12.8493L11.9245 13.0027L12.1224 13.0156C14.2437 13.1805 15.8124 14.102 16.8759 15.544L16.9879 15.7005C17.6882 16.7085 18.0178 17.712 18.1193 18.4104C18.1689 18.752 17.9322 19.0691 17.5907 19.1187C17.2491 19.1684 16.9319 18.9317 16.8823 18.5901C16.865 18.4712 16.813 18.2387 16.7122 17.9318C16.5419 17.4134 16.2956 16.8948 15.9613 16.4137C15.0139 15.05 13.5592 14.239 11.4214 14.239C11.1207 14.239 10.8625 14.0248 10.8071 13.7292L10.7772 13.585C10.7633 13.5215 10.7452 13.4428 10.7229 13.3503C10.6474 13.037 10.5514 12.6868 10.4333 12.3089C10.0959 11.2293 9.65077 10.1502 9.08683 9.14758C7.5091 6.34271 5.34441 4.69336 2.47266 4.69336C2.12748 4.69336 1.84766 4.41354 1.84766 4.06836C1.84766 3.72318 2.12748 3.44336 2.47266 3.44336Z" fill="#E40000"/>
</svg>
