<svg width="48" height="48" viewBox="0 0 48 48" fill="none" xmlns="http://www.w3.org/2000/svg">
<path fill-rule="evenodd" clip-rule="evenodd" d="M23.9999 48C10.7665 48 0 37.2335 0 23.9999C0 10.7662 10.7665 0 23.9999 0C37.2335 0 48 10.7662 48 23.9999C48 37.2335 37.2335 48 23.9999 48Z" fill="#E40000"/>
<path fill-rule="evenodd" clip-rule="evenodd" d="M22.2129 7.90129C22.2411 8.52895 22.6444 8.94776 23.3158 8.91757C23.9875 8.88737 24.3516 8.43412 24.3233 7.80618L24.2268 5.65226C24.1983 5.02403 23.795 4.60522 23.1233 4.63542C22.4519 4.66561 22.0876 5.11886 22.1161 5.74709L22.2129 7.90129ZM25.2305 7.7663C25.2638 8.50741 24.9496 9.09838 24.414 9.4283L25.3369 10.7152L24.2816 10.7626L23.5349 9.70375C23.4829 9.71476 23.4138 9.72689 23.3526 9.72943C22.1929 9.78164 21.3663 9.09359 21.3146 7.9424L21.2175 5.7882C21.1659 4.63674 21.8573 3.88038 23.087 3.82507C24.2557 3.77258 25.082 4.46063 25.1334 5.61181L25.2305 7.7663Z" fill="#FFFFFE"/>
<path fill-rule="evenodd" clip-rule="evenodd" d="M28.1474 8.20287L29.6383 8.6708L29.6857 5.89458L28.1474 8.20287ZM26.2031 9.61753L29.6028 4.67188L30.5028 4.95381L30.4768 10.9581L29.5853 10.6781L29.6053 9.4767L27.7144 8.88347L27.0447 9.88141L26.2031 9.61753Z" fill="#FFFFFE"/>
<path fill-rule="evenodd" clip-rule="evenodd" d="M34.4233 13.8967L33.8414 13.4359L34.5605 8.92654L32.0888 12.0485L31.4453 11.5388L35.0064 7.04102L35.6157 7.52333L34.9113 11.9441L37.3342 8.88392L37.9847 9.39898L34.4233 13.8967Z" fill="#FFFFFE"/>
<path fill-rule="evenodd" clip-rule="evenodd" d="M39.821 11.4141L41.8815 14.5631L41.2019 15.0076L40.4179 13.8096L36.2972 16.5059L35.8047 15.7532L39.9254 13.0569L39.1414 11.8586L39.821 11.4141Z" fill="#FFFFFE"/>
<path fill-rule="evenodd" clip-rule="evenodd" d="M39.4907 18.796L39.9132 20.3008L42.2644 18.8245L39.4907 18.796ZM37.2461 17.9375L43.2456 18.0857L43.5004 18.9933L38.4563 22.2498L38.2037 21.3504L39.2214 20.7112L38.686 18.8028L37.4843 18.7864L37.2461 17.9375Z" fill="#FFFFFE"/>
<path fill-rule="evenodd" clip-rule="evenodd" d="M42.3192 26.2522L42.4758 26.2632C42.981 26.2993 43.3719 25.9686 43.4142 25.3762C43.4563 24.7841 43.1757 24.4226 42.7403 24.3921C42.4439 24.3706 42.151 24.551 41.9746 24.9413L41.5823 25.7798C41.2722 26.4492 40.8638 27.1466 39.8359 27.0738C38.8171 27.0009 38.1835 26.1856 38.2648 25.0449C38.3466 23.8954 39.0392 23.1393 40.0583 23.2118L40.2237 23.2237L40.1613 24.1031L39.961 24.0887C39.4383 24.0517 39.0621 24.4186 39.0155 25.072C38.9673 25.7513 39.3065 26.1517 39.8029 26.187C40.2731 26.2203 40.5389 25.9243 40.7469 25.4662L41.1378 24.6452C41.468 23.9422 41.9484 23.4687 42.7406 23.5251C43.6115 23.5872 44.2414 24.3323 44.163 25.4292C44.0859 26.5181 43.3964 27.2219 42.3776 27.1491L42.2557 27.1406L42.3192 26.2522Z" fill="#FFFFFE"/>
<path fill-rule="evenodd" clip-rule="evenodd" d="M8.83213 23.1261L6.67539 23.119L6.67257 24.0357C6.67059 24.7167 7.10521 25.1547 7.75997 25.1567C8.40598 25.1589 8.82677 24.7238 8.82874 24.0428L8.83213 23.1261ZM9.6296 22.2298L9.6234 24.1157C9.61973 25.2507 8.88369 26.0774 7.77484 26.074C6.62225 26.07 5.88311 25.2383 5.88678 24.1035L5.88988 23.1169L3.89062 23.1104L3.89373 22.2109L9.6296 22.2298Z" fill="#FFFFFE"/>
<path fill-rule="evenodd" clip-rule="evenodd" d="M6.45301 29.3948C5.86345 29.6132 5.58716 30.1246 5.82027 30.7551C6.05339 31.3859 6.59582 31.5947 7.18538 31.3768L9.20835 30.6292C9.79819 30.4114 10.0742 29.8994 9.84109 29.2689C9.60797 28.6382 9.06526 28.429 8.4757 28.6472L6.45301 29.3948ZM7.50075 32.2292C6.41956 32.6289 5.46452 32.1347 5.05897 31.0371C4.65652 29.9483 5.06038 28.9518 6.14157 28.5522L8.16426 27.8043C9.24545 27.4046 10.1762 27.8333 10.6032 28.9882C11.0088 30.0852 10.6046 31.082 9.52344 31.4816L7.50075 32.2292Z" fill="#FFFFFE"/>
<path fill-rule="evenodd" clip-rule="evenodd" d="M8.01914 36.2448L7.48828 35.5189L12.1193 32.1328L12.6501 32.859L8.01914 36.2448Z" fill="#FFFFFE"/>
<path fill-rule="evenodd" clip-rule="evenodd" d="M13.1219 41.0461L12.5371 40.5889L13.2269 36.0753L10.7758 39.2125L10.1289 38.7073L13.6606 34.1875L14.2731 34.6659L13.5971 39.0903L16 36.0149L16.6536 36.5257L13.1219 41.0461Z" fill="#FFFFFE"/>
<path fill-rule="evenodd" clip-rule="evenodd" d="M17.6897 37.0742L21.264 38.2525L21.0097 39.0238L19.6497 38.5756L18.1079 43.2529L17.2539 42.9712L18.7954 38.294L17.4354 37.8458L17.6897 37.0742Z" fill="#FFFFFE"/>
<path fill-rule="evenodd" clip-rule="evenodd" d="M25.1132 40.0716L25.1115 39.9147C25.1062 39.4084 24.7444 39.0454 24.1509 39.0516C23.5571 39.0581 23.2198 39.3672 23.2243 39.8038C23.2274 40.1007 23.4315 40.3778 23.8345 40.522L24.7023 40.8446C25.3949 41.0992 26.1233 41.4491 26.1343 42.4795C26.145 43.5009 25.3845 44.1988 24.2406 44.2109C23.0883 44.2234 22.2783 43.5946 22.2673 42.5732L22.2656 42.4073L23.1473 42.398L23.1495 42.5986C23.1552 43.1224 23.5517 43.4676 24.2065 43.4605C24.8872 43.4532 25.2589 43.0823 25.2538 42.5851C25.2487 42.1135 24.9318 41.8722 24.4585 41.7028L23.6082 41.38C22.8806 41.1085 22.3692 40.6688 22.3607 39.874C22.3514 39.0008 23.0426 38.3128 24.1427 38.3009C25.234 38.2894 25.9915 38.9184 26.0025 39.9401L26.0037 40.0623L25.1132 40.0716Z" fill="#FFFFFE"/>
<path fill-rule="evenodd" clip-rule="evenodd" d="M38.7389 36.8935C38.7638 36.9183 38.7886 36.9183 38.8137 36.9183C38.8637 36.9183 38.8885 36.9183 38.9387 36.8684C38.9884 36.8184 38.9884 36.7188 38.9387 36.6689C35.9683 33.5486 32.324 31.0278 28.2558 29.4056C27.0078 28.9063 27.0078 28.9063 27.0078 28.9063C26.3587 28.6315 25.9342 28.0075 25.9342 27.2839C26.0093 24.6132 32.2992 25.1621 32.9483 23.8893C33.0482 23.6646 33.0482 23.6646 33.0482 23.6646C31.7503 22.5414 30.2274 21.7179 28.5304 21.2437C28.5053 21.3185 28.4553 21.618 28.8047 22.192C29.1795 22.7912 28.4054 23.7646 27.2573 22.7161C27.1574 22.6413 27.1574 22.6413 27.1574 22.6413C18.8208 15.0035 14.9773 20.0454 9.31137 11.16C9.26142 11.0849 9.18663 11.0601 9.11156 11.11C9.03677 11.16 9.01165 11.2347 9.03677 11.3095C13.5046 22.0673 22.6399 19.7959 23.7132 29.8295C23.7631 30.2043 24.0374 30.5037 24.4119 30.5537C29.4787 31.3524 34.4209 33.449 38.7141 36.8935H38.7389Z" fill="#FFFFFE"/>
</svg>
