<svg width="141" height="29" viewBox="0 0 141 29" fill="none" xmlns="http://www.w3.org/2000/svg">
<path d="M10.706 28.8773H39.1909L16.3555 5.13661C13.3171 1.99084 9.18682 0.123047 4.89035 0.123047H0.119141L0.475201 1.08152L2.06561 5.38237L10.706 28.8773Z" fill="url(#paint0_linear_2046_1405)"/>
<path d="M2.06501 5.3819C5.17461 10.887 13.364 11.4768 14.266 20.0539C14.3135 20.398 14.5746 20.6929 14.9069 20.7421C19.6307 21.5039 24.212 23.5192 28.1999 26.837C28.2236 26.8616 28.2473 26.8616 28.2948 26.8616C28.3185 26.8616 28.366 26.837 28.3898 26.8124C28.4372 26.7633 28.4372 26.665 28.3898 26.6158C25.6362 23.6175 22.2418 21.209 18.4675 19.6361L17.3044 19.1446C16.711 18.8989 16.3074 18.2844 16.3074 17.5963C16.3786 15.0404 22.218 15.5565 22.8115 14.3277L22.9064 14.1065C21.6958 13.0497 20.2716 12.2387 18.7049 11.7963C18.6812 11.87 18.6574 12.165 18.966 12.7056C19.3221 13.2955 18.5862 14.2294 17.518 13.2217L17.4231 13.148C9.54229 5.62766 3.60794 9.51072 0.474609 1.08105L2.06501 5.3819Z" fill="white"/>
<path d="M21.2316 13.9586C21.2316 13.9586 19.9149 14.0324 19.1248 12.6807C19.3642 13.0739 19.1009 13.6391 18.5742 13.6391V15.679C19.4361 15.4332 20.4176 15.2612 21.2316 15.0891V13.9586Z" fill="url(#paint1_linear_2046_1405)"/>
<path d="M15.9883 20.9142C20.3933 21.7744 24.6786 23.7405 28.4133 26.8125C20.0581 19.5134 16.2756 20.8159 15.9883 20.9142Z" fill="url(#paint2_linear_2046_1405)"/>
<path d="M3.75442 5.77496C2.46165 4.81649 1.3604 3.44021 0.474609 1.10547L2.07861 5.40632C5.21478 10.9114 13.4742 11.5012 14.3839 20.0784C13.4502 9.11733 8.78188 10.7394 3.75442 5.77496Z" fill="url(#paint3_linear_2046_1405)"/>
<path d="M42.2529 9.93066C47.8311 9.93066 51.6297 12.9564 51.6299 16.7324C51.6299 18.4079 50.9174 19.8087 49.5645 20.959H52.8877L52.1045 22.3848C51.606 23.2849 50.9884 23.835 49.6592 23.835H42.0869C36.4613 23.8349 32.877 20.7589 32.877 16.8828C32.877 12.9567 36.6511 9.93077 42.2529 9.93066ZM42.2295 13.082C39.1674 13.082 36.5566 14.6822 36.5566 16.8828C36.5567 19.0834 39.1674 20.6836 42.2295 20.6836C45.2916 20.6836 47.9023 19.0834 47.9023 16.8828C47.9023 14.6822 45.3153 13.082 42.2295 13.082Z" fill="#323232"/>
<path d="M62.9756 11.0557C64.3757 11.0558 65.0644 11.7307 65.5391 12.6309L71.6865 23.834H67.9365L66.6777 21.4834H57.8242L56.5664 23.834H52.8867L59.0352 12.6309C59.5099 11.7558 60.2221 11.0557 61.5986 11.0557H62.9756ZM62.2393 13.4316C62.1444 13.4316 62.0965 13.4562 62.0254 13.5811L59.3193 18.6826H65.1826L62.4531 13.5811C62.382 13.4562 62.3342 13.4316 62.2393 13.4316Z" fill="#323232"/>
<path d="M89.2065 11.0557V23.8345H85.9307L76.2933 15.3569V23.8345H73.0176V11.0557H75.0827C76.1272 11.0557 76.6731 11.3558 77.2666 11.8809L85.9544 19.5082V11.0557H89.2065V11.0557Z" fill="#323232"/>
<path d="M100.884 13.9315V23.8345H97.6086V13.9315H90.8672V11.0557H107.602V13.9315H100.884Z" fill="#323232"/>
<path d="M114.819 11.0557C116.219 11.0558 116.908 11.7307 117.383 12.6309L123.53 23.834H119.78L118.546 21.4834H109.668L108.41 23.834H104.73L110.879 12.6309C111.354 11.7558 112.066 11.0557 113.442 11.0557H114.819ZM114.106 13.4316C114.012 13.4317 113.965 13.4565 113.894 13.5811L111.188 18.6826H117.05L114.32 13.5811C114.249 13.4563 114.201 13.4316 114.106 13.4316Z" fill="#323232"/>
<path d="M124.692 22.9098L124.384 22.8098L125.215 20.034C127.588 20.8342 130.104 21.1593 132.383 21.1593C136.11 21.1593 137.036 20.7092 137.036 20.209C137.036 20.009 136.917 19.8589 136.608 19.7589C136.229 19.6338 135.208 19.4088 132.146 18.8836C128.775 18.3085 127.232 18.0084 126.117 17.4582C125.001 16.908 124.312 16.0328 124.312 14.7574C124.312 13.7821 124.764 13.0069 125.499 12.3817C126.805 11.3314 129.012 10.9062 131.41 10.9062C134.52 10.9062 137.131 11.1813 140.027 11.9316L140.288 12.0066L139.599 14.7074C136.371 13.9822 134.567 13.7821 132.098 13.7321C130.366 13.7071 129.179 13.8571 128.538 14.0572C128.182 14.1822 128.039 14.3573 128.039 14.5573C128.039 14.7574 128.158 14.9074 128.514 15.0325C128.894 15.1575 129.535 15.3326 132.858 15.8827C136.442 16.5079 137.629 16.758 138.626 17.1581C139.979 17.7083 140.786 18.7086 140.786 19.9589C140.786 21.5344 139.623 22.7098 137.605 23.36C136.371 23.7601 134.686 23.9851 132.81 23.9851C129.843 24.0101 126.71 23.61 124.692 22.9098Z" fill="#323232"/>
<defs>
<linearGradient id="paint0_linear_2046_1405" x1="44.3922" y1="21.7788" x2="33.112" y2="-9.71418" gradientUnits="userSpaceOnUse">
<stop stop-color="#BE0000"/>
<stop offset="0.3898" stop-color="#DE0000"/>
<stop offset="0.768" stop-color="#F60000"/>
<stop offset="1" stop-color="#FF0000"/>
</linearGradient>
<linearGradient id="paint1_linear_2046_1405" x1="21.131" y1="15.946" x2="21.459" y2="12.9227" gradientUnits="userSpaceOnUse">
<stop offset="0.65" stop-color="white" stop-opacity="0.01"/>
<stop offset="0.7285" stop-color="#E0E0E0" stop-opacity="0.2617"/>
<stop offset="0.8148" stop-color="#C5C5C5" stop-opacity="0.5493"/>
<stop offset="0.8914" stop-color="#B5B5B5" stop-opacity="0.8047"/>
<stop offset="0.95" stop-color="#AFAFAF"/>
</linearGradient>
<linearGradient id="paint2_linear_2046_1405" x1="15.9932" y1="26.8232" x2="28.4194" y2="26.8232" gradientUnits="userSpaceOnUse">
<stop stop-color="white" stop-opacity="0.01"/>
<stop offset="0.0839079" stop-color="#F1F1F1" stop-opacity="0.093231"/>
<stop offset="0.2921" stop-color="#D4D4D4" stop-opacity="0.3246"/>
<stop offset="0.4993" stop-color="#C0C0C0" stop-opacity="0.5548"/>
<stop offset="0.7032" stop-color="#B3B3B3" stop-opacity="0.7814"/>
<stop offset="0.9" stop-color="#AFAFAF"/>
</linearGradient>
<linearGradient id="paint3_linear_2046_1405" x1="0.473245" y1="20.0419" x2="14.3636" y2="20.0419" gradientUnits="userSpaceOnUse">
<stop offset="0.25" stop-color="white" stop-opacity="0.01"/>
<stop offset="0.4615" stop-color="#EDEDED" stop-opacity="0.282"/>
<stop offset="0.886" stop-color="#BDBDBD" stop-opacity="0.848"/>
<stop offset="1" stop-color="#AFAFAF"/>
</linearGradient>
</defs>
</svg>
