<svg width="39" height="39" viewBox="0 0 39 39" fill="none" xmlns="http://www.w3.org/2000/svg">
<circle cx="19.5" cy="19.5" r="19.5" fill="#00BFD6"/>
<path d="M14.6227 34.2662L14.2679 34.1817L13.6313 33.9705L14.2157 31.7741L14.4453 31.1299L14.5809 30.6653L14.7062 30.1267L14.8418 29.4615L14.9775 28.7856L15.1236 28.1098L15.3114 27.4129L15.6141 27.001L15.7706 26.6103L15.8645 26.1668L15.9376 25.7127L15.9897 25.2481L16.1254 24.7729L16.3237 24.3188L16.6263 24.0126L16.5741 23.6008L16.6472 23.1467L16.7933 22.7137L16.9916 22.3336L17.1794 21.9534L17.3359 21.5944L17.4299 21.2354V20.8447L17.8369 20.3906L18.0664 20.021L18.2438 19.6092L18.4108 19.1762L18.5674 18.7221L18.7761 18.2786L19.0578 17.8562L19.3813 17.5606L19.4022 17.3071L19.517 17.0326L19.6631 16.7369L19.8405 16.494L19.997 16.2511L20.2371 15.8921L20.3205 15.7126L20.2266 15.6809L19.6944 16.0505L19.5901 15.8815L19.4753 15.8393L19.3187 15.8604L19.1204 15.9449L18.8909 16.0927L18.6717 16.2511L18.4526 16.399L18.0873 16.6207L17.8264 16.1033L17.7847 16.1139L17.6177 16.2406L17.4507 16.3779L17.2942 16.5363L17.1272 16.6947L16.9916 16.8531L16.4698 17.4127L16.355 17.0114V16.9481L16.3446 16.8953V16.8742L16.3341 16.8531L16.2924 16.8636L16.1671 16.9586L16.0524 17.0854L15.9584 17.2543L15.8854 17.4444L15.8123 17.6556L15.7497 17.8668L15.6245 18.4476L15.134 17.9196L15.0401 18.1308L14.9671 18.3842L14.8523 18.9228L14.8001 19.4191L14.7479 20.0421L14.3618 19.6831L14.32 19.7359L14.2052 19.9471L14.1322 20.19L14.1009 20.4751L14.08 20.7602V21.3515L14.0905 22.0379L13.6417 21.6894L13.5582 21.5522L13.4956 21.4043L13.4852 21.2882L13.4643 21.1826L13.4434 21.0875L13.4226 21.0347L13.2034 21.0242L12.9634 20.8658L12.8695 20.6018L12.8486 20.3589L12.859 20.0949V19.8626L12.8382 19.6725L12.8069 19.6197L12.7651 19.6408L12.6921 19.662L12.5982 19.6831L12.3164 19.6514L12.4312 19.0917L12.5564 18.7644L12.7234 18.4476L12.9112 18.173L13.0782 17.909L13.2452 17.6556L13.3808 17.4127V17.4022H13.3704V17.381L13.0886 17.2332L13.1825 16.9903L13.3391 16.7791L13.5165 16.5679L13.7148 16.399L13.8817 16.23L14.08 16.0505L14.2574 15.8815L13.7878 15.5859L14.2887 15.3536L14.4766 15.2691L14.654 15.1846L14.8418 15.1001L15.0192 14.9945L15.2175 14.9312L15.4262 14.8678L15.5723 14.8467L15.9376 14.456L16.4594 14.2131L17.002 14.1181L18.0873 14.0969L18.5778 14.0547L19.0265 13.9174L19.35 13.8329L19.2457 13.8118L18.8074 13.759L18.6508 13.4845L18.5152 13.3894L18.3273 13.3366H18.0664L17.7847 13.3578L17.4925 13.4106L17.1898 13.4528L16.7515 13.495L16.6785 12.9882H16.6472L16.4698 12.9987L16.3132 13.0304L16.1358 13.0832L15.9376 13.136L15.7706 13.1888L15.5723 13.2416L15.2175 13.3366L15.0923 13.0198L15.0401 12.9776L14.9357 12.967L14.7583 13.0093L14.5496 13.0621L14.32 13.1571L13.6939 13.4L13.6313 12.872L13.5165 12.9037L13.36 12.9459L13.2139 13.0093L13.0573 13.0726L12.9217 13.1466L12.7651 13.2416L12.5147 13.4106L12.2016 13.1149L12.0451 13.0832L11.8468 13.136L11.6068 13.2944L11.325 13.495L11.0537 13.7273L10.751 13.9491L10.1458 14.2976L10.2293 13.5373L9.02915 14.1497L9.09177 13.6006L9.17525 13.4422L9.26917 13.2838L9.3631 13.1782L9.43614 13.0726L9.47789 12.9882L9.48833 12.9776L9.43614 12.967H9.3631L9.27961 12.9987L9.17525 13.0304L9.0709 13.0621L8.93523 13.0832L8.39258 13.1043L8.85175 12.5552L9.1022 12.3863L9.3631 12.2384L9.61355 12.1011L9.81183 11.9533L9.92662 11.8266L9.96837 11.6999L9.88488 11.3303L10.3754 11.1824L10.7197 11.1085L11.0537 11.0557L11.4085 11.024L11.7529 11.0135H12.1077L12.4834 11.0557L12.6921 11.0874L12.8486 10.665L13.4434 10.6544L13.8922 10.7284L14.3096 10.834L14.7062 10.9924L15.0818 11.1296L15.4471 11.2564L15.8019 11.3514L15.9063 11.362L15.7706 10.8656L16.5011 10.9712L16.9185 11.1085L17.2838 11.288L17.6595 11.4992L18.0038 11.6787L18.3482 11.8477L18.7135 11.9533L19.1518 12.0167L19.4231 12.1328L19.6631 12.3018L20.1431 12.6291L20.3205 12.7136L20.4771 12.7453L20.7588 12.7875L20.8423 12.7664L20.7484 12.7136L20.4562 12.4391L20.2579 12.3123L20.091 12.1856L20.0179 12.0378L20.0388 11.9216L20.0805 11.8899L20.0701 11.8794L19.9449 11.7738L19.7988 11.6787L19.6527 11.5943L19.4961 11.5098L19.3396 11.4464L19.1726 11.362L18.7552 11.1402L18.9952 10.9396L18.9743 10.8868L18.8491 10.76L18.6821 10.6544L18.4734 10.5805L18.2334 10.5172L17.9934 10.4644L17.7221 10.401L17.2838 10.2426L17.5029 9.78854L17.0959 9.84134L16.6681 9.7991L16.2506 9.67238L15.8958 9.51399L15.5514 9.36615L15.2279 9.27111L14.894 9.28167L14.5183 9.40839L14.3305 9.08103L14.5288 8.8804H14.3618L14.1218 8.91208L13.8713 8.99656L13.6 9.08103L13.3287 9.15495L13.0365 9.18663L12.4834 9.10215L12.7443 8.70088L12.6295 8.69032L12.4521 8.70088L12.2538 8.74312L12.0346 8.79592L11.8259 8.85928L11.6068 8.91208L11.0641 9.05991L11.2415 8.5108L11.1998 8.48969L10.9806 8.42633L10.751 8.38409L10.2188 8.33129H9.95793L9.6866 8.34185L8.81001 8.40521L9.57181 7.81386L9.87444 7.71882L10.1771 7.65546L10.4588 7.63434L10.6989 7.58154L10.8658 7.51818L10.9806 7.39147L11.1163 7.06411L11.4815 6.97963L11.805 7.00075L12.1181 7.05355L12.4103 7.10635L12.6608 7.12747L12.8486 7.10635L12.9738 7.02187L13.1304 6.70508L13.7043 6.76844L14.1426 6.86348L14.5496 6.99019L14.9566 7.13803L15.3323 7.27531L15.708 7.40203L16.0732 7.49706L16.188 7.51818L16.1358 7.16971L16.5637 7.33867L16.6889 7.38091L16.8246 7.41259L16.9707 7.46538L17.1168 7.51818L17.2629 7.5921L17.409 7.68714L17.4612 7.72938L17.7429 7.66602L18.1291 7.71882L18.463 7.86666L18.7761 8.06729L19.3396 8.5108L19.6005 8.67976L19.7466 8.74312L19.9762 8.41577L20.331 8.55304L20.5397 8.74312L20.6962 8.95432L20.8528 9.16551L20.9676 9.31335L21.0615 9.37671L21.1137 9.38727L21.3954 9.22887L21.792 9.66182L22.032 10.0209L22.199 10.3799L22.3346 10.7495L22.4494 11.1191L22.5642 11.4887L22.6686 11.9955L22.7103 12.0695V12.0589L22.8982 11.6154L23.0338 11.3303L23.1904 11.0346L23.3365 10.7178L23.5243 10.4327L23.7643 10.1476L24.1609 9.84134L24.5052 10.0631L24.6096 9.9575L24.8392 9.72518L25.0583 9.52455L25.2984 9.34503L25.5592 9.17607L25.8201 9.0388L26.1123 8.91208L26.8637 8.69032L26.5715 9.23943L26.4672 9.38727L26.3524 9.51399L26.2689 9.61958L26.2271 9.67238L26.5506 9.53511L26.8846 9.40839L27.2394 9.29223L27.5629 9.18663L27.9281 9.10215L28.283 9.02824L28.7526 8.986L28.9717 9.22887L29.1282 9.30279L29.3161 9.33447L29.5457 9.34503L29.7857 9.31335L30.0779 9.30279L30.3701 9.32391L30.8084 9.47175L30.798 9.7991L30.871 9.9047L31.0275 10.0209L31.278 10.137L31.5284 10.2426L31.8311 10.3799L32.1024 10.5488L32.5825 11.1085L31.8937 11.0768L31.6328 11.0452L31.3719 11.0029L31.1319 10.9607L30.9232 10.9396L30.7458 10.9607L30.6101 11.0135L30.7666 11.0874L30.8814 11.1402L30.9962 11.2669L31.0693 11.4464L31.0171 11.8583L30.5058 11.7104L30.2344 11.5943L29.9527 11.4676L29.7022 11.362L29.4518 11.2669L29.2326 11.2141L29.0239 11.2036L29.5039 12.1117L27.1872 11.4464L27.3646 11.8477L26.5298 11.7104L26.1436 11.7315L25.8306 11.9111L25.5071 12.0906L25.1523 12.3123L24.9435 12.4707H24.9749L25.4966 12.4919L25.8723 12.4285L26.2584 12.3863L26.6341 12.3546L27.1872 12.3335L27.2707 12.4919L27.3646 12.5763L27.5525 12.6291L27.8029 12.6714L28.0847 12.6925L28.3978 12.7453L28.6899 12.8403L29.003 13.0938L28.9717 13.3894L29.0135 13.4845L29.1387 13.5901L29.337 13.7168L29.577 13.8329L29.8274 13.9808L30.0675 14.192L30.4014 14.7939L29.8587 14.7305L29.7857 14.7094H29.7753L29.8379 14.815L30.3597 15.5225L30.4953 15.7126L30.6623 16.0505L30.4327 16.2723L30.4014 16.3779L30.4118 16.5046L30.464 16.6947L30.5475 16.8953L30.631 17.1276L30.6936 17.3705L30.704 17.6239L30.3492 17.7401L30.2344 17.5394L30.1092 17.381L29.9527 17.2121L29.8066 17.0748L29.6187 16.9375L29.4413 16.8003L29.2639 16.6841L29.1804 16.6419L29.1491 16.663L29.1178 16.6947L29.2326 17.4022L28.6169 16.7158L28.4604 16.494L28.3038 16.2617L28.1682 16.0083L28.0325 15.7654L27.9073 15.512L27.7716 15.2691L27.6568 15.0579L27.6359 15.0262H27.6046L27.5838 15.0368L27.5629 15.0579L27.542 15.079L27.4377 15.4169L27.0411 15.0368L26.9055 14.8361L26.6863 14.456L26.5715 14.2976L26.4567 14.1603L26.3211 14.0653L26.2584 14.0441L26.1541 14.1392L25.9454 14.2131L25.6532 14.1497L25.4027 14.0441L25.1418 13.9174L24.547 13.7801H24.4844L25.0688 14.2976L25.2357 14.3821L25.434 14.4982L25.601 14.6355L25.7053 14.7939L25.7367 14.9206L25.7993 15.0473L25.9036 15.1424L26.1228 15.2796L26.3628 15.4064L26.6237 15.5436L26.8846 15.7232L27.4481 16.3356L26.9368 16.2723L27.0307 16.4201L27.1976 16.5891L27.4272 16.7686L27.6777 16.9481L27.9281 17.1698L28.1577 17.4338L28.5021 18.0674L27.9073 18.0041L27.9386 18.0569L28.0534 18.2469L28.189 18.437L28.3038 18.6377L28.3978 18.8489L28.4291 19.0812L28.3038 19.588L28.0116 19.3663L28.0429 19.4296L28.1473 19.7781L28.2203 20.1055L28.2517 20.4751L28.2725 20.8341L28.2934 21.172L28.3038 21.531L28.3978 22.2386L27.8447 21.9323L27.4168 23.6008L27.0307 23.5796L26.8115 21.8267H26.6133L26.3419 21.6472L26.2271 21.341V21.0453L26.2376 20.7391L26.2271 20.4645L26.1854 20.2533L26.1645 20.2111L25.5697 20.4751L25.5279 19.9682V19.5036L25.5175 19.2712L25.5071 19.0389L25.4862 18.8277L25.4549 18.6905L24.9644 19.0917L24.787 18.5954L24.7557 18.3314L24.7453 18.0674L24.7348 17.8246L24.714 17.6134L24.6722 17.4444L24.5783 17.3071L24.547 17.2754L23.8582 18.1308L23.9313 17.2649L23.9209 17.0642L23.8582 16.8425L23.7748 16.6524L23.6495 16.4518L23.5243 16.2723L23.3782 16.1244L22.8668 16.7052L22.6581 16.2723L22.606 16.1033L22.5538 15.9449L22.512 15.7971L22.4599 15.6704L22.3972 15.5753L22.3555 15.5331L21.2285 17.2966L20.1536 19.324L19.2248 21.4466L18.4526 23.6536L17.8264 25.9239L17.3568 28.2682L17.0437 30.6653L16.5846 34.2556L16.0941 34.3295L15.7289 34.3506H15.3636L14.9984 34.319L14.6227 34.2662Z" fill="white"/>
</svg>
